SplineFontDB: 3.0
FontName: Fondamento-Italic
FullName: Fondamento-Italic
FamilyName: Fondamento
Weight: Book
Copyright: Copyright (c) 2011 by Brian J. Bonislawsky DBA Astigmatic (AOETI) (astigma@astigmatic.com), with Reserved\nFont Name "Fondamento Italic"
Version: 1.000
ItalicAngle: -12
UnderlinePosition: -113
UnderlineWidth: 20
Ascent: 1638
Descent: 410
sfntRevision: 0x00010000
LayerCount: 2
Layer: 0 1 "Back"  1
Layer: 1 1 "Fore"  0
XUID: [1021 288 713564382 8931364]
FSType: 0
OS2Version: 3
OS2_WeightWidthSlopeOnly: 0
OS2_UseTypoMetrics: 1
CreationTime: 1321203720
ModificationTime: 1321295487
PfmFamily: 65
TTFWeight: 400
TTFWidth: 5
LineGap: 0
VLineGap: 0
Panose: 3 2 5 5 0 0 0 9 0 0
OS2TypoAscent: 422
OS2TypoAOffset: 1
OS2TypoDescent: -364
OS2TypoDOffset: 1
OS2TypoLinegap: 0
OS2WinAscent: 0
OS2WinAOffset: 1
OS2WinDescent: 0
OS2WinDOffset: 1
HheadAscent: 0
HheadAOffset: 1
HheadDescent: 0
HheadDOffset: 1
OS2SubXSize: 700
OS2SubYSize: 650
OS2SubXOff: 0
OS2SubYOff: 140
OS2SupXSize: 700
OS2SupYSize: 650
OS2SupXOff: 0
OS2SupYOff: 477
OS2StrikeYSize: 102
OS2StrikeYPos: 512
OS2Vendor: 'AOEF'
OS2CodePages: 00000093.00000000
OS2UnicodeRanges: a00000ef.4000004a.00000000.00000000
Lookup: 1 0 0 "'aalt' Access All Alternates in Latin lookup 0"  {"'aalt' Access All Alternates in Latin lookup 0 subtable"  } ['aalt' ('latn' <'dflt' > ) ]
Lookup: 1 0 0 "'sups' Superscript in Latin lookup 1"  {"'sups' Superscript in Latin lookup 1 subtable" ("superior" ) } ['sups' ('latn' <'dflt' > ) ]
Lookup: 4 0 1 "'liga' Standard Ligatures in Latin lookup 2"  {"'liga' Standard Ligatures in Latin lookup 2 subtable"  } ['liga' ('latn' <'dflt' > ) ]
Lookup: 6 0 0 "'ordn' Ordinals in Latin lookup 3"  {"'ordn' Ordinals in Latin lookup 3 subtable"  } ['ordn' ('latn' <'dflt' > ) ]

StartChar: lslash
Encoding: 322 322 4
Width: 612
Flags: HW
LayerCount: 2
Fore
SplineSet
647 872 m 1,0,1
 669.5 866 669.5 866 710.25 866 c 0,2,3
 796.055555556 866 796.055555556 866 868 901 c 1,4,5
 710.732049037 788.946584939 710.732049037 788.946584939 537 694 c 1,6,-1
 447 309 l 2,7,8
 441 281 441 281 433.5 252 c 128,-1,9
 426 223 426 223 426 195.5 c 128,-1,10
 426 168 426 168 436 153 c 128,-1,11
 446 138 446 138 462.5 130.5 c 0,12,13
 513.946902655 107.115044248 513.946902655 107.115044248 604 124 c 1,14,15
 569 100 569 100 534 74.5 c 128,-1,16
 499 49 499 49 461.5 28 c 0,17,18
 375.785714286 -20 375.785714286 -20 298 -20 c 0,19,20
 211 -20 211 -20 211 81 c 0,21,22
 211 132 211 132 231 212 c 1,23,-1
 318 586 l 1,24,25
 201.312 533.376 201.312 533.376 108 504 c 1,26,-1
 104 527 l 1,27,28
 244 606.655172414 244 606.655172414 335 660 c 1,29,-1
 479 1282 l 1,30,31
 492 1331.83333333 492 1331.83333333 492 1375 c 0,32,33
 492 1478 492 1478 395 1478 c 0,34,35
 372 1478 372 1478 350 1474 c 1,36,37
 404 1506 404 1506 458 1539 c 128,-1,38
 512 1572 512 1572 565.5 1597 c 0,39,40
 682.87244898 1651.84693878 682.87244898 1651.84693878 769 1689 c 1,41,-1
 565 812 l 1,42,-1
 647 872 l 1,0,1
EndSplineSet
EndChar

StartChar: Thorn
Encoding: 222 222 5
Width: 1227
Flags: HW
LayerCount: 2
Fore
SplineSet
899 364 m 0,0,1
 742.777777778 288 742.777777778 288 607.5 288 c 0,2,3
 549 288 549 288 515 292 c 1,4,5
 472.203898051 198.626686657 472.203898051 198.626686657 386 135 c 1,6,-1
 700 135 l 1,7,8
 676.372372372 129.936936937 676.372372372 129.936936937 621.686186186 87.9684684685 c 128,-1,9
 567 46 567 46 546.5 32 c 0,10,11
 499.642857143 1.42108547152e-14 499.642857143 1.42108547152e-14 475 0 c 2,12,-1
 158 0 l 1,13,14
 269.768317642 75.3786328285 269.768317642 75.3786328285 304 179.5 c 0,15,16
 316 216 316 216 328 266 c 2,17,-1
 514 1065 l 1,18,-1
 284 1065 l 1,19,20
 293 1071 293 1071 311 1083.5 c 128,-1,21
 329 1096 329 1096 351.5 1111 c 128,-1,22
 374 1126 374 1126 398.5 1142 c 128,-1,23
 423 1158 423 1158 445 1171 c 0,24,25
 495.769230769 1201 495.769230769 1201 510 1201 c 2,26,-1
 545 1201 l 1,27,-1
 578 1341 l 1,28,29
 606 1360 606 1360 633 1378.5 c 128,-1,30
 660 1397 660 1397 688.5 1414 c 128,-1,31
 717 1431 717 1431 748.5 1444 c 128,-1,32
 780 1457 780 1457 804 1477 c 1,33,-1
 740 1201 l 1,34,-1
 1046 1201 l 2,35,36
 1191.46153846 1201 1191.46153846 1201 1290.5 1138.5 c 0,37,38
 1406 1065.61165049 1406 1065.61165049 1406 927 c 0,39,40
 1406 645.974358974 1406 645.974358974 1012.5 424 c 0,41,42
 954 391 954 391 899 364 c 0,0,1
570 472 m 1,43,44
 710.3 426 710.3 426 842.15 426 c 128,-1,45
 974 426 974 426 1053 487.5 c 128,-1,46
 1132 549 1132 549 1164 685 c 0,47,48
 1178 743 1178 743 1178 800 c 128,-1,49
 1178 857 1178 857 1159.5 900 c 128,-1,50
 1141 943 1141 943 1109 973 c 128,-1,51
 1077 1003 1077 1003 1034.5 1021 c 128,-1,52
 992 1039 992 1039 944.5 1049 c 0,53,54
 868.5 1065 868.5 1065 751 1065 c 2,55,-1
 708 1065 l 1,56,-1
 570 472 l 1,43,44
EndSplineSet
EndChar

StartChar: thorn
Encoding: 254 254 6
Width: 1101
Flags: HW
LayerCount: 2
Fore
SplineSet
603 1452 m 0,0,1
 673 1452 673 1452 673 1359 c 0,2,3
 673 1315.14285714 673 1315.14285714 655 1238 c 2,4,-1
 565 852 l 1,5,6
 722.034512511 953.860224331 722.034512511 953.860224331 796.017256255 976.930112166 c 128,-1,7
 870 1000 870 1000 915 1000 c 0,8,9
 1049 1000 1049 1000 1119 929.5 c 128,-1,10
 1189 859 1189 859 1189 744 c 128,-1,11
 1189 629 1189 629 1158 536.5 c 128,-1,12
 1127 444 1127 444 1073 361 c 128,-1,13
 1019 278 1019 278 945.5 208 c 128,-1,14
 872 138 872 138 786.5 87 c 0,15,16
 605.441176471 -21 605.441176471 -21 420 -21 c 0,17,18
 386.333333333 -21 386.333333333 -21 363 -16 c 1,19,-1
 275 -394 l 1,20,21
 271 -406 271 -406 271 -421 c 0,22,23
 271 -474 271 -474 343 -474 c 0,24,25
 363.8 -474 363.8 -474 408 -457 c 1,26,27
 347.025440313 -555.236790607 347.025440313 -555.236790607 241.5 -595 c 0,28,29
 207 -608 207 -608 171 -608 c 0,30,31
 66 -608 66 -608 66 -496 c 0,32,33
 66 -458.2 66 -458.2 77 -412 c 2,34,-1
 438 1141 l 2,35,36
 452 1205.4 452 1205.4 452 1235 c 0,37,38
 452 1319 452 1319 382 1319 c 0,39,40
 338 1319 338 1319 278 1295 c 1,41,42
 429.397183099 1405.10704225 429.397183099 1405.10704225 495.198591549 1428.55352113 c 128,-1,43
 561 1452 561 1452 603 1452 c 0,0,1
953 475.5 m 128,-1,45
 959 529 959 529 959 584.5 c 128,-1,46
 959 640 959 640 944.5 693 c 128,-1,47
 930 746 930 746 898.5 784 c 0,48,49
 832.184210526 864 832.184210526 864 702 864 c 0,50,51
 616.777777778 864 616.777777778 864 546 773 c 1,52,-1
 427 258 l 1,53,54
 464.929795236 150.045967405 464.929795236 150.045967405 579.5 121 c 0,55,56
 615 112 615 112 663.5 112 c 128,-1,57
 712 112 712 112 758 133 c 128,-1,58
 804 154 804 154 838 189.5 c 128,-1,59
 872 225 872 225 895 272 c 128,-1,60
 918 319 918 319 932.5 370.5 c 128,-1,44
 947 422 947 422 953 475.5 c 128,-1,45
EndSplineSet
EndChar

StartChar: onehalf
Encoding: 189 189 7
Width: 1792
Flags: HW
LayerCount: 2
Fore
SplineSet
1409 610 m 1,0,1
 1398.25 583.125 1398.25 583.125 1184 476 c 1,2,3
 1177 497 1177 497 1177 524.5 c 128,-1,4
 1177 552 1177 552 1186 580 c 128,-1,5
 1195 608 1195 608 1210.5 633 c 0,6,7
 1239.15498155 679.217712177 1239.15498155 679.217712177 1282.57749077 714.608856089 c 128,-1,8
 1326 750 1326 750 1374 783.5 c 128,-1,9
 1422 817 1422 817 1474.5 845.5 c 0,10,11
 1597 912 1597 912 1683 912 c 0,12,13
 1817.21818182 912 1817.21818182 912 1868 838.5 c 0,14,15
 1887 811 1887 811 1887 761 c 128,-1,16
 1887 711 1887 711 1861 660.5 c 128,-1,17
 1835 610 1835 610 1792.5 565.5 c 128,-1,18
 1750 521 1750 521 1695 482 c 128,-1,19
 1640 443 1640 443 1581.5 407 c 128,-1,20
 1523 371 1523 371 1466 337.5 c 128,-1,21
 1409 304 1409 304 1362 271 c 0,22,23
 1257.9235905 197.925074184 1257.9235905 197.925074184 1242 136 c 1,24,-1
 1737 136 l 1,25,26
 1723 134 1723 134 1693.5 112.5 c 128,-1,27
 1664 91 1664 91 1629.5 66 c 0,28,29
 1538.42 -1.13686837722e-13 1538.42 -1.13686837722e-13 1511 0 c 2,30,-1
 1020 0 l 1,31,32
 1022 5 1022 5 1023.5 11.5 c 128,-1,33
 1025 18 1025 18 1028 23 c 0,34,35
 1133.51194539 198.853242321 1133.51194539 198.853242321 1340.5 306 c 0,36,37
 1523.91794159 400.945757997 1523.91794159 400.945757997 1589 468 c 0,38,39
 1662 543.212121212 1662 543.212121212 1662 633 c 0,40,41
 1662 703.894736842 1662 703.894736842 1597.5 743.5 c 0,42,43
 1541.31428571 778 1541.31428571 778 1467 778 c 0,44,45
 1455 778 1455 778 1441 776 c 1,46,47
 1405 719.75 1405 719.75 1405 678.875 c 128,-1,48
 1405 638 1405 638 1409 610 c 1,0,1
1687 1637 m 1,49,50
 1515.24326059 1235.15404365 1515.24326059 1235.15404365 1115 724 c 1,51,52
 874.274193548 419.080645161 874.274193548 419.080645161 744.637096774 278.540322581 c 128,-1,53
 615 138 615 138 545.5 66.5 c 128,-1,54
 476 -5 476 -5 424.5 -45 c 128,-1,55
 373 -85 373 -85 345.5 -100.5 c 128,-1,56
 318 -116 318 -116 289.5 -130 c 0,57,58
 213.068181818 -167.545454545 213.068181818 -167.545454545 180 -194 c 1,59,60
 643.873930947 244.360864745 643.873930947 244.360864745 1061 816.5 c 0,61,62
 1311.71050283 1160.37994644 1311.71050283 1160.37994644 1444 1462 c 0,63,64
 1448 1470 1448 1470 1452 1482 c 128,-1,65
 1456 1494 1456 1494 1468 1508 c 128,-1,66
 1480 1522 1480 1522 1508.5 1539.5 c 128,-1,67
 1537 1557 1537 1557 1568.5 1573 c 128,-1,68
 1600 1589 1600 1589 1631.5 1604.5 c 128,-1,69
 1663 1620 1663 1620 1687 1637 c 1,49,50
850 705 m 1,70,71
 834.113475177 702.730496454 834.113475177 702.730496454 771.056737589 656.365248227 c 0,72,73
 652.24 569 652.24 569 624 569 c 2,74,-1
 314 569 l 1,75,76
 345 602 345 602 365 621 c 128,-1,77
 385 640 385 640 398.5 659.5 c 0,78,79
 424.182142857 696.596428571 424.182142857 696.596428571 450.091071429 806.798214286 c 0,80,81
 484.225639572 951.987173127 484.225639572 951.987173127 572 1336 c 1,82,83
 540 1316 540 1316 507 1296 c 128,-1,84
 474 1276 474 1276 450.5 1261.5 c 128,-1,85
 427 1247 427 1247 412.5 1237.5 c 128,-1,86
 398 1228 398 1228 382 1221 c 1,87,88
 383 1223 383 1223 383.5 1226.5 c 128,-1,89
 384 1230 384 1230 386 1234.5 c 128,-1,90
 388 1239 388 1239 416 1257.5 c 128,-1,91
 444 1276 444 1276 486 1300 c 128,-1,92
 528 1324 528 1324 577.5 1351 c 128,-1,93
 627 1378 627 1378 672 1401.5 c 128,-1,94
 717 1425 717 1425 751 1443 c 128,-1,95
 785 1461 785 1461 797 1467 c 1,96,-1
 657 865 l 2,97,98
 638.509146341 783.640243902 638.509146341 783.640243902 584 732 c 0,99,100
 565 714 565 714 543 705 c 1,101,-1
 850 705 l 1,70,71
EndSplineSet
Ligature2: "Ligature Substitution lookup 6 subtable" one fraction two
Ligature2: "Ligature Substitution lookup 6 subtable" one fraction twosuperior
Ligature2: "Ligature Substitution lookup 6 subtable" one slash two
Ligature2: "Ligature Substitution lookup 6 subtable" one slash twosuperior
Ligature2: "Ligature Substitution lookup 6 subtable" onesuperior fraction twosuperior
Ligature2: "Ligature Substitution lookup 6 subtable" onesuperior slash twosuperior
EndChar

StartChar: onequarter
Encoding: 188 188 8
Width: 1827
Flags: HW
LayerCount: 2
Fore
SplineSet
1604 338 m 1,0,-1
 1701 339 l 2,1,2
 1771.11111111 339 1771.11111111 339 1849.5 380.5 c 0,3,4
 1858 385 1858 385 1866 387 c 1,5,6
 1864 385 1864 385 1862 383.5 c 128,-1,7
 1860 382 1860 382 1843 369.5 c 128,-1,8
 1826 357 1826 357 1791.5 333.5 c 128,-1,9
 1757 310 1757 310 1721 288.5 c 0,10,11
 1641.81710214 241.210213777 1641.81710214 241.210213777 1572 221 c 1,12,13
 1546.79190751 174.184971098 1546.79190751 174.184971098 1498 136 c 1,14,-1
 1709 136 l 1,15,16
 1701 130 1701 130 1683 118 c 2,17,-1
 1642.5 91 l 2,18,19
 1506 -1.42108547152e-13 1506 -1.42108547152e-13 1483 0 c 2,20,-1
 1259 0 l 1,21,22
 1337.4276808 37.9488778055 1337.4276808 37.9488778055 1363.5 140.5 c 0,23,24
 1371 170 1371 170 1378 201 c 1,25,-1
 849 202 l 1,26,27
 880.783783784 212.594594595 880.783783784 212.594594595 952.891891892 267.297297297 c 128,-1,28
 1025 322 1025 322 1063 349 c 128,-1,29
 1101 376 1101 376 1163 427 c 128,-1,30
 1225 478 1225 478 1283 531.5 c 0,31,32
 1389.06339623 629.334339623 1389.06339623 629.334339623 1509 764 c 0,33,34
 1536.05673759 794.921985816 1536.05673759 794.921985816 1625.02836879 841.460992908 c 128,-1,35
 1714 888 1714 888 1735 900 c 1,36,-1
 1604 338 l 1,0,-1
1700 1637 m 1,37,38
 1528.24326059 1235.15404365 1528.24326059 1235.15404365 1128 724 c 1,39,40
 887.274193548 419.080645161 887.274193548 419.080645161 757.637096774 278.540322581 c 128,-1,41
 628 138 628 138 558.5 66.5 c 128,-1,42
 489 -5 489 -5 437.5 -45 c 128,-1,43
 386 -85 386 -85 358.5 -100.5 c 128,-1,44
 331 -116 331 -116 302.5 -130 c 0,45,46
 226.068181818 -167.545454545 226.068181818 -167.545454545 193 -194 c 1,47,48
 656.873930947 244.360864745 656.873930947 244.360864745 1074 816.5 c 0,49,50
 1324.71050283 1160.37994644 1324.71050283 1160.37994644 1457 1462 c 0,51,52
 1461 1470 1461 1470 1465 1482 c 128,-1,53
 1469 1494 1469 1494 1481 1508 c 128,-1,54
 1493 1522 1493 1522 1521.5 1539.5 c 128,-1,55
 1550 1557 1550 1557 1581.5 1573 c 128,-1,56
 1613 1589 1613 1589 1644.5 1604.5 c 128,-1,57
 1676 1620 1676 1620 1700 1637 c 1,37,38
863 705 m 1,58,59
 847.113475177 702.730496454 847.113475177 702.730496454 784.056737589 656.365248227 c 0,60,61
 665.24 569 665.24 569 637 569 c 2,62,-1
 327 569 l 1,63,64
 358 602 358 602 378 621 c 128,-1,65
 398 640 398 640 411.5 659.5 c 0,66,67
 437.182142857 696.596428571 437.182142857 696.596428571 463.091071429 806.798214286 c 0,68,69
 497.225639572 951.987173127 497.225639572 951.987173127 585 1336 c 1,70,71
 553 1316 553 1316 520 1296 c 128,-1,72
 487 1276 487 1276 463.5 1261.5 c 128,-1,73
 440 1247 440 1247 425.5 1237.5 c 128,-1,74
 411 1228 411 1228 395 1221 c 1,75,76
 396 1223 396 1223 396.5 1226.5 c 128,-1,77
 397 1230 397 1230 399 1234.5 c 128,-1,78
 401 1239 401 1239 429 1257.5 c 128,-1,79
 457 1276 457 1276 499 1300 c 128,-1,80
 541 1324 541 1324 590.5 1351 c 128,-1,81
 640 1378 640 1378 685 1401.5 c 128,-1,82
 730 1425 730 1425 764 1443 c 128,-1,83
 798 1461 798 1461 810 1467 c 1,84,-1
 670 865 l 2,85,86
 651.509146341 783.640243902 651.509146341 783.640243902 597 732 c 0,87,88
 578 714 578 714 556 705 c 1,89,-1
 863 705 l 1,58,59
1480 640 m 1,90,91
 1305.8006617 484.332506203 1305.8006617 484.332506203 1081 338 c 1,92,-1
 1410 338 l 1,93,-1
 1480 640 l 1,90,91
EndSplineSet
Ligature2: "Ligature Substitution lookup 6 subtable" one fraction four
Ligature2: "Ligature Substitution lookup 6 subtable" one slash four
Ligature2: "Ligature Substitution lookup 6 subtable" onesuperior fraction four
Ligature2: "Ligature Substitution lookup 6 subtable" onesuperior slash four
EndChar

StartChar: onesuperior
Encoding: 185 185 9
Width: 668
Flags: HW
LayerCount: 2
Fore
SplineSet
827 705 m 1,0,1
 811.113475177 702.730496454 811.113475177 702.730496454 748.056737589 656.365248227 c 0,2,3
 629.24 569 629.24 569 601 569 c 2,4,-1
 291 569 l 1,5,6
 322 602 322 602 342 621 c 128,-1,7
 362 640 362 640 375.5 659.5 c 0,8,9
 401.182142857 696.596428571 401.182142857 696.596428571 427.091071429 806.798214286 c 0,10,11
 461.225639572 951.987173127 461.225639572 951.987173127 549 1336 c 1,12,13
 517 1316 517 1316 484 1296 c 128,-1,14
 451 1276 451 1276 427.5 1261.5 c 128,-1,15
 404 1247 404 1247 389.5 1237.5 c 128,-1,16
 375 1228 375 1228 359 1221 c 1,17,18
 360 1223 360 1223 360.5 1226.5 c 128,-1,19
 361 1230 361 1230 363 1234.5 c 128,-1,20
 365 1239 365 1239 393 1257.5 c 128,-1,21
 421 1276 421 1276 463 1300 c 128,-1,22
 505 1324 505 1324 554.5 1351 c 128,-1,23
 604 1378 604 1378 649 1401.5 c 128,-1,24
 694 1425 694 1425 728 1443 c 128,-1,25
 762 1461 762 1461 774 1467 c 1,26,-1
 634 865 l 2,27,28
 615.509146341 783.640243902 615.509146341 783.640243902 561 732 c 0,29,30
 542 714 542 714 520 705 c 1,31,-1
 827 705 l 1,0,1
EndSplineSet
EndChar

StartChar: threequarters
Encoding: 190 190 10
Width: 1946
Flags: HW
LayerCount: 2
Fore
SplineSet
1723 338 m 1,0,-1
 1820 339 l 2,1,2
 1890.11111111 339 1890.11111111 339 1968.5 380.5 c 0,3,4
 1977 385 1977 385 1985 387 c 1,5,6
 1983 385 1983 385 1981 383.5 c 128,-1,7
 1979 382 1979 382 1962 369.5 c 128,-1,8
 1945 357 1945 357 1910.5 333.5 c 128,-1,9
 1876 310 1876 310 1840 288.5 c 0,10,11
 1760.81710214 241.210213777 1760.81710214 241.210213777 1691 221 c 1,12,13
 1668.10714286 175.214285714 1668.10714286 175.214285714 1618 136 c 1,14,-1
 1829 136 l 1,15,16
 1820 130 1820 130 1802.5 118 c 128,-1,17
 1785 106 1785 106 1762.5 91 c 128,-1,18
 1740 76 1740 76 1715 60 c 128,-1,19
 1690 44 1690 44 1668 30.5 c 0,20,21
 1618.2962963 3.5527136788e-15 1618.2962963 3.5527136788e-15 1603 0 c 2,22,-1
 1379 0 l 1,23,24
 1456.28740648 37.3971321696 1456.28740648 37.3971321696 1482.5 140.5 c 0,25,26
 1490 170 1490 170 1497 201 c 1,27,-1
 968 202 l 1,28,29
 999.783783784 212.594594595 999.783783784 212.594594595 1071.89189189 267.297297297 c 128,-1,30
 1144 322 1144 322 1182 349 c 128,-1,31
 1220 376 1220 376 1282 427 c 128,-1,32
 1344 478 1344 478 1402 531.5 c 0,33,34
 1508.06339623 629.334339623 1508.06339623 629.334339623 1628 764 c 0,35,36
 1655.05673759 794.921985816 1655.05673759 794.921985816 1744.02836879 841.460992908 c 128,-1,37
 1833 888 1833 888 1854 900 c 1,38,-1
 1723 338 l 1,0,-1
1820 1637 m 1,39,40
 1649.44522893 1237.96619598 1649.44522893 1237.96619598 1247 724 c 1,41,42
 1006.27419355 419.080645161 1006.27419355 419.080645161 876.637096774 278.540322581 c 128,-1,43
 747 138 747 138 677.5 66.5 c 128,-1,44
 608 -5 608 -5 557 -45 c 128,-1,45
 506 -85 506 -85 478 -100.5 c 128,-1,46
 450 -116 450 -116 421.5 -130 c 0,47,48
 345.068181818 -167.545454545 345.068181818 -167.545454545 312 -194 c 1,49,50
 775.873930947 244.360864745 775.873930947 244.360864745 1193 816.5 c 0,51,52
 1446.2204701 1163.82267182 1446.2204701 1163.82267182 1577 1462 c 0,53,54
 1580 1470 1580 1470 1584 1482 c 128,-1,55
 1588 1494 1588 1494 1600 1508 c 128,-1,56
 1612 1522 1612 1522 1640.5 1539.5 c 128,-1,57
 1669 1557 1669 1557 1700.5 1573 c 128,-1,58
 1732 1589 1732 1589 1763.5 1604.5 c 128,-1,59
 1795 1620 1795 1620 1820 1637 c 1,39,40
485 1304 m 1,60,61
 689 1440 689 1440 711 1440 c 2,62,-1
 1165 1440 l 1,63,64
 1080 1347 1080 1347 980.5 1272 c 128,-1,65
 881 1197 881 1197 778 1126 c 1,66,67
 900.543076923 1123.08230769 900.543076923 1123.08230769 952.771538462 1103.04115385 c 0,68,69
 1063 1060.74418605 1063 1060.74418605 1063 962 c 0,70,71
 1063 834.054794521 1063 834.054794521 934.5 739 c 0,72,73
 661.425925926 537 661.425925926 537 453 537 c 0,74,75
 305.142857143 537 305.142857143 537 255 577.5 c 0,76,77
 242 588 242 588 242 602.5 c 128,-1,78
 242 617 242 617 257.5 633 c 128,-1,79
 273 649 273 649 296.5 665 c 128,-1,80
 320 681 320 681 349.5 697 c 128,-1,81
 379 713 379 713 406.5 727.5 c 0,82,83
 480.287128713 766.405940594 480.287128713 766.405940594 493 777 c 1,84,85
 466 756 466 756 466 739.5 c 128,-1,86
 466 723 466 723 479 713 c 128,-1,87
 492 703 492 703 512 696 c 128,-1,88
 532 689 532 689 556.5 685 c 128,-1,89
 581 681 581 681 604.5 678.5 c 0,90,91
 646.8 674 646.8 674 691.9 674 c 128,-1,92
 737 674 737 674 799 688 c 1,93,94
 838 747.526315789 838 747.526315789 838 806.263157895 c 128,-1,95
 838 865 838 865 824.5 891.5 c 128,-1,96
 811 918 811 918 788 936 c 128,-1,97
 765 954 765 954 735.5 964.5 c 128,-1,98
 706 975 706 975 674 980.5 c 0,99,100
 637.016393443 986.856557377 637.016393443 986.856557377 549 990 c 1,101,102
 740.285347044 1121.16709512 740.285347044 1121.16709512 938 1304 c 1,103,-1
 485 1304 l 1,60,61
1599 640 m 1,104,105
 1424.8006617 484.332506203 1424.8006617 484.332506203 1200 338 c 1,106,-1
 1529 338 l 1,107,-1
 1599 640 l 1,104,105
EndSplineSet
Ligature2: "Ligature Substitution lookup 6 subtable" three fraction four
Ligature2: "Ligature Substitution lookup 6 subtable" three slash four
Ligature2: "Ligature Substitution lookup 6 subtable" threesuperior fraction four
Ligature2: "Ligature Substitution lookup 6 subtable" threesuperior slash four
EndChar

StartChar: threesuperior
Encoding: 179 179 11
Width: 894
Flags: HW
LayerCount: 2
Fore
SplineSet
467 1304 m 1,0,1
 671 1440 671 1440 693 1440 c 2,2,-1
 1147 1440 l 1,3,4
 1062 1347 1062 1347 962.5 1272 c 128,-1,5
 863 1197 863 1197 760 1126 c 1,6,7
 882.543076923 1123.08230769 882.543076923 1123.08230769 934.771538462 1103.04115385 c 0,8,9
 1045 1060.74418605 1045 1060.74418605 1045 962 c 0,10,11
 1045 834.054794521 1045 834.054794521 916.5 739 c 0,12,13
 643.425925926 537 643.425925926 537 435 537 c 0,14,15
 290.3 537 290.3 537 237 578 c 0,16,17
 224 588 224 588 224 602.5 c 128,-1,18
 224 617 224 617 239.5 633 c 128,-1,19
 255 649 255 649 278.5 665 c 128,-1,20
 302 681 302 681 331.5 697 c 128,-1,21
 361 713 361 713 388.5 727.5 c 0,22,23
 462.287128713 766.405940594 462.287128713 766.405940594 475 777 c 1,24,25
 448 756 448 756 448 739.5 c 128,-1,26
 448 723 448 723 461 713 c 128,-1,27
 474 703 474 703 494 696 c 128,-1,28
 514 689 514 689 538.5 685 c 128,-1,29
 563 681 563 681 586.5 678.5 c 0,30,31
 628.8 674 628.8 674 673.9 674 c 128,-1,32
 719 674 719 674 781 688 c 1,33,34
 820 747.526315789 820 747.526315789 820 806.263157895 c 128,-1,35
 820 865 820 865 806.5 891.5 c 128,-1,36
 793 918 793 918 770 936 c 128,-1,37
 747 954 747 954 717.5 964.5 c 128,-1,38
 688 975 688 975 656 980.5 c 0,39,40
 619.016393443 986.856557377 619.016393443 986.856557377 531 990 c 1,41,42
 722.285347044 1121.16709512 722.285347044 1121.16709512 920 1304 c 1,43,-1
 467 1304 l 1,0,1
EndSplineSet
EndChar

StartChar: twosuperior
Encoding: 178 178 12
Width: 889
Flags: HW
LayerCount: 2
Fore
SplineSet
660 1324 m 1,0,1
 625 1269.3125 625 1269.3125 625 1227.65625 c 128,-1,2
 625 1186 625 1186 629 1158 c 1,3,4
 618.5 1131.75 618.5 1131.75 403 1024 c 1,5,6
 397 1046 397 1046 397 1073 c 128,-1,7
 397 1100 397 1100 406 1128 c 128,-1,8
 415 1156 415 1156 430.5 1181 c 0,9,10
 459.15498155 1227.21771218 459.15498155 1227.21771218 502.077490775 1262.60885609 c 128,-1,11
 545 1298 545 1298 593 1331.5 c 128,-1,12
 641 1365 641 1365 693.5 1393.5 c 0,13,14
 816 1460 816 1460 903 1460 c 0,15,16
 1036.21818182 1460 1036.21818182 1460 1087 1386.5 c 0,17,18
 1106 1359 1106 1359 1106 1309 c 128,-1,19
 1106 1259 1106 1259 1080 1208.5 c 128,-1,20
 1054 1158 1054 1158 1011.5 1113.5 c 128,-1,21
 969 1069 969 1069 914 1029.5 c 128,-1,22
 859 990 859 990 801 954 c 128,-1,23
 743 918 743 918 685.5 884.5 c 128,-1,24
 628 851 628 851 581.5 818.5 c 0,25,26
 475.867641682 744.670932358 475.867641682 744.670932358 462 684 c 1,27,-1
 957 684 l 1,28,29
 940.388297872 680.308510638 940.388297872 680.308510638 906.694148936 655.654255319 c 128,-1,30
 873 631 873 631 849.5 614 c 128,-1,31
 826 597 826 597 804 582 c 0,32,33
 754.133333333 548 754.133333333 548 731 548 c 2,34,-1
 239 548 l 1,35,36
 241 553 241 553 242.5 559 c 128,-1,37
 244 565 244 565 247 570 c 0,38,39
 353.745644599 744.041811847 353.745644599 744.041811847 560.5 853.5 c 0,40,41
 679.38028169 916.436619718 679.38028169 916.436619718 727.690140845 949.218309859 c 128,-1,42
 776 982 776 982 809 1016 c 0,43,44
 882 1091.21212121 882 1091.21212121 882 1181 c 0,45,46
 882 1251.28070175 882 1251.28070175 816.5 1291.5 c 0,47,48
 761.942857143 1325 761.942857143 1325 687 1325 c 2,49,-1
 673.5 1325 l 2,50,51
 667 1325 667 1325 660 1324 c 1,0,1
EndSplineSet
EndChar

StartChar: brokenbar
Encoding: 166 166 13
Width: 546
Flags: HW
LayerCount: 2
Fore
SplineSet
776 1700 m 1,0,-1
 592 911 l 2,1,2
 587.576470588 891.094117647 587.576470588 891.094117647 524.288235294 860.047058824 c 128,-1,3
 461 829 461 829 436.5 817 c 0,4,5
 377.4375 788.071428571 377.4375 788.071428571 366 775 c 1,6,-1
 550 1564 l 2,7,8
 555.378947368 1585.51578947 555.378947368 1585.51578947 618.189473684 1615.75789474 c 128,-1,9
 681 1646 681 1646 705 1658 c 0,10,11
 763 1687 763 1687 776 1700 c 1,0,-1
523 613 m 1,12,-1
 339 -176 l 2,13,14
 334.576470588 -195.905882353 334.576470588 -195.905882353 271.288235294 -226.952941176 c 128,-1,15
 208 -258 208 -258 183.5 -270.5 c 0,16,17
 124.291666667 -300.708333333 124.291666667 -300.708333333 113 -312 c 1,18,-1
 297 477 l 2,19,20
 302.094736842 497.378947368 302.094736842 497.378947368 365.047368421 527.689473684 c 128,-1,21
 428 558 428 558 452 570.5 c 0,22,23
 511.47826087 601.47826087 511.47826087 601.47826087 523 613 c 1,12,-1
EndSplineSet
EndChar

StartChar: minus
Encoding: 8722 8722 14
Width: 1258
Flags: HW
LayerCount: 2
Fore
SplineSet
1244 615 m 1,0,1
 1227.7804878 611.756097561 1227.7804878 611.756097561 1169.8902439 569.87804878 c 128,-1,2
 1112 528 1112 528 1090 513 c 0,3,4
 1040.13333333 479 1040.13333333 479 1018 479 c 2,5,-1
 296 479 l 1,6,7
 311.646153846 480.738461538 311.646153846 480.738461538 369.323076923 523.369230769 c 128,-1,8
 427 566 427 566 449 581 c 0,9,10
 498.866666667 615 498.866666667 615 522 615 c 2,11,-1
 1244 615 l 1,0,1
EndSplineSet
EndChar

StartChar: multiply
Encoding: 215 215 15
Width: 974
Flags: HW
LayerCount: 2
Fore
SplineSet
502 442 m 1,0,1
 394.682926829 576.634146341 394.682926829 576.634146341 316 734 c 1,2,3
 330.191011236 752.921348315 330.191011236 752.921348315 431.595505618 808.960674157 c 128,-1,4
 533 865 533 865 542 870 c 1,5,6
 607.088036117 709.783295711 607.088036117 709.783295711 700 613 c 1,7,8
 733 644 733 644 764.5 675.5 c 128,-1,9
 796 707 796 707 825 733.5 c 128,-1,10
 854 760 854 760 883.5 775.5 c 128,-1,11
 913 791 913 791 943 804.5 c 0,12,13
 1021.53080569 839.838862559 1021.53080569 839.838862559 1049 866 c 1,14,15
 896 713 896 713 728 578 c 1,16,17
 820 462 820 462 933 360 c 1,18,19
 922.096774194 360 922.096774194 360 887.548387097 334.5 c 128,-1,20
 853 309 853 309 828.5 291 c 128,-1,21
 804 273 804 273 782 257.5 c 0,22,23
 731.612903226 222 731.612903226 222 719.806451613 222 c 128,-1,24
 708 222 708 222 693.5 235 c 128,-1,25
 679 248 679 248 659 267.5 c 128,-1,26
 639 287 639 287 617 311 c 128,-1,27
 595 335 595 335 574.5 357.5 c 0,28,29
 539.529411765 395.882352941 539.529411765 395.882352941 518 421 c 1,30,31
 322.500927644 284.665120594 322.500927644 284.665120594 203 222 c 1,32,-1
 200 237 l 1,33,34
 293.65 283.825 293.65 283.825 384.325 352.4125 c 128,-1,35
 475 421 475 421 502 442 c 1,0,1
EndSplineSet
EndChar

StartChar: exclam
Encoding: 33 33 16
Width: 550
Flags: HW
LayerCount: 2
Fore
SplineSet
729 1425 m 256,0,1
 729 1380.375 729 1380.375 703.5 1300.6875 c 128,-1,2
 678 1221 678 1221 664 1170 c 2,3,-1
 553 783 l 2,4,5
 551 775 551 775 543 747 c 128,-1,6
 535 719 535 719 524.5 681 c 128,-1,7
 514 643 514 643 502 600.5 c 128,-1,8
 490 558 490 558 479.5 521.5 c 0,9,10
 455.451612903 437.903225806 455.451612903 437.903225806 451.225806452 429.951612903 c 128,-1,11
 447 422 447 422 424.5 410.5 c 128,-1,12
 402 399 402 399 375 386.5 c 0,13,14
 297.724137931 350.724137931 297.724137931 350.724137931 285 338 c 1,15,16
 504 1277.70909091 504 1277.70909091 504 1306.85454545 c 128,-1,17
 504 1336 504 1336 481 1336 c 0,18,19
 470 1336 470 1336 406 1288 c 1,20,-1
 409 1301 l 1,21,22
 484.324675325 1361.25974026 484.324675325 1361.25974026 562.662337662 1403.12987013 c 0,23,24
 678.419354839 1465 678.419354839 1465 703.709677419 1465 c 128,-1,25
 729 1465 729 1465 729 1425 c 256,0,1
458 106 m 1,26,-1
 232 -30 l 1,27,-1
 166 137 l 1,28,-1
 392 273 l 1,29,-1
 458 106 l 1,26,-1
EndSplineSet
EndChar

StartChar: quotedbl
Encoding: 34 34 17
Width: 699
Flags: HW
LayerCount: 2
Fore
SplineSet
931 1465 m 0,0,1
 960 1465 960 1465 960 1428.5 c 128,-1,2
 960 1392 960 1392 944 1345 c 128,-1,3
 928 1298 928 1298 905 1249.5 c 0,4,5
 854.310679612 1142.61165049 854.310679612 1142.61165049 818.155339806 1102.30582524 c 128,-1,6
 782 1062 782 1062 756 1035 c 128,-1,7
 730 1008 730 1008 704 980 c 1,8,9
 711 1043 711 1043 720.5 1105.5 c 128,-1,10
 730 1168 730 1168 730 1232 c 0,11,12
 730 1338 730 1338 691 1338 c 1,13,14
 831.368421053 1465 831.368421053 1465 931 1465 c 0,0,1
631 1465 m 0,15,16
 660 1465 660 1465 660 1428.5 c 128,-1,17
 660 1392 660 1392 644 1345 c 128,-1,18
 628 1298 628 1298 605 1249.5 c 0,19,20
 554.310679612 1142.61165049 554.310679612 1142.61165049 518.155339806 1102.30582524 c 128,-1,21
 482 1062 482 1062 456 1035 c 128,-1,22
 430 1008 430 1008 404 980 c 1,23,24
 411 1043 411 1043 420.5 1105.5 c 128,-1,25
 430 1168 430 1168 430 1232 c 0,26,27
 430 1338 430 1338 391 1338 c 1,28,29
 531.368421053 1465 531.368421053 1465 631 1465 c 0,15,16
EndSplineSet
EndChar

StartChar: numbersign
Encoding: 35 35 18
Width: 1073
Flags: HW
LayerCount: 2
Fore
SplineSet
1195 753 m 1,0,1
 1175.82136895 749.404006678 1175.82136895 749.404006678 1113.91068447 703.202003339 c 0,2,3
 998.4 617 998.4 617 969 617 c 2,4,-1
 901 617 l 1,5,6
 878 566 878 566 854.5 517 c 128,-1,7
 831 468 831 468 808 417 c 1,8,-1
 1058 417 l 1,9,10
 1038.82136895 413.404006678 1038.82136895 413.404006678 976.910684474 367.202003339 c 0,11,12
 861.4 281 861.4 281 832 281 c 2,13,-1
 743 281 l 1,14,15
 717 226 717 226 691 166.5 c 128,-1,16
 665 107 665 107 633 56 c 0,17,18
 614.771812081 28.6577181208 614.771812081 28.6577181208 548.38590604 -3.1711409396 c 128,-1,19
 482 -35 482 -35 449.5 -51 c 128,-1,20
 417 -67 417 -67 407 -80 c 1,21,22
 506.395604396 121 506.395604396 121 582 281 c 1,23,-1
 487 281 l 1,24,25
 461 225 461 225 435 166.5 c 128,-1,26
 409 108 409 108 388.5 75.5 c 128,-1,27
 368 43 368 43 350 30.5 c 128,-1,28
 332 18 332 18 309 6 c 128,-1,29
 286 -6 286 -6 261 -18 c 128,-1,30
 236 -30 236 -30 213.5 -41 c 0,31,32
 162.165048544 -66.0970873786 162.165048544 -66.0970873786 150 -80 c 1,33,34
 260.274725275 143 260.274725275 143 327 281 c 1,35,-1
 130 281 l 1,36,37
 146 284 146 284 176 306 c 128,-1,38
 206 328 206 328 239.5 352.5 c 0,39,40
 327.693877551 417 327.693877551 417 356 417 c 2,41,-1
 391 417 l 1,42,43
 414 468 414 468 436.5 517 c 128,-1,44
 459 566 459 566 482 617 c 1,45,-1
 268 617 l 1,46,47
 284 620 284 620 314 642 c 128,-1,48
 344 664 344 664 377.5 688.5 c 0,49,50
 465.693877551 753 465.693877551 753 494 753 c 2,51,-1
 542 753 l 1,52,53
 556 788 556 788 571 821.5 c 128,-1,54
 586 855 586 855 596.5 881 c 128,-1,55
 607 907 607 907 613.5 924.5 c 128,-1,56
 620 942 620 942 629 958.5 c 128,-1,57
 638 975 638 975 670 993.5 c 128,-1,58
 702 1012 702 1012 739.5 1030 c 0,59,60
 842.803108808 1079.58549223 842.803108808 1079.58549223 855 1094 c 1,61,62
 774.865384615 902.567307692 774.865384615 902.567307692 708 753 c 1,63,-1
 797 753 l 1,64,65
 812 788 812 788 827 821.5 c 128,-1,66
 842 855 842 855 853 881 c 128,-1,67
 864 907 864 907 870.5 924.5 c 128,-1,68
 877 942 877 942 884.5 956 c 128,-1,69
 892 970 892 970 909 982 c 128,-1,70
 926 994 926 994 948.5 1006 c 128,-1,71
 971 1018 971 1018 996.5 1030 c 128,-1,72
 1022 1042 1022 1042 1044.5 1053 c 0,73,74
 1099.42358079 1079.85152838 1099.42358079 1079.85152838 1112 1094 c 1,75,76
 1023.86178862 889.138211382 1023.86178862 889.138211382 963 753 c 1,77,-1
 1195 753 l 1,0,1
737 617 m 1,78,-1
 646 617 l 1,79,80
 620.294117647 560 620.294117647 560 553 417 c 1,81,-1
 646 417 l 1,82,83
 669 468 669 468 691.5 517 c 128,-1,84
 714 566 714 566 737 617 c 1,78,-1
EndSplineSet
EndChar

StartChar: dollar
Encoding: 36 36 19
Width: 1075
Flags: HW
LayerCount: 2
Fore
SplineSet
655 276 m 0,0,1
 892 276 892 276 892 464 c 0,2,3
 892 568.75 892 568.75 724 619.5 c 0,4,5
 676 634 676 634 626.5 647.5 c 128,-1,6
 577 661 577 661 529 675.5 c 128,-1,7
 481 690 481 690 444 711.5 c 0,8,9
 361 759.72972973 361 759.72972973 361 837 c 0,10,11
 361 1004.40963855 361 1004.40963855 675.5 1182.5 c 0,12,13
 717 1206 717 1206 750 1222 c 1,14,-1
 789 1390 l 2,15,16
 794.188172043 1410.75268817 794.188172043 1410.75268817 855.594086022 1440.87634409 c 128,-1,17
 917 1471 917 1471 941.5 1483 c 0,18,19
 997.935323383 1510.64179104 997.935323383 1510.64179104 1015 1526 c 1,20,-1
 959 1287 l 1,21,22
 973 1286 973 1286 986 1286 c 2,23,-1
 1013 1286 l 2,24,25
 1069 1286 1069 1286 1130 1272 c 128,-1,26
 1191 1258 1191 1258 1215.5 1248 c 0,27,28
 1272 1224.93877551 1272 1224.93877551 1272 1197 c 0,29,30
 1272 1147.16981132 1272 1147.16981132 1158.5 1076.5 c 0,31,32
 1111.68862275 1047.35329341 1111.68862275 1047.35329341 1068.34431138 1029.17664671 c 128,-1,33
 1025 1011 1025 1011 1001 989 c 1,34,35
 1045 1033 1045 1033 1045 1055 c 128,-1,36
 1045 1077 1045 1077 1029.5 1089.5 c 128,-1,37
 1014 1102 1014 1102 990 1112 c 128,-1,38
 966 1122 966 1122 936 1129.5 c 128,-1,39
 906 1137 906 1137 878 1141.5 c 0,40,41
 818.888888889 1151 818.888888889 1151 791 1151 c 0,42,43
 589 1151 589 1151 589 978 c 0,44,45
 589 864.468085106 589 864.468085106 756 816.5 c 0,46,47
 803 803 803 803 852.5 790 c 128,-1,48
 902 777 902 777 949.5 763 c 128,-1,49
 997 749 997 749 1034.5 727 c 0,50,51
 1117 678.6 1117 678.6 1117 593 c 0,52,53
 1117 452.021978022 1117 452.021978022 872.5 293.5 c 0,54,55
 781.973254086 234.806835067 781.973254086 234.806835067 707 203 c 1,56,-1
 668 35 l 1,57,58
 640 16 640 16 613 -2.5 c 0,59,60
 549.379310345 -46.091954023 549.379310345 -46.091954023 508.689655172 -63.0459770115 c 128,-1,61
 468 -80 468 -80 442 -101 c 1,62,-1
 497 138 l 1,63,-1
 397 138 l 2,64,65
 282.428571429 138 282.428571429 138 198.5 175.5 c 0,66,67
 145 199.404255319 145 199.404255319 145 234 c 256,68,69
 145 288.586206897 145 288.586206897 314 376 c 0,70,71
 392.486238532 416.596330275 392.486238532 416.596330275 407 428 c 1,72,73
 369 400.857142857 369 400.857142857 369 374.428571429 c 128,-1,74
 369 348 369 348 386 333 c 128,-1,75
 403 318 403 318 430 308 c 128,-1,76
 457 298 457 298 490 291.5 c 128,-1,77
 523 285 523 285 555 281.5 c 0,78,79
 605.285714286 276 605.285714286 276 655 276 c 0,0,1
EndSplineSet
EndChar

StartChar: percent
Encoding: 37 37 20
Width: 1953
Flags: HW
LayerCount: 2
Fore
SplineSet
1391 -19 m 0,0,1
 1328 -19 1328 -19 1283 1 c 128,-1,2
 1238 21 1238 21 1208 56 c 0,3,4
 1148 126 1148 126 1148 234.5 c 128,-1,5
 1148 343 1148 343 1179.5 423 c 128,-1,6
 1211 503 1211 503 1264 569 c 0,7,8
 1360.38860104 689.031088083 1360.38860104 689.031088083 1595 821 c 0,9,10
 1712.33333333 887 1712.33333333 887 1783.66666667 887 c 128,-1,11
 1855 887 1855 887 1898.5 865.5 c 128,-1,12
 1942 844 1942 844 1970.5 807.5 c 0,13,14
 2027 735.140350877 2027 735.140350877 2027 621 c 0,15,16
 2027 494.907216495 2027 494.907216495 1920.5 339 c 0,17,18
 1819.04954025 190.484893976 1819.04954025 190.484893976 1672 89 c 0,19,20
 1515.51020408 -19 1515.51020408 -19 1391 -19 c 0,0,1
1801 1637 m 1,21,22
 1629.24326059 1235.15404365 1629.24326059 1235.15404365 1229 724 c 1,23,24
 855.747741487 249.436414177 855.747741487 249.436414177 576.5 -11.5 c 0,25,26
 517.020096463 -67.0795819936 517.020096463 -67.0795819936 474.510048232 -91.0397909968 c 128,-1,27
 432 -115 432 -115 403.5 -129.5 c 0,28,29
 328.98603352 -167.410614525 328.98603352 -167.410614525 294 -194 c 1,30,31
 749.438540076 236.389420371 749.438540076 236.389420371 1174.5 815.5 c 0,32,33
 1429.37064924 1162.73987782 1429.37064924 1162.73987782 1558 1462 c 0,34,35
 1562 1470 1562 1470 1565.5 1482 c 128,-1,36
 1569 1494 1569 1494 1582 1508.5 c 128,-1,37
 1595 1523 1595 1523 1623.5 1540.5 c 128,-1,38
 1652 1558 1652 1558 1683 1574 c 128,-1,39
 1714 1590 1714 1590 1745 1605 c 128,-1,40
 1776 1620 1776 1620 1801 1637 c 1,21,22
544.5 554 m 0,41,42
 481 554 481 554 436 574 c 128,-1,43
 391 594 391 594 361 629 c 0,44,45
 301 699 301 699 301 807.5 c 128,-1,46
 301 916 301 916 332 996 c 128,-1,47
 363 1076 363 1076 416 1142 c 0,48,49
 512.388601036 1262.03108808 512.388601036 1262.03108808 747 1394 c 0,50,51
 864.333333333 1460 864.333333333 1460 934.166666667 1460 c 128,-1,52
 1004 1460 1004 1460 1047 1438.5 c 128,-1,53
 1090 1417 1090 1417 1120 1381 c 0,54,55
 1181 1307.8 1181 1307.8 1181 1200 c 0,56,57
 1181 1070.75510204 1181 1070.75510204 1075 915 c 0,58,59
 973.907588279 766.456048084 973.907588279 766.456048084 827 663 c 0,60,61
 672.22 554 672.22 554 544.5 554 c 0,41,42
1791.5 392.5 m 0,62,63
 1804 444 1804 444 1804 495.5 c 128,-1,64
 1804 547 1804 547 1786.5 595.5 c 128,-1,65
 1769 644 1769 644 1736 679 c 0,66,67
 1666.22857143 753 1666.22857143 753 1549 753 c 0,68,69
 1536 753 1536 753 1522 751 c 1,70,71
 1418.96703297 638.307692308 1418.96703297 638.307692308 1385 487 c 0,72,73
 1374 438 1374 438 1374 387 c 128,-1,74
 1374 336 1374 336 1388 286.5 c 128,-1,75
 1402 237 1402 237 1431 198.5 c 0,76,77
 1493.8961039 115 1493.8961039 115 1608 115 c 0,78,79
 1627 115 1627 115 1647 118 c 1,80,81
 1749.83333333 220.833333333 1749.83333333 220.833333333 1791.5 392.5 c 0,62,63
943.5 964.5 m 0,82,83
 956 1016 956 1016 956 1068 c 128,-1,84
 956 1120 956 1120 938.5 1168.5 c 128,-1,85
 921 1217 921 1217 888 1252 c 0,86,87
 818.228571429 1326 818.228571429 1326 702 1326 c 0,88,89
 687 1326 687 1326 674 1323 c 1,90,91
 571.994928149 1211.43195266 571.994928149 1211.43195266 538 1060 c 0,92,93
 527 1011 527 1011 527 960 c 128,-1,94
 527 909 527 909 541 859 c 128,-1,95
 555 809 555 809 584 771 c 0,96,97
 648.105263158 687 648.105263158 687 760 687 c 0,98,99
 780 687 780 687 800 691 c 1,100,101
 901.833333333 792.833333333 901.833333333 792.833333333 943.5 964.5 c 0,82,83
EndSplineSet
Ligature2: "Ligature Substitution lookup 7 subtable" zero fraction zero
Ligature2: "Ligature Substitution lookup 7 subtable" zero slash zero
EndChar

StartChar: ampersand
Encoding: 38 38 21
Width: 2159
Flags: HW
LayerCount: 2
Fore
SplineSet
1522 442 m 1,0,1
 1744 684.181818182 1744 684.181818182 1744 919 c 0,2,3
 1744 970.8 1744 970.8 1736 1006 c 1,4,5
 1678 1014 1678 1014 1623 1014 c 0,6,7
 1502.47826087 1014 1502.47826087 1014 1413 972 c 1,8,9
 1556.8700361 1070.57761733 1556.8700361 1070.57761733 1610.43501805 1096.28880866 c 0,10,11
 1720.25 1149 1720.25 1149 1844 1149 c 0,12,13
 1904.75 1149 1904.75 1149 2005.375 1137.5 c 0,14,15
 2202.25 1115 2202.25 1115 2251.625 1115 c 0,16,17
 2346.42857143 1115 2346.42857143 1115 2417 1128 c 1,18,19
 2388.73684211 1118.57894737 2388.73684211 1118.57894737 2353.36842105 1090.78947368 c 128,-1,20
 2318 1063 2318 1063 2293 1046 c 128,-1,21
 2268 1029 2268 1029 2239.5 1014 c 128,-1,22
 2211 999 2211 999 2182.5 991 c 0,23,24
 2136.1875 978 2136.1875 978 2069.59375 978 c 128,-1,25
 2003 978 2003 978 1965 980 c 1,26,27
 1916.75887081 680.215840031 1916.75887081 680.215840031 1557 401 c 1,28,29
 1720.85814607 203.240168539 1720.85814607 203.240168539 1758.92907303 175.62008427 c 0,30,31
 1897.9516428 74.7605728728 1897.9516428 74.7605728728 2103 172 c 1,32,33
 1915.37249417 40.2615384615 1915.37249417 40.2615384615 1794 4.5 c 0,34,35
 1738 -12 1738 -12 1679.5 -12 c 128,-1,36
 1621 -12 1621 -12 1573 15 c 128,-1,37
 1525 42 1525 42 1484.5 82.5 c 128,-1,38
 1444 123 1444 123 1408.5 169.5 c 128,-1,39
 1373 216 1373 216 1340 255 c 1,40,41
 900.981132075 -22 900.981132075 -22 577 -22 c 0,42,43
 426.097560976 -22 426.097560976 -22 312.5 35.5 c 0,44,45
 173 106.111111111 173 106.111111111 173 248 c 0,46,47
 173 491.752212389 173 491.752212389 576.5 706 c 0,48,49
 633 736 633 736 681 760 c 1,50,51
 520 803.909090909 520 803.909090909 520 936 c 0,52,53
 520 1045.54385965 520 1045.54385965 647 1177 c 0,54,55
 761.874400767 1295.9050815 761.874400767 1295.9050815 923 1383 c 128,-1,56
 1083.95 1470 1083.95 1470 1186 1470 c 0,57,58
 1343 1470 1343 1470 1403 1357.5 c 0,59,60
 1423 1320 1423 1320 1423 1270 c 0,61,62
 1423 1042.92982456 1423 1042.92982456 1074 847 c 1,63,64
 1237.71061844 775.821470245 1237.71061844 775.821470245 1424 556 c 0,65,66
 1474 497 1474 497 1522 442 c 1,0,1
971 1335 m 0,67,68
 926 1335 926 1335 882 1325 c 1,69,70
 744 1196.51724138 744 1196.51724138 744 1062 c 0,71,72
 744 964.633333333 744 964.633333333 847 920 c 0,73,74
 898.282722513 897.777486911 898.282722513 897.777486911 951.141361257 885.388743455 c 128,-1,75
 1004 873 1004 873 1031 864 c 1,76,77
 1102.4084507 876.816901408 1102.4084507 876.816901408 1150.5 973 c 0,78,79
 1192 1056 1192 1056 1192 1121.5 c 0,80,81
 1192 1232.18644068 1192 1232.18644068 1131.34 1283.59322034 c 128,-1,82
 1070.68 1335 1070.68 1335 971 1335 c 0,67,68
1330 268 m 1,83,84
 1273 335 1273 335 1215.5 404.5 c 128,-1,85
 1158 474 1158 474 1094.5 536.5 c 0,86,87
 949.064516129 679.64516129 949.064516129 679.64516129 798 730 c 1,88,89
 722 713 722 713 650.5 694.5 c 128,-1,90
 579 676 579 676 523.5 641.5 c 0,91,92
 401 565.351351351 401 565.351351351 401 394 c 0,93,94
 401 254.903508772 401 254.903508772 531 178.5 c 0,95,96
 639.044776119 115 639.044776119 115 788 115 c 256,97,98
 994.946428571 115 994.946428571 115 1209.5 204 c 0,99,100
 1277 232 1277 232 1330 268 c 1,83,84
EndSplineSet
EndChar

StartChar: quotesingle
Encoding: 39 39 22
Width: 399
Flags: HW
LayerCount: 2
Fore
SplineSet
631 1465 m 0,0,1
 660 1465 660 1465 660 1428.5 c 128,-1,2
 660 1392 660 1392 644 1345 c 128,-1,3
 628 1298 628 1298 605 1249.5 c 0,4,5
 554.310679612 1142.61165049 554.310679612 1142.61165049 518.155339806 1102.30582524 c 128,-1,6
 482 1062 482 1062 456 1035 c 128,-1,7
 430 1008 430 1008 404 980 c 1,8,9
 411 1043 411 1043 420.5 1105.5 c 128,-1,10
 430 1168 430 1168 430 1232 c 0,11,12
 430 1338 430 1338 391 1338 c 1,13,14
 531.368421053 1465 531.368421053 1465 631 1465 c 0,0,1
EndSplineSet
EndChar

StartChar: parenleft
Encoding: 40 40 23
Width: 938
Flags: HW
LayerCount: 2
Fore
SplineSet
1359 1703 m 1,0,1
 1321.60526316 1688.81578947 1321.60526316 1688.81578947 1275.30263158 1653.40789474 c 0,2,3
 1186.98113208 1585.86792453 1186.98113208 1585.86792453 1136.99056604 1566.93396226 c 128,-1,4
 1087 1548 1087 1548 1046 1535 c 128,-1,5
 1005 1522 1005 1522 968 1506 c 0,6,7
 890.840935673 1472.63391813 890.840935673 1472.63391813 807.420467836 1395.31695906 c 128,-1,8
 724 1318 724 1318 652.5 1214.5 c 128,-1,9
 581 1111 581 1111 529 995.5 c 0,10,11
 420 753.394230769 420 753.394230769 420 516 c 0,12,13
 420 249.728395062 420 249.728395062 536.5 57 c 0,14,15
 620.46114305 -81.8986810957 620.46114305 -81.8986810957 763 -139.5 c 0,16,17
 836 -169 836 -169 928 -170 c 1,18,19
 905 -179 905 -179 874 -201.5 c 128,-1,20
 843 -224 843 -224 811 -247 c 0,21,22
 728.913043478 -306 728.913043478 -306 702 -306 c 0,23,24
 446.889705882 -306 446.889705882 -306 310.5 -77 c 0,25,26
 194 118.604938272 194 118.604938272 194 385 c 0,27,28
 194 640.317073171 194 640.317073171 324.5 904.5 c 0,29,30
 453.645217729 1165.94031882 453.645217729 1165.94031882 657 1325 c 1,31,32
 1030.61462391 1612.78423734 1030.61462391 1612.78423734 1359 1703 c 1,0,1
EndSplineSet
EndChar

StartChar: parenright
Encoding: 41 41 24
Width: 948
Flags: HW
LayerCount: 2
Fore
SplineSet
-65 -306 m 1,0,1
 -25.8510638298 -290.340425532 -25.8510638298 -290.340425532 22.0744680851 -254.170212766 c 0,2,3
 110.790575916 -187.214659686 110.790575916 -187.214659686 160.395287958 -170.107329843 c 128,-1,4
 210 -153 210 -153 256 -138 c 0,5,6
 433.464944649 -80.13099631 433.464944649 -80.13099631 571 66 c 0,7,8
 762.251746128 269.204980261 762.251746128 269.204980261 831.5 555.5 c 0,9,10
 865 694 865 694 865 801 c 128,-1,11
 865 908 865 908 853.5 990.5 c 128,-1,12
 842 1073 842 1073 817 1152.5 c 128,-1,13
 792 1232 792 1232 753 1304.5 c 128,-1,14
 714 1377 714 1377 659 1433 c 0,15,16
 539.264232009 1554.91278195 539.264232009 1554.91278195 371 1568 c 1,17,18
 395.759776536 1577.2849162 395.759776536 1577.2849162 457.879888268 1622.6424581 c 128,-1,19
 520 1668 520 1668 548.5 1686 c 128,-1,20
 577 1704 577 1704 601.5 1704 c 0,21,22
 644 1704 644 1704 728.5 1671 c 128,-1,23
 813 1638 813 1638 886.5 1563.5 c 128,-1,24
 960 1489 960 1489 1006.5 1395 c 0,25,26
 1095 1216.09677419 1095 1216.09677419 1095 984 c 0,27,28
 1095 681.012578616 1095 681.012578616 926.5 397 c 0,29,30
 767.915236532 129.699895538 767.915236532 129.699895538 499 -60 c 0,31,32
 229.168019481 -250.346590909 229.168019481 -250.346590909 -65 -306 c 1,0,1
EndSplineSet
EndChar

StartChar: asterisk
Encoding: 42 42 25
Width: 994
Flags: HW
LayerCount: 2
Fore
SplineSet
726 1033 m 1,0,1
 733 1094.25 733 1094.25 733 1157.125 c 0,2,3
 733 1312.33333333 733 1312.33333333 711 1371 c 0,4,5
 708 1379 708 1379 708 1388.5 c 128,-1,6
 708 1398 708 1398 736 1408 c 128,-1,7
 764 1418 764 1418 800 1426 c 0,8,9
 881 1444 881 1444 901.5 1444 c 128,-1,10
 922 1444 922 1444 934 1443 c 128,-1,11
 946 1442 946 1442 946 1427 c 128,-1,12
 946 1412 946 1412 938 1382.5 c 128,-1,13
 930 1353 930 1353 917 1316.5 c 128,-1,14
 904 1280 904 1280 888 1240 c 128,-1,15
 872 1200 872 1200 856 1164 c 0,16,17
 818.352941176 1079.29411765 818.352941176 1079.29411765 803 1052 c 1,18,19
 974.221864952 1153.28617363 974.221864952 1153.28617363 1068 1252 c 0,20,21
 1076 1260 1076 1260 1083 1260 c 128,-1,22
 1090 1260 1090 1260 1100 1250 c 128,-1,23
 1110 1240 1110 1240 1120 1225 c 128,-1,24
 1130 1210 1130 1210 1140 1191 c 128,-1,25
 1150 1172 1150 1172 1157.5 1154.5 c 0,26,27
 1175 1113.66666667 1175 1113.66666667 1175 1101.33333333 c 128,-1,28
 1175 1089 1175 1089 1150.5 1076.5 c 128,-1,29
 1126 1064 1126 1064 1088.5 1050.5 c 128,-1,30
 1051 1037 1051 1037 1006 1024.5 c 128,-1,31
 961 1012 961 1012 919 1002 c 0,32,33
 830.5 980.928571429 830.5 980.928571429 796 976 c 1,34,35
 871.882956879 888.135523614 871.882956879 888.135523614 930.941478439 844.567761807 c 128,-1,36
 990 801 990 801 1004.5 794.5 c 128,-1,37
 1019 788 1019 788 1025 786 c 128,-1,38
 1031 784 1031 784 1036.5 781.5 c 0,39,40
 1051 774.909090909 1051 774.909090909 1051 768 c 128,-1,41
 1051 761 1051 761 1039.5 745.5 c 128,-1,42
 1028 730 1028 730 1010.5 710 c 128,-1,43
 993 690 993 690 972 669 c 128,-1,44
 951 648 951 648 931 630.5 c 0,45,46
 884.714285714 590 884.714285714 590 871.857142857 590 c 128,-1,47
 859 590 859 590 844.5 613.5 c 128,-1,48
 830 637 830 637 814.5 673 c 128,-1,49
 799 709 799 709 784 752.5 c 128,-1,50
 769 796 769 796 757.5 836.5 c 0,51,52
 732 926.304347826 732 926.304347826 732 954 c 1,53,54
 564.19047619 793.182539683 564.19047619 793.182539683 479 637 c 0,55,56
 477 634 477 634 474.5 630 c 128,-1,57
 472 626 472 626 462.5 626 c 128,-1,58
 453 626 453 626 426.5 640 c 128,-1,59
 400 654 400 654 373 673.5 c 0,60,61
 306 721.888888889 306 721.888888889 306 748 c 0,62,63
 306 765.235294118 306 765.235294118 362 803.117647059 c 128,-1,64
 418 841 418 841 459 867 c 128,-1,65
 500 893 500 893 538 915 c 0,66,67
 626.666666667 966.333333333 626.666666667 966.333333333 648 977 c 1,68,69
 604.407407407 984.925925926 604.407407407 984.925925926 531.203703704 1008.96296296 c 128,-1,70
 458 1033 458 1033 430.5 1045.5 c 0,71,72
 367 1074.36363636 367 1074.36363636 367 1092 c 0,73,74
 367 1108 367 1108 413 1154 c 128,-1,75
 459 1200 459 1200 477.5 1216 c 0,76,77
 520.28125 1253 520.28125 1253 528.140625 1253 c 0,78,79
 537 1253 537 1253 546 1234.5 c 128,-1,80
 555 1216 555 1216 576 1187 c 128,-1,81
 597 1158 597 1158 622 1130 c 0,82,83
 665.125 1081.7 665.125 1081.7 726 1033 c 1,0,1
EndSplineSet
EndChar

StartChar: plus
Encoding: 43 43 26
Width: 1042
Flags: HW
LayerCount: 2
Fore
SplineSet
1138 615 m 1,0,1
 1115.82945736 610.565891473 1115.82945736 610.565891473 1060.91472868 568.782945736 c 128,-1,2
 1006 527 1006 527 984 512.5 c 0,3,4
 933.172413793 479 933.172413793 479 912 479 c 2,5,-1
 745 479 l 1,6,-1
 693 254 l 2,7,8
 687.757894737 233.031578947 687.757894737 233.031578947 624.378947368 202.515789474 c 128,-1,9
 561 172 561 172 536.5 159.5 c 0,10,11
 476.548387097 128.912442396 476.548387097 128.912442396 467 118 c 1,12,-1
 551 479 l 1,13,-1
 190 479 l 1,14,15
 203.864864865 480.540540541 203.864864865 480.540540541 262.932432432 523.27027027 c 128,-1,16
 322 566 322 566 344 581 c 0,17,18
 393.866666667 615 393.866666667 615 416 615 c 2,19,-1
 582 615 l 1,20,-1
 635 840 l 2,21,22
 640.242105263 860.968421053 640.242105263 860.968421053 703.621052632 891.484210526 c 128,-1,23
 767 922 767 922 791.5 934.5 c 0,24,25
 851.451612903 965.087557604 851.451612903 965.087557604 861 976 c 1,26,-1
 777 615 l 1,27,-1
 1138 615 l 1,0,1
EndSplineSet
EndChar

StartChar: comma
Encoding: 44 44 27
Width: 471
Flags: HW
LayerCount: 2
Fore
SplineSet
347 273 m 1,0,1
 403.541832669 142.247011952 403.541832669 142.247011952 406 98 c 1,2,-1
 406 92 l 2,3,4
 406 -35.4516129032 406 -35.4516129032 301 -154 c 0,5,6
 238.532075472 -224.528301887 238.532075472 -224.528301887 194.766037736 -242.764150943 c 128,-1,7
 151 -261 151 -261 126 -280 c 1,8,9
 222.299137105 -203.763183126 222.299137105 -203.763183126 265.5 -109 c 0,10,11
 281 -75 281 -75 281 -38.5 c 128,-1,12
 281 -2 281 -2 251 -2 c 0,13,14
 243 -2 243 -2 187 -30 c 1,15,-1
 121 137 l 1,16,-1
 347 273 l 1,0,1
EndSplineSet
EndChar

StartChar: hyphen
Encoding: 45 45 28
Width: 1183
Flags: HW
LayerCount: 2
Fore
SplineSet
1207 615 m 1,0,1
 1190.7804878 611.756097561 1190.7804878 611.756097561 1132.8902439 569.87804878 c 128,-1,2
 1075 528 1075 528 1053 513 c 0,3,4
 1003.13333333 479 1003.13333333 479 981 479 c 2,5,-1
 259 479 l 1,6,7
 274.646153846 480.738461538 274.646153846 480.738461538 332.323076923 523.369230769 c 128,-1,8
 390 566 390 566 412 581 c 0,9,10
 461.866666667 615 461.866666667 615 485 615 c 2,11,-1
 1207 615 l 1,0,1
EndSplineSet
EndChar

StartChar: period
Encoding: 46 46 29
Width: 460
Flags: HW
LayerCount: 2
Fore
SplineSet
413 106 m 1,0,-1
 187 -30 l 1,1,-1
 121 137 l 1,2,-1
 347 273 l 1,3,-1
 413 106 l 1,0,-1
EndSplineSet
EndChar

StartChar: slash
Encoding: 47 47 30
Width: 954
Flags: HW
LayerCount: 2
Fore
SplineSet
1201 1439 m 1,0,1
 894.760174931 888.179375044 894.760174931 888.179375044 531 418 c 0,2,3
 512 393 512 393 482.5 353.5 c 128,-1,4
 453 314 453 314 421 272.5 c 0,5,6
 340.941391941 168.673992674 340.941391941 168.673992674 309.470695971 140.336996337 c 128,-1,7
 278 112 278 112 249 95.5 c 128,-1,8
 220 79 220 79 191.5 65 c 0,9,10
 112.979591837 26.4285714286 112.979591837 26.4285714286 79 0 c 1,11,12
 547.461538462 557.307692308 547.461538462 557.307692308 913 1197 c 0,13,14
 914 1199 914 1199 924 1215.5 c 128,-1,15
 934 1232 934 1232 945 1251.5 c 0,16,17
 972.823529412 1300.82352941 972.823529412 1300.82352941 985.911764706 1313.91176471 c 128,-1,18
 999 1327 999 1327 1027.5 1344 c 128,-1,19
 1056 1361 1056 1361 1085.5 1375.5 c 128,-1,20
 1115 1390 1115 1390 1144.5 1404.5 c 128,-1,21
 1174 1419 1174 1419 1201 1439 c 1,0,1
EndSplineSet
EndChar

StartChar: zero
Encoding: 48 48 31
Width: 1475
Flags: HW
LayerCount: 2
Fore
SplineSet
743 -12.5 m 0,0,1
 689 -26 689 -26 610 -26 c 128,-1,2
 531 -26 531 -26 455 11 c 128,-1,3
 379 48 379 48 329 111.5 c 0,4,5
 231 235.96 231 235.96 231 440 c 0,6,7
 231 848.34 231 848.34 557 1145 c 0,8,9
 657 1236 657 1236 740 1285.5 c 128,-1,10
 823 1335 823 1335 874 1362.5 c 128,-1,11
 925 1390 925 1390 979 1412 c 0,12,13
 1101.72727273 1462 1101.72727273 1462 1201.36363636 1462 c 128,-1,14
 1301 1462 1301 1462 1377.5 1424.5 c 128,-1,15
 1454 1387 1454 1387 1504.5 1323.5 c 0,16,17
 1605 1197.12871287 1605 1197.12871287 1605 995 c 0,18,19
 1605 728.368421053 1605 728.368421053 1441 491 c 0,20,21
 1292.93997271 276.702592087 1292.93997271 276.702592087 1047 127 c 1,22,23
 865.571428571 18.1428571429 865.571428571 18.1428571429 743 -12.5 c 0,0,1
1380 868.5 m 0,24,25
 1380 947 1380 947 1355.5 1031.5 c 128,-1,26
 1331 1116 1331 1116 1281.5 1181.5 c 0,27,28
 1173.05343511 1325 1173.05343511 1325 983 1325 c 0,29,30
 817.192982456 1325 817.192982456 1325 690 1200 c 0,31,32
 579.962616822 1091.85981308 579.962616822 1091.85981308 516 911 c 0,33,34
 458 747 458 747 458 618 c 128,-1,35
 458 489 458 489 482.5 402.5 c 128,-1,36
 507 316 507 316 557.5 250.5 c 0,37,38
 667.366412214 108 667.366412214 108 866 108 c 0,39,40
 1011.85245902 108 1011.85245902 108 1138 243 c 0,41,42
 1246.62112676 359.243661972 1246.62112676 359.243661972 1316 545 c 0,43,44
 1380 716.35483871 1380 716.35483871 1380 868.5 c 0,24,25
EndSplineSet
EndChar

StartChar: one
Encoding: 49 49 32
Width: 750
Flags: HW
LayerCount: 2
Fore
SplineSet
781 136 m 1,0,1
 773 130 773 130 755 118 c 2,2,-1
 714.5 91 l 2,3,4
 578 0 578 0 555 0 c 2,5,-1
 167 0 l 1,6,-1
 170 4 l 1,7,8
 233.583333333 56.2291666667 233.583333333 56.2291666667 256.291666667 84.6145833333 c 0,9,10
 297.485436893 136.106796117 297.485436893 136.106796117 314 204 c 2,11,-1
 485 938 l 1,12,-1
 252 818 l 1,13,-1
 259 849 l 1,14,-1
 714 1089 l 1,15,-1
 547 370 l 2,16,17
 520.520361991 260.298642534 520.520361991 260.298642534 459 182 c 0,18,19
 437 154 437 154 412 136 c 1,20,-1
 781 136 l 1,0,1
EndSplineSet
Substitution2: "'sups' Superscript in Latin lookup 1 subtable" onesuperior
Substitution2: "'aalt' Access All Alternates in Latin lookup 0 subtable" onesuperior
EndChar

StartChar: two
Encoding: 50 50 33
Width: 1095
Flags: HW
LayerCount: 2
Fore
SplineSet
301 136 m 1,0,-1
 1050 136 l 1,1,2
 1023.5785124 129.107438017 1023.5785124 129.107438017 963.789256198 83.5537190083 c 128,-1,3
 904 38 904 38 874.5 19 c 128,-1,4
 845 0 845 0 824 0 c 2,5,-1
 71 0 l 1,6,7
 198.150451703 185.514593468 198.150451703 185.514593468 355 323 c 0,8,9
 406 367 406 367 479.5 422 c 128,-1,10
 553 477 553 477 634 539.5 c 128,-1,11
 715 602 715 602 794.5 671 c 128,-1,12
 874 740 874 740 938 812.5 c 0,13,14
 1081 974.4921875 1081 974.4921875 1081 1107 c 0,15,16
 1081 1207.16666667 1081 1207.16666667 1002 1273 c 0,17,18
 927.6 1335 927.6 1335 842.8 1335 c 128,-1,19
 758 1335 758 1335 710.5 1311.5 c 128,-1,20
 663 1288 663 1288 633 1248 c 0,21,22
 576 1172 576 1172 576 1042 c 0,23,24
 576 1001 576 1001 586 965 c 1,25,-1
 360 829 l 1,26,27
 350 865 350 865 350 926.5 c 128,-1,28
 350 988 350 988 380 1051.5 c 128,-1,29
 410 1115 410 1115 458.5 1166 c 0,30,31
 538.047552836 1249.64794216 538.047552836 1249.64794216 770.5 1385 c 0,32,33
 914.760869565 1469 914.760869565 1469 1027 1469 c 0,34,35
 1136.5 1469 1136.5 1469 1217.5 1415 c 0,36,37
 1308 1354.66666667 1308 1354.66666667 1308 1248 c 0,38,39
 1308 1041.02298851 1308 1041.02298851 998.5 792 c 0,40,41
 955 757 955 757 924 734 c 128,-1,42
 893 711 893 711 855 681.5 c 128,-1,43
 817 652 817 652 771.5 615 c 128,-1,44
 726 578 726 578 675 535 c 128,-1,45
 624 492 624 492 574 447.5 c 128,-1,46
 524 403 524 403 477.5 358.5 c 128,-1,47
 431 314 431 314 394 273.5 c 0,48,49
 314.628592483 186.620486367 314.628592483 186.620486367 301 136 c 1,0,-1
EndSplineSet
Substitution2: "'sups' Superscript in Latin lookup 1 subtable" twosuperior
Substitution2: "'aalt' Access All Alternates in Latin lookup 0 subtable" twosuperior
EndChar

StartChar: three
Encoding: 51 51 34
Width: 1098
Flags: HW
LayerCount: 2
Fore
SplineSet
361 953 m 1,0,1
 565 1089 565 1089 587 1089 c 2,2,-1
 1262 1089 l 1,3,4
 896.283157038 686.181448332 896.283157038 686.181448332 663 527 c 1,5,6
 844.287886598 521.893298969 844.287886598 521.893298969 922.143943299 483.946649485 c 128,-1,7
 1000 446 1000 446 1038 392 c 128,-1,8
 1076 338 1076 338 1076 223.5 c 128,-1,9
 1076 109 1076 109 1010.5 -4 c 128,-1,10
 945 -117 945 -117 829 -194 c 1,11,12
 495.380952381 -420 495.380952381 -420 250 -420 c 0,13,14
 111.68 -420 111.68 -420 12 -375.5 c 0,15,16
 -51 -347.375 -51 -347.375 -51 -305 c 0,17,18
 -51 -221.588235294 -51 -221.588235294 218 -95 c 1,19,20
 173 -134.375 173 -134.375 173 -163.6875 c 128,-1,21
 173 -193 173 -193 191 -210.5 c 128,-1,22
 209 -228 209 -228 237.5 -240.5 c 128,-1,23
 266 -253 266 -253 301 -261 c 128,-1,24
 336 -269 336 -269 370 -273.5 c 0,25,26
 434.222222222 -282 434.222222222 -282 502.611111111 -282 c 128,-1,27
 571 -282 571 -282 641 -252 c 128,-1,28
 711 -222 711 -222 758.5 -169 c 0,29,30
 854 -62.4421052632 854 -62.4421052632 854 116 c 0,31,32
 854 358.858585859 854 358.858585859 530.5 385 c 0,33,34
 481 389 481 389 434 391 c 1,35,36
 464 414 464 414 494.5 435 c 128,-1,37
 525 456 525 456 572.5 493.5 c 128,-1,38
 620 531 620 531 681.5 588.5 c 128,-1,39
 743 646 743 646 802 706.5 c 128,-1,40
 861 767 861 767 918.5 829 c 128,-1,41
 976 891 976 891 1033 952 c 1,42,-1
 361 953 l 1,0,1
EndSplineSet
Substitution2: "'sups' Superscript in Latin lookup 1 subtable" threesuperior
Substitution2: "'aalt' Access All Alternates in Latin lookup 0 subtable" threesuperior
EndChar

StartChar: four
Encoding: 52 52 35
Width: 1350
Flags: HW
LayerCount: 2
Fore
SplineSet
1487 569 m 1,0,1
 1254.63106796 388.268608414 1254.63106796 388.268608414 1065 355 c 1,2,3
 1038.98895497 230.146983857 1038.98895497 230.146983857 912 136 c 1,4,-1
 1238 136 l 1,5,6
 1210.22404372 128.754098361 1210.22404372 128.754098361 1151.61202186 83.3770491803 c 128,-1,7
 1093 38 1093 38 1063.5 19 c 128,-1,8
 1034 0 1034 0 1012 0 c 2,9,-1
 682 0 l 1,10,11
 748.323232323 28.4242424242 748.323232323 28.4242424242 772.161616162 59.7121212121 c 0,12,13
 807.453551913 106.032786885 807.453551913 106.032786885 820.226775956 153.016393443 c 0,14,15
 843.091434855 237.119211502 843.091434855 237.119211502 867 343 c 1,16,-1
 90 343 l 1,17,18
 710.92 852.808 710.92 852.808 925 1099 c 1,19,20
 968 1150 968 1150 1007.5 1202.5 c 128,-1,21
 1047 1255 1047 1255 1075.5 1287.5 c 128,-1,22
 1104 1320 1104 1320 1126 1334 c 128,-1,23
 1148 1348 1148 1348 1172.5 1361 c 128,-1,24
 1197 1374 1197 1374 1221 1386 c 128,-1,25
 1245 1398 1245 1398 1263 1409 c 2,26,-1
 1317 1441 l 1,27,-1
 1093 479 l 1,28,-1
 1174 479 l 2,29,30
 1307.52941176 479 1307.52941176 479 1418.5 528 c 0,31,32
 1457 545 1457 545 1487 569 c 1,0,1
1047 1115 m 1,33,34
 741.579683356 779.599774974 741.579683356 779.599774974 320 480 c 1,35,-1
 899 480 l 1,36,-1
 1047 1115 l 1,33,34
EndSplineSet
EndChar

StartChar: five
Encoding: 53 53 36
Width: 1116
Flags: HW
LayerCount: 2
Fore
SplineSet
311 -44 m 1,0,1
 239 -100 239 -100 239 -140 c 0,2,3
 239 -201.46031746 239 -201.46031746 422.5 -233.5 c 0,4,5
 482.636363636 -244 482.636363636 -244 513.818181818 -244 c 0,6,7
 559 -244 559 -244 614 -219 c 0,8,9
 732 -164 732 -164 793.5 -64 c 128,-1,10
 855 36 855 36 855 165 c 0,11,12
 855 362.666666667 855 362.666666667 681 411 c 0,13,14
 627 426 627 426 571.5 426 c 128,-1,15
 516 426 516 426 470.5 418.5 c 128,-1,16
 425 411 425 411 379 399.5 c 128,-1,17
 333 388 333 388 288 375 c 128,-1,18
 243 362 243 362 198 351 c 1,19,20
 289.466666667 533.933333333 289.466666667 533.933333333 358 799.5 c 0,21,22
 378 877 378 877 397 953 c 1,23,-1
 623 1089 l 1,24,-1
 1335 1089 l 1,25,26
 1321 1080 1321 1080 1288.5 1057.5 c 128,-1,27
 1256 1035 1256 1035 1220 1011.5 c 0,28,29
 1130.38297872 953 1130.38297872 953 1109 953 c 2,30,-1
 589 953 l 1,31,32
 519.030769231 699.361538462 519.030769231 699.361538462 433 504 c 1,33,34
 555.4 558 555.4 558 783 558 c 0,35,36
 992.319587629 558 992.319587629 558 1058 419.5 c 0,37,38
 1081 371 1081 371 1081 292.5 c 128,-1,39
 1081 214 1081 214 1044 129.5 c 128,-1,40
 1007 45 1007 45 944.5 -30.5 c 128,-1,41
 882 -106 882 -106 800.5 -169.5 c 128,-1,42
 719 -233 719 -233 630.5 -279.5 c 0,43,44
 443.032258065 -378 443.032258065 -378 283 -378 c 0,45,46
 226.764705882 -378 226.764705882 -378 160.882352941 -360.5 c 128,-1,47
 95 -343 95 -343 69 -332 c 0,48,49
 9 -306.615384615 9 -306.615384615 9 -278 c 0,50,51
 9 -239.909090909 9 -239.909090909 92 -172 c 0,52,53
 125.068181818 -145.545454545 125.068181818 -145.545454545 177.534090909 -119.772727273 c 0,54,55
 277.931818182 -70.4545454545 277.931818182 -70.4545454545 311 -44 c 1,0,1
EndSplineSet
EndChar

StartChar: six
Encoding: 54 54 37
Width: 1289
Flags: HW
LayerCount: 2
Fore
SplineSet
1314 1474 m 0,0,1
 1526 1474 1526 1474 1526 1404 c 0,2,3
 1526 1375 1526 1375 1492 1341 c 1,4,5
 1471 1330 1471 1330 1440 1314.5 c 128,-1,6
 1409 1299 1409 1299 1377.5 1281 c 0,7,8
 1298.36585366 1235.7804878 1298.36585366 1235.7804878 1273 1212 c 1,9,10
 1301 1240 1301 1240 1301 1265 c 0,11,12
 1301 1342 1301 1342 1030 1342 c 0,13,14
 809.34057971 1342 809.34057971 1342 645.5 1104 c 0,15,16
 509.729077374 906.774870291 509.729077374 906.774870291 459 664 c 1,17,18
 695.989071038 847.475409836 695.989071038 847.475409836 905 902 c 0,19,20
 951 914 951 914 1004.5 914 c 128,-1,21
 1058 914 1058 914 1120.5 889 c 128,-1,22
 1183 864 1183 864 1231 819.5 c 0,23,24
 1336 722.15625 1336 722.15625 1336 586 c 0,25,26
 1336 444.62601626 1336 444.62601626 1200.5 291.5 c 0,27,28
 1076.63166422 151.518709976 1076.63166422 151.518709976 893 56.5 c 0,29,30
 708.438202247 -39 708.438202247 -39 564 -39 c 0,31,32
 393.428571429 -39 393.428571429 -39 297 73.5 c 0,33,34
 207 178.5 207 178.5 207 333.25 c 128,-1,35
 207 488 207 488 251 624 c 128,-1,36
 295 760 295 760 372 884.5 c 128,-1,37
 449 1009 449 1009 554.5 1116.5 c 128,-1,38
 660 1224 660 1224 783 1303.5 c 0,39,40
 1046.79245283 1474 1046.79245283 1474 1314 1474 c 0,0,1
1102 438 m 0,41,42
 1102 504 1102 504 1080 566 c 128,-1,43
 1058 628 1058 628 1018 676.5 c 0,44,45
 929.340206186 784 929.340206186 784 795 784 c 0,46,47
 678.785714286 784 678.785714286 784 577 689 c 0,48,49
 495.62745098 613.052287582 495.62745098 613.052287582 439 488 c 1,50,-1
 439 482 l 2,51,52
 439 310.790697674 439 310.790697674 524 208 c 0,53,54
 615.788461538 97 615.788461538 97 784 97 c 0,55,56
 919 97 919 97 1012.5 201.5 c 0,57,58
 1102 301.529411765 1102 301.529411765 1102 438 c 0,41,42
EndSplineSet
EndChar

StartChar: seven
Encoding: 55 55 38
Width: 977
Flags: HW
LayerCount: 2
Fore
SplineSet
242 953 m 1,0,1
 446 1089 446 1089 468 1089 c 2,2,-1
 1235 1089 l 1,3,4
 1071.43288591 786.711409396 1071.43288591 786.711409396 969.216442953 607.355704698 c 128,-1,5
 867 428 867 428 819 342 c 128,-1,6
 771 256 771 256 722.5 189 c 128,-1,7
 674 122 674 122 621.5 62 c 128,-1,8
 569 2 569 2 508 -57.5 c 128,-1,9
 447 -117 447 -117 379.5 -174 c 128,-1,10
 312 -231 312 -231 242.5 -280 c 0,11,12
 93.4632152589 -385.076294278 93.4632152589 -385.076294278 -29 -431 c 1,13,-1
 -31 -423 l 1,14,15
 -18 -416 -18 -416 -5.5 -409.5 c 128,-1,16
 7 -403 7 -403 52 -375 c 128,-1,17
 97 -347 97 -347 160.5 -301 c 128,-1,18
 224 -255 224 -255 279.5 -204 c 0,19,20
 446.449848024 -50.5866261398 446.449848024 -50.5866261398 628 263 c 0,21,22
 713.979591837 411.510204082 713.979591837 411.510204082 828.489795918 625.755102041 c 128,-1,23
 943 840 943 840 1010 953 c 1,24,-1
 242 953 l 1,0,1
EndSplineSet
EndChar

StartChar: eight
Encoding: 56 56 39
Width: 1210
Flags: HW
LayerCount: 2
Fore
SplineSet
195 238 m 0,0,1
 195 500.4 195 500.4 566 723 c 1,2,3
 498.925170068 757.693877551 498.925170068 757.693877551 473.462585034 787.846938776 c 0,4,5
 426 844.052631579 426 844.052631579 426 909.526315789 c 128,-1,6
 426 975 426 975 461 1042 c 128,-1,7
 496 1109 496 1109 553.5 1171 c 128,-1,8
 611 1233 611 1233 685 1287.5 c 128,-1,9
 759 1342 759 1342 836.5 1382.5 c 0,10,11
 1002.02469136 1469 1002.02469136 1469 1124 1469 c 0,12,13
 1223.35849057 1469 1223.35849057 1469 1292 1415.5 c 0,14,15
 1368 1356.26470588 1368 1356.26470588 1368 1261 c 0,16,17
 1368 1104.88372093 1368 1104.88372093 1141 899 c 0,18,19
 1066.23423423 831.189189189 1066.23423423 831.189189189 977 770 c 1,20,21
 1086.31004367 712.742358079 1086.31004367 712.742358079 1135.65502183 665.371179039 c 0,22,23
 1233 571.92 1233 571.92 1233 475 c 0,24,25
 1233 352.081967213 1233 352.081967213 1097 225 c 0,26,27
 978.385589094 114.163583252 978.385589094 114.163583252 796.5 37 c 0,28,29
 622.071428571 -37 622.071428571 -37 493 -37 c 256,30,31
 363.070422535 -37 363.070422535 -37 281.5 34.5 c 0,32,33
 195 110.320987654 195 110.320987654 195 238 c 0,0,1
1128 1032.5 m 0,34,35
 1146 1081 1146 1081 1146 1130.5 c 128,-1,36
 1146 1180 1146 1180 1123.5 1218.5 c 128,-1,37
 1101 1257 1101 1257 1065 1282 c 0,38,39
 994.44 1331 994.44 1331 892 1331 c 0,40,41
 784.782608696 1331 784.782608696 1331 720 1256.5 c 0,42,43
 659 1186.35 659 1186.35 659 1078 c 0,44,45
 659 935.54368932 659 935.54368932 856.5 832 c 0,46,47
 908 805 908 805 952 783 c 1,48,49
 1077.8698727 897.427157001 1077.8698727 897.427157001 1128 1032.5 c 0,34,35
981.5 232 m 0,50,51
 1001 278 1001 278 1001 336 c 128,-1,52
 1001 394 1001 394 981.5 436.5 c 128,-1,53
 962 479 962 479 929.5 513.5 c 128,-1,54
 897 548 897 548 855 576.5 c 128,-1,55
 813 605 813 605 767.5 628.5 c 128,-1,56
 722 652 722 652 676.5 672 c 128,-1,57
 631 692 631 692 592 710 c 1,58,59
 475.690284879 616.30606282 475.690284879 616.30606282 435 464.5 c 0,60,61
 422 416 422 416 422 358.5 c 128,-1,62
 422 301 422 301 447.5 250.5 c 128,-1,63
 473 200 473 200 515.5 166.5 c 0,64,65
 601.134328358 99 601.134328358 99 733 99 c 0,66,67
 925.119565217 99 925.119565217 99 981.5 232 c 0,50,51
EndSplineSet
EndChar

StartChar: nine
Encoding: 57 57 40
Width: 1285
Flags: HW
LayerCount: 2
Fore
SplineSet
287 -103 m 1,0,1
 259 -133.8 259 -133.8 259 -154.4 c 128,-1,2
 259 -175 259 -175 272.5 -187.5 c 128,-1,3
 286 -200 286 -200 307.5 -208.5 c 128,-1,4
 329 -217 329 -217 355 -222.5 c 128,-1,5
 381 -228 381 -228 406.5 -230.5 c 0,6,7
 452.4 -235 452.4 -235 514.7 -235 c 128,-1,8
 577 -235 577 -235 651.5 -208.5 c 128,-1,9
 726 -182 726 -182 787 -136.5 c 128,-1,10
 848 -91 848 -91 896.5 -29 c 128,-1,11
 945 33 945 33 982.5 104.5 c 0,12,13
 1052.38963532 237.756238004 1052.38963532 237.756238004 1092 405 c 1,14,15
 854.125 220.838709677 854.125 220.838709677 645.5 167 c 0,16,17
 599 155 599 155 545 155 c 128,-1,18
 491 155 491 155 429 181.5 c 128,-1,19
 367 208 367 208 319.5 253.5 c 0,20,21
 217 351.684210526 217 351.684210526 217 491 c 0,22,23
 217 638.6 217 638.6 354.5 797 c 0,24,25
 477.521555623 938.720832077 477.521555623 938.720832077 665 1039 c 0,26,27
 850.086956522 1138 850.086956522 1138 994 1138 c 0,28,29
 1169.65420561 1138 1169.65420561 1138 1263 1024.5 c 0,30,31
 1350 918.715909091 1350 918.715909091 1350 762.857954545 c 128,-1,32
 1350 607 1350 607 1305.5 473 c 128,-1,33
 1261 339 1261 339 1183.5 216 c 128,-1,34
 1106 93 1106 93 1000.5 -13.5 c 128,-1,35
 895 -120 895 -120 772.5 -198 c 0,36,37
 508.653846154 -366 508.653846154 -366 247 -366 c 0,38,39
 34 -366 34 -366 34 -295 c 0,40,41
 34 -271 34 -271 48 -253.5 c 128,-1,42
 62 -236 62 -236 71 -229.5 c 128,-1,43
 80 -223 80 -223 99 -215 c 128,-1,44
 118 -207 118 -207 144.5 -193 c 0,45,46
 248.351351351 -138.135135135 248.351351351 -138.135135135 287 -103 c 1,0,1
1116 597.5 m 0,47,48
 1129 643 1129 643 1129 702 c 128,-1,49
 1129 761 1129 761 1098 820 c 128,-1,50
 1067 879 1067 879 1015.5 919.5 c 0,51,52
 911.864197531 1001 911.864197531 1001 761 1001 c 0,53,54
 613.553398058 1001 613.553398058 1001 526.5 887.5 c 0,55,56
 447 783.848101266 447 783.848101266 447 634 c 256,57,58
 447 495 447 495 548.5 393.5 c 128,-1,59
 650 292 650 292 789 292 c 0,60,61
 871.915254237 292 871.915254237 292 955 356.5 c 0,62,63
 1073.4057971 448.420289855 1073.4057971 448.420289855 1116 597.5 c 0,47,48
EndSplineSet
EndChar

StartChar: colon
Encoding: 58 58 41
Width: 545
Flags: HW
LayerCount: 2
Fore
SplineSet
606 746 m 1,0,-1
 380 610 l 1,1,-1
 314 777 l 1,2,-1
 540 913 l 1,3,-1
 606 746 l 1,0,-1
457 106 m 1,4,-1
 231 -30 l 1,5,-1
 165 137 l 1,6,-1
 391 273 l 1,7,-1
 457 106 l 1,4,-1
EndSplineSet
EndChar

StartChar: semicolon
Encoding: 59 59 42
Width: 549
Flags: HW
LayerCount: 2
Fore
SplineSet
606 746 m 1,0,-1
 380 610 l 1,1,-1
 314 777 l 1,2,-1
 540 913 l 1,3,-1
 606 746 l 1,0,-1
391 273 m 1,4,5
 450 129.714285714 450 129.714285714 450 87.8571428571 c 128,-1,6
 450 46 450 46 436 2.5 c 128,-1,7
 422 -41 422 -41 398 -81 c 0,8,9
 350.172413793 -160.712643678 350.172413793 -160.712643678 280 -216 c 0,10,11
 254 -236 254 -236 225 -248 c 128,-1,12
 196 -260 196 -260 170 -280 c 1,13,14
 266.299137105 -203.763183126 266.299137105 -203.763183126 309.5 -109 c 0,15,16
 325 -75 325 -75 325 -38.5 c 128,-1,17
 325 -2 325 -2 295 -2 c 0,18,19
 279 -2 279 -2 231 -30 c 1,20,-1
 165 137 l 1,21,-1
 391 273 l 1,4,5
EndSplineSet
EndChar

StartChar: less
Encoding: 60 60 43
Width: 935
Flags: HW
LayerCount: 2
Fore
SplineSet
648 -1 m 1,0,-1
 644 0 l 1,1,2
 546.457180501 72.0316205534 546.457180501 72.0316205534 449.22859025 174.515810277 c 2,3,-1
 296.5 335.5 l 2,4,5
 241 394 241 394 180 446 c 1,6,7
 269.610208817 485.341067285 269.610208817 485.341067285 367.5 559.5 c 0,8,9
 384 572 384 572 418 590.5 c 128,-1,10
 452 609 452 609 500 636 c 128,-1,11
 548 663 548 663 593.5 691.5 c 0,12,13
 725.55393401 774.215101523 725.55393401 774.215101523 814.5 867.5 c 0,14,15
 835 889 835 889 858.5 912.5 c 128,-1,16
 882 936 882 936 912 953 c 128,-1,17
 942 970 942 970 972.5 984 c 0,18,19
 1056.29473684 1022.46315789 1056.29473684 1022.46315789 1082 1047 c 1,20,21
 921.363674555 853.216496289 921.363674555 853.216496289 599.5 666.5 c 0,22,23
 509 614 509 614 424 567 c 1,24,25
 543 466 543 466 658 362 c 128,-1,26
 773 258 773 258 870 136 c 1,27,28
 849.508196721 127.803278689 849.508196721 127.803278689 811.754098361 102.901639344 c 128,-1,29
 774 78 774 78 748.5 61.5 c 128,-1,30
 723 45 723 45 701.5 31 c 0,31,32
 652.357142857 -1 652.357142857 -1 648 -1 c 1,0,-1
EndSplineSet
EndChar

StartChar: equal
Encoding: 61 61 44
Width: 1223
Flags: HW
LayerCount: 2
Fore
SplineSet
1243 753 m 1,0,1
 1223.99065421 748.775700935 1223.99065421 748.775700935 1167.9953271 707.387850467 c 128,-1,2
 1112 666 1112 666 1090 651 c 0,3,4
 1040.13333333 617 1040.13333333 617 1017 617 c 2,5,-1
 315 617 l 1,6,7
 337.170542636 621.434108527 337.170542636 621.434108527 392.085271318 663.217054264 c 128,-1,8
 447 705 447 705 469 719.5 c 0,9,10
 519.827586207 753 519.827586207 753 541 753 c 2,11,-1
 1243 753 l 1,0,1
1179 477 m 1,12,13
 1160.09375 473.21875 1160.09375 473.21875 1103.546875 431.109375 c 128,-1,14
 1047 389 1047 389 1025 374.5 c 0,15,16
 974.172413793 341 974.172413793 341 953 341 c 2,17,-1
 251 341 l 1,18,19
 264.864864865 342.540540541 264.864864865 342.540540541 323.932432432 385.27027027 c 128,-1,20
 383 428 383 428 405 443 c 0,21,22
 454.866666667 477 454.866666667 477 477 477 c 2,23,-1
 1179 477 l 1,12,13
EndSplineSet
EndChar

StartChar: greater
Encoding: 62 62 45
Width: 939
Flags: HW
LayerCount: 2
Fore
SplineSet
556 1048 m 1,0,-1
 560 1047 l 1,1,2
 657.542819499 974.968379447 657.542819499 974.968379447 754.77140975 872.484189723 c 2,3,-1
 907.5 711.5 l 2,4,5
 963 653 963 653 1024 601 c 1,6,7
 980.809160305 580.984732824 980.809160305 580.984732824 916.904580153 540.492366412 c 128,-1,8
 853 500 853 500 836.5 487.5 c 128,-1,9
 820 475 820 475 786 456.5 c 128,-1,10
 752 438 752 438 704 411 c 128,-1,11
 656 384 656 384 610.5 355.5 c 0,12,13
 477.111577684 271.949010198 477.111577684 271.949010198 390.5 179 c 0,14,15
 330.624708625 114.743589744 330.624708625 114.743589744 296.312354312 95.8717948718 c 128,-1,16
 262 77 262 77 231.5 63 c 0,17,18
 147.705263158 24.5368421053 147.705263158 24.5368421053 122 0 c 1,19,20
 281.439490446 192.33970276 281.439490446 192.33970276 604 380.5 c 0,21,22
 694 433 694 433 780 480 c 1,23,24
 554.549668874 671.059602649 554.549668874 671.059602649 468.274834437 760.529801325 c 128,-1,25
 382 850 382 850 334 911 c 1,26,27
 358.725274725 921.989010989 358.725274725 921.989010989 394.362637363 945.494505495 c 128,-1,28
 430 969 430 969 455.5 985.5 c 128,-1,29
 481 1002 481 1002 502.5 1016 c 0,30,31
 551.642857143 1048 551.642857143 1048 556 1048 c 1,0,-1
EndSplineSet
EndChar

StartChar: question
Encoding: 63 63 46
Width: 1056
Flags: HW
LayerCount: 2
Fore
SplineSet
497 324 m 1,0,-1
 497 329 l 1,1,2
 494.640103941 480.03334777 494.640103941 480.03334777 702.5 633.5 c 0,3,4
 832.428571429 729.428571429 832.428571429 729.428571429 882.714285714 779.714285714 c 128,-1,5
 933 830 933 830 969 881.5 c 0,6,7
 1051 998.805555556 1051 998.805555556 1051 1105 c 0,8,9
 1051 1212.51315789 1051 1212.51315789 966 1278.5 c 0,10,11
 890.644067797 1337 890.644067797 1337 776 1337 c 0,12,13
 673.651162791 1337 673.651162791 1337 603 1239 c 0,14,15
 538 1148.83870968 538 1148.83870968 538 1044 c 0,16,17
 538 1006 538 1006 549 967 c 1,18,-1
 323 831 l 1,19,20
 312 870 312 870 312 913.5 c 128,-1,21
 312 957 312 957 326 1002.5 c 128,-1,22
 340 1048 340 1048 364 1089 c 0,23,24
 410.646153846 1168.68717949 410.646153846 1168.68717949 474.323076923 1220.34358974 c 128,-1,25
 538 1272 538 1272 602 1315 c 128,-1,26
 666 1358 666 1358 736 1393.5 c 0,27,28
 894.732394366 1474 894.732394366 1474 1016 1474 c 0,29,30
 1126.92307692 1474 1126.92307692 1474 1196.5 1406.5 c 0,31,32
 1267 1338.10447761 1267 1338.10447761 1267 1227 c 0,33,34
 1267 1054.87640449 1267 1054.87640449 1112.5 916 c 0,35,36
 1064.47841727 872.834532374 1064.47841727 872.834532374 971.239208633 801.417266187 c 128,-1,37
 878 730 878 730 838 691.5 c 0,38,39
 726 583.7 726 583.7 726 488.5 c 0,40,41
 726 453.363636364 726 453.363636364 706.5 439.181818182 c 128,-1,42
 687 425 687 425 662.5 412 c 128,-1,43
 638 399 638 399 610.5 386 c 128,-1,44
 583 373 583 373 558.5 361.5 c 0,45,46
 502.64 335.28 502.64 335.28 497 324 c 1,0,-1
703 106 m 1,47,-1
 477 -30 l 1,48,-1
 412 137 l 1,49,-1
 638 273 l 1,50,-1
 703 106 l 1,47,-1
EndSplineSet
EndChar

StartChar: at
Encoding: 64 64 47
Width: 1518
Flags: HW
LayerCount: 2
Fore
SplineSet
1179 202 m 1,0,-1
 1185 202 l 1,1,2
 1329.89177489 375.87012987 1329.89177489 375.87012987 1385 576 c 0,3,4
 1404 645 1404 645 1404 712 c 128,-1,5
 1404 779 1404 779 1382 834 c 128,-1,6
 1360 889 1360 889 1319.5 927 c 0,7,8
 1236.36842105 1005 1236.36842105 1005 1097 1005 c 0,9,10
 914.636363636 1005 914.636363636 1005 743 887 c 0,11,12
 579.318753745 774.4691432 579.318753745 774.4691432 479.5 598.5 c 0,13,14
 377 417.804123711 377 417.804123711 377 237 c 0,15,16
 377 -3.4224137931 377 -3.4224137931 548 -84.5 c 0,17,18
 606 -112 606 -112 685 -114 c 1,19,20
 659.495575221 -120.955752212 659.495575221 -120.955752212 599.747787611 -166.477876106 c 128,-1,21
 540 -212 540 -212 510 -231 c 128,-1,22
 480 -250 480 -250 459 -250 c 0,23,24
 307.111111111 -250 307.111111111 -250 223.5 -142.5 c 0,25,26
 147 -44.1428571429 147 -44.1428571429 147 111 c 0,27,28
 147 363.01754386 147 363.01754386 340 608.5 c 0,29,30
 513.614784422 829.325822291 513.614784422 829.325822291 877.5 1008 c 0,31,32
 1162.62195122 1148 1162.62195122 1148 1345 1148 c 0,33,34
 1480.67901235 1148 1480.67901235 1148 1556.5 1061.5 c 0,35,36
 1628 979.929577465 1628 979.929577465 1628 842 c 0,37,38
 1628 659.55 1628 659.55 1479 443.5 c 0,39,40
 1304.05035971 189.823021583 1304.05035971 189.823021583 1101 97 c 0,41,42
 1031 65 1031 65 967 65 c 128,-1,43
 903 65 903 65 903 125 c 0,44,45
 903 147 903 147 913 182 c 1,46,47
 761.588235294 83 761.588235294 83 667 83 c 0,48,49
 546.052631579 83 546.052631579 83 506.5 166.5 c 0,50,51
 493 195 493 195 493 247 c 128,-1,52
 493 299 493 299 521.5 365.5 c 128,-1,53
 550 432 550 432 598 493.5 c 128,-1,54
 646 555 646 555 709 609 c 128,-1,55
 772 663 772 663 840.5 703.5 c 0,56,57
 986.802469136 790 986.802469136 790 1110 790 c 0,58,59
 1181.18518519 790 1181.18518519 790 1216 743 c 1,60,61
 1255 764 1255 764 1283 778 c 0,62,63
 1343 808 1343 808 1356 821 c 1,64,65
 1343 791 1343 791 1321 745 c 128,-1,66
 1299 699 1299 699 1273.5 644.5 c 128,-1,67
 1248 590 1248 590 1221.5 532.5 c 128,-1,68
 1195 475 1195 475 1173.5 421.5 c 0,69,70
 1125 300.813953488 1125 300.813953488 1125 250.281976744 c 128,-1,71
 1125 199.75 1125 199.75 1179 202 c 1,0,-1
722 371 m 0,72,73
 722 221 722 221 896 221 c 0,74,75
 935.296875 221 935.296875 221 993.5 370 c 0,76,77
 1021 440.4 1021 440.4 1021 488.7 c 128,-1,78
 1021 537 1021 537 1014.5 563 c 128,-1,79
 1008 589 1008 589 994 608.5 c 0,80,81
 963.487179487 651 963.487179487 651 911.743589744 651 c 128,-1,82
 860 651 860 651 826.5 621 c 128,-1,83
 793 591 793 591 769.5 547.5 c 0,84,85
 722 459.574468085 722 459.574468085 722 371 c 0,72,73
EndSplineSet
EndChar

StartChar: A
Encoding: 65 65 48
Width: 1412
Flags: HW
LayerCount: 2
Fore
SplineSet
211 135 m 1,0,1
 221.5 136 221.5 136 274.25 136 c 128,-1,2
 327 136 327 136 364 138.5 c 128,-1,3
 401 141 401 141 439 147.5 c 0,4,5
 524.969581749 162.205323194 524.969581749 162.205323194 575 190 c 1,6,7
 398.300847458 71.1296610169 398.300847458 71.1296610169 338.650423729 48.0648305085 c 128,-1,8
 279 25 279 25 235.5 16.5 c 0,9,10
 151.058823529 0 151.058823529 0 22 0 c 2,11,-1
 -16 0 l 1,12,-1
 -13 4 l 1,13,14
 20 33 20 33 53 61.5 c 128,-1,15
 86 90 86 90 142 146.5 c 128,-1,16
 198 203 198 203 269 292.5 c 128,-1,17
 340 382 340 382 405.5 476 c 128,-1,18
 471 570 471 570 533.5 665.5 c 128,-1,19
 596 761 596 761 661 858.5 c 128,-1,20
 726 956 726 956 793.5 1053.5 c 128,-1,21
 861 1151 861 1151 896 1209 c 128,-1,22
 931 1267 931 1267 938 1279.5 c 128,-1,23
 945 1292 945 1292 955 1303 c 1,24,-1
 879 1303 l 2,25,26
 692.5 1303 692.5 1303 580 1261 c 1,27,28
 750.611888112 1386.11538462 750.611888112 1386.11538462 862 1416 c 0,29,30
 936.299130435 1435.93391304 936.299130435 1435.93391304 1022.14956522 1437.46695652 c 128,-1,31
 1108 1439 1108 1439 1181 1439 c 1,32,33
 1202 1146 1202 1146 1221 856.5 c 128,-1,34
 1240 567 1240 567 1256 407 c 128,-1,35
 1272 247 1272 247 1273.5 220 c 128,-1,36
 1275 193 1275 193 1283.5 171 c 0,37,38
 1302.43181818 122 1302.43181818 122 1366 122 c 0,39,40
 1430.25 122 1430.25 122 1509 167 c 1,41,42
 1477 146 1477 146 1430 114.5 c 128,-1,43
 1383 83 1383 83 1331 53.5 c 0,44,45
 1204.96610169 -18 1204.96610169 -18 1140 -18 c 0,46,47
 1070.53658537 -18 1070.53658537 -18 1055.5 50.5 c 0,48,49
 1034.46059545 146.346176299 1034.46059545 146.346176299 1026.73029772 304.173088149 c 128,-1,50
 1019 462 1019 462 1008 586 c 1,51,52
 905.294346979 522.155945419 905.294346979 522.155945419 568 530 c 1,53,54
 407.267379679 309.459893048 407.267379679 309.459893048 211 135 c 1,0,1
875 665 m 1,55,56
 938 665 938 665 1002 669 c 1,57,58
 983.357142857 901 983.357142857 901 968 1116 c 1,59,60
 824.707317073 898.195121951 824.707317073 898.195121951 663 666 c 1,61,62
 675 669 675 669 678 669 c 2,63,-1
 875 665 l 1,55,56
EndSplineSet
EndChar

StartChar: B
Encoding: 66 66 49
Width: 1248
Flags: HW
LayerCount: 2
Fore
SplineSet
352 1303 m 1,0,1
 556 1439 556 1439 578 1439 c 2,2,-1
 1050 1440 l 2,3,4
 1182.31578947 1440 1182.31578947 1440 1239.15789474 1416 c 128,-1,5
 1296 1392 1296 1392 1325 1355 c 128,-1,6
 1354 1318 1354 1318 1354 1247 c 128,-1,7
 1354 1176 1354 1176 1323 1115.5 c 128,-1,8
 1292 1055 1292 1055 1242.5 1006.5 c 0,9,10
 1176.81528662 942.142250531 1176.81528662 942.142250531 1012 846 c 1,11,12
 1203.00556269 825.163029525 1203.00556269 825.163029525 1268 698 c 0,13,14
 1291 653 1291 653 1291 588 c 128,-1,15
 1291 523 1291 523 1259.5 457.5 c 128,-1,16
 1228 392 1228 392 1175.5 332.5 c 128,-1,17
 1123 273 1123 273 1055.5 221 c 128,-1,18
 988 169 988 169 916 128 c 0,19,20
 709.374543685 10.3382818204 709.374543685 10.3382818204 538.5 2.5 c 0,21,22
 484 0 484 0 430 0 c 2,23,-1
 202 0 l 1,24,25
 261.715328467 66.3503649635 261.715328467 66.3503649635 275.857664234 90.6751824818 c 0,26,27
 298.290816327 129.260204082 298.290816327 129.260204082 316 206 c 2,28,-1
 572 1303 l 1,29,-1
 352 1303 l 1,0,1
659 845 m 1,30,31
 753 849 753 849 835.166666667 849 c 128,-1,32
 917.333333333 849 917.333333333 849 952 845 c 1,33,34
 1129 896.625 1129 896.625 1129 1115 c 0,35,36
 1129 1310 1129 1310 837 1310 c 0,37,38
 801 1310 801 1310 767 1308 c 1,39,-1
 659 845 l 1,30,31
1037 321 m 0,40,41
 1063 383 1063 383 1063 454 c 128,-1,42
 1063 525 1063 525 1043 566 c 128,-1,43
 1023 607 1023 607 989 634 c 128,-1,44
 955 661 955 661 911 677 c 128,-1,45
 867 693 867 693 818.5 701 c 0,46,47
 745.75 713 745.75 713 629 713 c 1,48,49
 607 621 607 621 586 530 c 128,-1,50
 565 439 565 439 551 379.5 c 128,-1,51
 537 320 537 320 525.5 291.5 c 128,-1,52
 514 263 514 263 499.5 235 c 0,53,54
 472.635164835 183.123076923 472.635164835 183.123076923 430 136 c 1,55,-1
 709 136 l 2,56,57
 959.419354839 136 959.419354839 136 1037 321 c 0,40,41
EndSplineSet
EndChar

StartChar: C
Encoding: 67 67 50
Width: 1382
Flags: HW
LayerCount: 2
Fore
SplineSet
1680.5 1432.5 m 128,-1,1
 1698 1423 1698 1423 1698 1415 c 128,-1,2
 1698 1407 1698 1407 1680 1393 c 128,-1,3
 1662 1379 1662 1379 1634 1360.5 c 128,-1,4
 1606 1342 1606 1342 1572.5 1321.5 c 128,-1,5
 1539 1301 1539 1301 1508 1283 c 0,6,7
 1433.86956522 1239.95652174 1433.86956522 1239.95652174 1419 1235 c 1,8,9
 1422 1238 1422 1238 1430 1243.5 c 128,-1,10
 1438 1249 1438 1249 1447 1256 c 0,11,12
 1469 1273.11111111 1469 1273.11111111 1469 1280.05555556 c 0,13,14
 1469 1287.42857143 1469 1287.42857143 1424 1305.21428571 c 0,15,16
 1333.45783133 1341 1333.45783133 1341 1172.22891566 1341 c 128,-1,17
 1011 1341 1011 1341 875 1284 c 128,-1,18
 739 1227 739 1227 644 1126.5 c 0,19,20
 448 919.152631579 448 919.152631579 448 587 c 0,21,22
 448 368.280701754 448 368.280701754 564 236 c 0,23,24
 685.892307692 97 685.892307692 97 902 97 c 0,25,26
 1080 97 1080 97 1368 211 c 1,27,28
 1146.70590567 37.8133174792 1146.70590567 37.8133174792 848 -23.5 c 0,29,30
 753 -43 753 -43 654.5 -43 c 128,-1,31
 556 -43 556 -43 472.5 -8 c 128,-1,32
 389 27 389 27 333 89.5 c 0,33,34
 219 216.732142857 219 216.732142857 219 432 c 0,35,36
 219 712.227272727 219 712.227272727 410 964 c 0,37,38
 585.321949188 1195.10620575 585.321949188 1195.10620575 868 1337.5 c 0,39,40
 1146.91851852 1478 1146.91851852 1478 1421 1478 c 0,41,42
 1521.57142857 1478 1521.57142857 1478 1592.28571429 1460 c 128,-1,0
 1663 1442 1663 1442 1680.5 1432.5 c 128,-1,1
EndSplineSet
EndChar

StartChar: D
Encoding: 68 68 51
Width: 1562
Flags: HW
LayerCount: 2
Fore
SplineSet
515 0 m 2,0,-1
 193 0 l 1,1,2
 276.885245902 68.6333830104 276.885245902 68.6333830104 315 205.5 c 0,3,4
 326 245 326 245 335 285 c 2,5,-1
 573 1303 l 1,6,-1
 353 1303 l 1,7,8
 375 1311 375 1311 406 1333.5 c 128,-1,9
 437 1356 437 1356 469.5 1379.5 c 0,10,11
 551.787234043 1439 551.787234043 1439 579 1439 c 2,12,-1
 1023 1440 l 2,13,14
 1292.72972973 1440 1292.72972973 1440 1469.5 1337 c 0,15,16
 1682 1213.18110236 1682 1213.18110236 1682 956 c 0,17,18
 1682 675.023255814 1682 675.023255814 1497 447 c 0,19,20
 1327.45087819 238.020849858 1327.45087819 238.020849858 1052.5 117 c 0,21,22
 786.684210526 -2.84217094304e-14 786.684210526 -2.84217094304e-14 515 0 c 2,0,-1
1416 554.5 m 128,-1,24
 1461 687 1461 687 1461 818.5 c 128,-1,25
 1461 950 1461 950 1431.5 1022.5 c 128,-1,26
 1402 1095 1402 1095 1351.5 1145.5 c 128,-1,27
 1301 1196 1301 1196 1233.5 1227 c 128,-1,28
 1166 1258 1166 1258 1089 1275 c 0,29,30
 962.176470588 1303 962.176470588 1303 767 1303 c 1,31,-1
 542 339 l 2,32,33
 523.860465116 262.410852713 523.860465116 262.410852713 507.930232558 233.205426357 c 0,34,35
 482.279069767 186.178294574 482.279069767 186.178294574 431 133 c 1,36,-1
 763 133 l 2,37,38
 1099 133 1099 133 1283 328.5 c 0,39,23
 1371 422 1371 422 1416 554.5 c 128,-1,24
EndSplineSet
EndChar

StartChar: E
Encoding: 69 69 52
Width: 1142
Flags: HW
LayerCount: 2
Fore
SplineSet
380 1303 m 1,0,1
 584 1439 584 1439 606 1439 c 2,2,-1
 1432 1439 l 1,3,4
 1409.82945736 1434.56589147 1409.82945736 1434.56589147 1354.91472868 1392.78294574 c 128,-1,5
 1300 1351 1300 1351 1278 1336.5 c 0,6,7
 1227.17241379 1303 1227.17241379 1303 1206 1303 c 2,8,-1
 761 1303 l 1,9,-1
 648 818 l 1,10,-1
 1134 818 l 1,11,12
 1111.82945736 813.565891473 1111.82945736 813.565891473 1056.91472868 771.782945736 c 128,-1,13
 1002 730 1002 730 980 715.5 c 0,14,15
 929.172413793 682 929.172413793 682 908 682 c 2,16,-1
 617 682 l 1,17,-1
 541 356 l 1,18,19
 517.028708134 245.732057416 517.028708134 245.732057416 464.5 173 c 0,20,21
 445 146 445 146 422 136 c 1,22,-1
 978 136 l 2,23,24
 1037.28571429 136 1037.28571429 136 1171 188 c 1,25,26
 1102.4375 125.151041667 1102.4375 125.151041667 920 39 c 0,27,28
 837.411764706 3.90798504668e-14 837.411764706 3.90798504668e-14 811 0 c 2,29,-1
 174 0 l 1,30,31
 249.114285714 75.1142857143 249.114285714 75.1142857143 296.5 176 c 0,32,33
 312 209 312 209 328.5 280 c 128,-1,34
 345 351 345 351 370.5 460.5 c 128,-1,35
 396 570 396 570 422 682 c 1,36,-1
 282 682 l 1,37,38
 324 710 324 710 365 737.5 c 128,-1,39
 406 765 406 765 448 791 c 1,40,-1
 567 1303 l 1,41,-1
 380 1303 l 1,0,1
EndSplineSet
EndChar

StartChar: F
Encoding: 70 70 53
Width: 1094
Flags: HW
LayerCount: 2
Fore
SplineSet
1481 1439 m 1,0,1
 1458.82945736 1434.56589147 1458.82945736 1434.56589147 1403.91472868 1392.78294574 c 128,-1,2
 1349 1351 1349 1351 1327 1336.5 c 0,3,4
 1276.17241379 1303 1276.17241379 1303 1255 1303 c 2,5,-1
 764 1303 l 1,6,-1
 638 759 l 1,7,-1
 1123 759 l 1,8,9
 1102.6124031 754.92248062 1102.6124031 754.92248062 1046.80620155 712.46124031 c 128,-1,10
 991 670 991 670 969 655.5 c 0,11,12
 918.172413793 622 918.172413793 622 897 622 c 2,13,-1
 606 622 l 1,14,-1
 551 388 l 1,15,16
 525.625514403 273.814814815 525.625514403 273.814814815 467.5 184.5 c 0,17,18
 447 153 447 153 422 136 c 1,19,-1
 742 136 l 1,20,21
 719.829457364 131.565891473 719.829457364 131.565891473 664.914728682 89.7829457364 c 128,-1,22
 610 48 610 48 588 33.5 c 0,23,24
 537.172413793 -4.97379915032e-14 537.172413793 -4.97379915032e-14 516 0 c 2,25,-1
 177 0 l 1,26,27
 252.636896047 79.2386530015 252.636896047 79.2386530015 299.5 177.5 c 0,28,29
 316.596039604 213.346534653 316.596039604 213.346534653 352.798019802 369.673267327 c 128,-1,30
 389 526 389 526 412 622 c 1,31,-1
 271 622 l 1,32,33
 313 650 313 650 354 677.5 c 128,-1,34
 395 705 395 705 437 732 c 1,35,-1
 570 1303 l 1,36,-1
 383 1303 l 1,37,38
 392 1309 392 1309 410 1321.5 c 128,-1,39
 428 1334 428 1334 450.5 1349 c 128,-1,40
 473 1364 473 1364 497.5 1380 c 128,-1,41
 522 1396 522 1396 544 1409 c 0,42,43
 594.769230769 1439 594.769230769 1439 609 1439 c 2,44,-1
 1481 1439 l 1,0,1
EndSplineSet
EndChar

StartChar: G
Encoding: 71 71 54
Width: 1629
Flags: HW
LayerCount: 2
Fore
SplineSet
1715 1446 m 0,0,1
 1768 1429 1768 1429 1797 1411.25 c 128,-1,2
 1826 1393.5 1826 1393.5 1826 1383.75 c 128,-1,3
 1826 1374 1826 1374 1808 1360.5 c 128,-1,4
 1790 1347 1790 1347 1763 1329 c 128,-1,5
 1736 1311 1736 1311 1702.5 1291.5 c 128,-1,6
 1669 1272 1669 1272 1639 1254.5 c 0,7,8
 1575.4 1217.4 1575.4 1217.4 1552 1207 c 1,9,10
 1556 1211 1556 1211 1564.5 1217 c 128,-1,11
 1573 1223 1573 1223 1580.5 1229.5 c 0,12,13
 1600 1246.4 1600 1246.4 1600 1261.7 c 128,-1,14
 1600 1277 1600 1277 1572.5 1293 c 128,-1,15
 1545 1309 1545 1309 1502.5 1320.5 c 128,-1,16
 1460 1332 1460 1332 1408 1340 c 128,-1,17
 1356 1348 1356 1348 1306.5 1353 c 0,18,19
 1217.4 1362 1217.4 1362 1130.7 1362 c 128,-1,20
 1044 1362 1044 1362 948.5 1333.5 c 128,-1,21
 853 1305 853 1305 775 1254 c 128,-1,22
 697 1203 697 1203 636.5 1131.5 c 128,-1,23
 576 1060 576 1060 535.5 974 c 0,24,25
 453 798.814814815 453 798.814814815 453 588 c 0,26,27
 453 364 453 364 584.5 232.5 c 0,28,29
 717 100 717 100 941 100 c 0,30,31
 1112.12121212 100 1112.12121212 100 1250 145.5 c 0,32,33
 1300 162 1300 162 1335 187 c 1,34,-1
 1437 622 l 1,35,-1
 1150 622 l 1,36,37
 1159 628 1159 628 1177 640.5 c 128,-1,38
 1195 653 1195 653 1217.5 668.5 c 128,-1,39
 1240 684 1240 684 1265 700 c 128,-1,40
 1290 716 1290 716 1312 729 c 0,41,42
 1362.76923077 759 1362.76923077 759 1376 759 c 2,43,-1
 1784 759 l 1,44,45
 1740 741.888888889 1740 741.888888889 1697 708.444444444 c 128,-1,46
 1654 675 1654 675 1638 664 c 1,47,-1
 1558 317 l 1,48,49
 1413.96944211 176.033922063 1413.96944211 176.033922063 1184 70.5 c 0,50,51
 947.567164179 -38 947.567164179 -38 752 -38 c 0,52,53
 511.5 -38 511.5 -38 372.5 84 c 0,54,55
 225 213.460431655 225 213.460431655 225 448 c 0,56,57
 225 725.470238095 225 725.470238095 406 976.5 c 0,58,59
 573.835739734 1209.27218665 573.835739734 1209.27218665 846.5 1353.5 c 0,60,61
 1117.78832117 1497 1117.78832117 1497 1390 1497 c 0,62,63
 1556 1497 1556 1497 1715 1446 c 0,0,1
EndSplineSet
EndChar

StartChar: H
Encoding: 72 72 55
Width: 1673
Flags: HW
LayerCount: 2
Fore
SplineSet
1321 1303 m 1,0,1
 1525 1439 1525 1439 1547 1439 c 2,2,-1
 1983 1439 l 1,3,4
 1966.7804878 1435.75609756 1966.7804878 1435.75609756 1908.8902439 1393.87804878 c 128,-1,5
 1851 1352 1851 1352 1829 1337 c 0,6,7
 1779.13333333 1303 1779.13333333 1303 1757 1303 c 2,8,-1
 1703 1303 l 1,9,-1
 1490 388 l 2,10,11
 1468 294 1468 294 1450.5 259 c 0,12,13
 1421.74193548 201.483870968 1421.74193548 201.483870968 1360 136 c 1,14,-1
 1680 136 l 1,15,16
 1663.7804878 132.756097561 1663.7804878 132.756097561 1605.8902439 90.8780487805 c 128,-1,17
 1548 49 1548 49 1526 34 c 0,18,19
 1476.13333333 -8.17124146124e-14 1476.13333333 -8.17124146124e-14 1454 0 c 2,20,-1
 1115 0 l 1,21,22
 1183.69565217 62.4505928854 1183.69565217 62.4505928854 1205.34782609 97.2252964427 c 0,23,24
 1239.11392405 151.455696203 1239.11392405 151.455696203 1261 239 c 1,25,-1
 1364 682 l 1,26,-1
 619 682 l 1,27,-1
 550 388 l 2,28,29
 527.12 290.24 527.12 290.24 510.56 257.12 c 0,30,31
 482.741935484 201.483870968 482.741935484 201.483870968 421 136 c 1,32,-1
 741 136 l 1,33,34
 724.780487805 132.756097561 724.780487805 132.756097561 666.890243902 90.8780487805 c 128,-1,35
 609 49 609 49 587 34 c 0,36,37
 537.133333333 -3.5527136788e-15 537.133333333 -3.5527136788e-15 515 0 c 2,38,-1
 176 0 l 1,39,40
 266.410835214 61.1602708804 266.410835214 61.1602708804 301 166.5 c 0,41,42
 312 200 312 200 321 239 c 2,43,-1
 569 1303 l 1,44,-1
 382 1303 l 1,45,46
 586 1439 586 1439 608 1439 c 2,47,-1
 1044 1439 l 1,48,49
 1027.7804878 1435.75609756 1027.7804878 1435.75609756 969.890243902 1393.87804878 c 128,-1,50
 912 1352 912 1352 890 1337 c 0,51,52
 840.133333333 1303 840.133333333 1303 818 1303 c 2,53,-1
 763 1303 l 1,54,-1
 650 818 l 1,55,-1
 1395 818 l 1,56,-1
 1508 1303 l 1,57,-1
 1321 1303 l 1,0,1
EndSplineSet
EndChar

StartChar: I
Encoding: 73 73 56
Width: 740
Flags: HW
LayerCount: 2
Fore
SplineSet
383 1303 m 1,0,1
 587 1439 587 1439 609 1439 c 2,2,-1
 1065 1439 l 1,3,4
 1048.14332248 1436.752443 1048.14332248 1436.752443 985.071661238 1390.3762215 c 128,-1,5
 922 1344 922 1344 890 1323.5 c 128,-1,6
 858 1303 858 1303 839 1303 c 2,7,-1
 764 1303 l 1,8,-1
 551 388 l 2,9,10
 523.166887417 272.691390728 523.166887417 272.691390728 466.5 187 c 0,11,12
 446 156 446 156 422 136 c 1,13,-1
 742 136 l 1,14,15
 719.829457364 131.565891473 719.829457364 131.565891473 664.914728682 89.7829457364 c 128,-1,16
 610 48 610 48 588 33.5 c 0,17,18
 537.172413793 -4.97379915032e-14 537.172413793 -4.97379915032e-14 516 0 c 2,19,-1
 177 0 l 1,20,21
 244.927659574 55.9404255319 244.927659574 55.9404255319 267.463829787 93.970212766 c 0,22,23
 300.905472637 150.402985075 300.905472637 150.402985075 322 239 c 2,24,-1
 570 1303 l 1,25,-1
 383 1303 l 1,0,1
EndSplineSet
EndChar

StartChar: J
Encoding: 74 74 57
Width: 708
Flags: HW
LayerCount: 2
Fore
SplineSet
379 1303 m 1,0,1
 583 1439 583 1439 605 1439 c 2,2,-1
 1061 1439 l 1,3,4
 1032.58823529 1430.35294118 1032.58823529 1430.35294118 973.294117647 1385.17647059 c 128,-1,5
 914 1340 914 1340 885 1321.5 c 128,-1,6
 856 1303 856 1303 835 1303 c 2,7,-1
 760 1303 l 1,8,9
 697 1031 697 1031 634.5 763 c 128,-1,10
 572 495 572 495 509 223 c 0,11,12
 445.024665982 -48.8951695786 445.024665982 -48.8951695786 208 -287.5 c 0,13,14
 50.8819150736 -445.665538826 50.8819150736 -445.665538826 -127.5 -510 c 0,15,16
 -219 -543 -219 -543 -312 -543 c 0,17,18
 -355.714285714 -543 -355.714285714 -543 -414.857142857 -520 c 128,-1,19
 -474 -497 -474 -497 -496 -484 c 0,20,21
 -546 -454.454545455 -546 -454.454545455 -546 -427 c 0,22,23
 -546 -382.615384615 -546 -382.615384615 -296 -248 c 0,24,25
 -270 -234 -270 -234 -259 -229 c 1,26,27
 -325 -273 -325 -273 -325 -293 c 0,28,29
 -325 -303.526315789 -325 -303.526315789 -283 -332.263157895 c 128,-1,30
 -241 -361 -241 -361 -209 -376 c 0,31,32
 -140.733333333 -408 -140.733333333 -408 -80.8666666667 -408 c 128,-1,33
 -21 -408 -21 -408 25 -384 c 128,-1,34
 71 -360 71 -360 108 -320 c 128,-1,35
 145 -280 145 -280 173 -228.5 c 128,-1,36
 201 -177 201 -177 222 -122 c 0,37,38
 250.226470588 -48.0735294118 250.226470588 -48.0735294118 283 86 c 1,39,-1
 566 1303 l 1,40,-1
 379 1303 l 1,0,1
EndSplineSet
EndChar

StartChar: K
Encoding: 75 75 58
Width: 1669
Flags: HW
LayerCount: 2
Fore
SplineSet
1440 1303 m 1,0,1
 1236.10022779 1129.53302961 1236.10022779 1129.53302961 892 869 c 1,2,3
 1296.18181818 350.818181818 1296.18181818 350.818181818 1405 242 c 1,4,5
 1510.6 134 1510.6 134 1617 134 c 0,6,7
 1678.28571429 134 1678.28571429 134 1779 181 c 1,8,9
 1630.20481928 63.5301204819 1630.20481928 63.5301204819 1473 13 c 0,10,11
 1417 -5 1417 -5 1372.5 -5 c 128,-1,12
 1328 -5 1328 -5 1295 10.5 c 128,-1,13
 1262 26 1262 26 1233 50 c 128,-1,14
 1204 74 1204 74 1178.5 103 c 128,-1,15
 1153 132 1153 132 1078.5 215 c 0,16,17
 951.698562221 356.268715915 951.698562221 356.268715915 650 727 c 1,18,19
 949 963.6 949 963.6 1061 1053.3 c 128,-1,20
 1173 1143 1173 1143 1238.5 1195 c 128,-1,21
 1304 1247 1304 1247 1367 1303 c 1,22,-1
 1192 1303 l 1,23,24
 1201 1309 1201 1309 1219 1321.5 c 128,-1,25
 1237 1334 1237 1334 1259.5 1349 c 128,-1,26
 1282 1364 1282 1364 1306.5 1380 c 128,-1,27
 1331 1396 1331 1396 1353.5 1409 c 0,28,29
 1405.42307692 1439 1405.42307692 1439 1418 1439 c 2,30,-1
 1814 1439 l 1,31,32
 1787.94736842 1430.71052632 1787.94736842 1430.71052632 1727.47368421 1385.35526316 c 128,-1,33
 1667 1340 1667 1340 1637.5 1321.5 c 128,-1,34
 1608 1303 1608 1303 1588 1303 c 2,35,-1
 1440 1303 l 1,0,1
384 1303 m 1,36,37
 588 1439 588 1439 610 1439 c 2,38,-1
 1066 1439 l 1,39,40
 1043.82945736 1434.56589147 1043.82945736 1434.56589147 988.914728682 1392.78294574 c 128,-1,41
 934 1351 934 1351 912 1336.5 c 0,42,43
 861.172413793 1303 861.172413793 1303 840 1303 c 2,44,-1
 765 1303 l 1,45,-1
 552 388 l 2,46,47
 528.166666667 288.333333333 528.166666667 288.333333333 512.083333333 256.166666667 c 0,48,49
 484.741935484 201.483870968 484.741935484 201.483870968 423 136 c 1,50,-1
 743 136 l 1,51,52
 720.829457364 131.565891473 720.829457364 131.565891473 665.914728682 89.7829457364 c 128,-1,53
 611 48 611 48 589 33.5 c 0,54,55
 538.172413793 2.84217094304e-14 538.172413793 2.84217094304e-14 517 0 c 2,56,-1
 178 0 l 1,57,58
 290.35665529 95.8336177474 290.35665529 95.8336177474 349 348 c 2,59,-1
 571 1303 l 1,60,-1
 384 1303 l 1,36,37
EndSplineSet
EndChar

StartChar: L
Encoding: 76 76 59
Width: 1125
Flags: HW
LayerCount: 2
Fore
SplineSet
384 1303 m 1,0,1
 588 1439 588 1439 610 1439 c 2,2,-1
 1066 1439 l 1,3,4
 1043.82945736 1434.56589147 1043.82945736 1434.56589147 988.914728682 1392.78294574 c 128,-1,5
 934 1351 934 1351 912 1336.5 c 0,6,7
 861.172413793 1303 861.172413793 1303 840 1303 c 2,8,-1
 765 1303 l 1,9,10
 708 1055 708 1055 652.5 805 c 128,-1,11
 597 555 597 555 534 307 c 0,12,13
 517.019417476 240.621359223 517.019417476 240.621359223 476.509708738 196.810679612 c 128,-1,14
 436 153 436 153 410 136 c 1,15,-1
 979 136 l 2,16,17
 1098.85714286 136 1098.85714286 136 1176 190 c 1,18,19
 1053.30769231 67.3076923077 1053.30769231 67.3076923077 911 17.5 c 0,20,21
 861 0 861 0 815 0 c 2,22,-1
 168 0 l 1,23,24
 267.077791719 75.765370138 267.077791719 75.765370138 300.5 164 c 0,25,26
 313 197 313 197 323 239 c 2,27,-1
 571 1303 l 1,28,-1
 384 1303 l 1,0,1
EndSplineSet
EndChar

StartChar: M
Encoding: 77 77 60
Width: 2230
Flags: HW
LayerCount: 2
Fore
SplineSet
683 136 m 1,0,1
 479 0 479 0 457 0 c 2,2,-1
 128 0 l 1,3,4
 208.745848708 65.1176199262 208.745848708 65.1176199262 290.5 270.5 c 0,5,6
 411.941929974 575.585824082 411.941929974 575.585824082 632 1303 c 1,7,-1
 380 1303 l 1,8,9
 486 1382.5 486 1382.5 542.5 1410.75 c 128,-1,10
 599 1439 599 1439 606 1439 c 2,11,-1
 858 1439 l 1,12,13
 909 1300 909 1300 960 1162.5 c 128,-1,14
 1011 1025 1011 1025 1049.5 919.5 c 128,-1,15
 1088 814 1088 814 1115 744 c 128,-1,16
 1142 674 1142 674 1167 603.5 c 0,17,18
 1221.51140065 449.777850163 1221.51140065 449.777850163 1249 316 c 1,19,20
 1388 489 1388 489 1521.5 661.5 c 128,-1,21
 1655 834 1655 834 1755 962 c 128,-1,22
 1855 1090 1855 1090 1918 1173 c 128,-1,23
 1981 1256 1981 1256 2023 1303 c 128,-1,24
 2065 1350 2065 1350 2094 1368.5 c 128,-1,25
 2123 1387 2123 1387 2156 1405 c 128,-1,26
 2189 1423 2189 1423 2221.5 1439.5 c 128,-1,27
 2254 1456 2254 1456 2276 1469 c 1,28,29
 2236 1243 2236 1243 2194 1020 c 128,-1,30
 2152 797 2152 797 2126.5 658.5 c 128,-1,31
 2101 520 2101 520 2093 468.5 c 128,-1,32
 2085 417 2085 417 2072 360.5 c 0,33,34
 2039.55241935 219.477822581 2039.55241935 219.477822581 1968 136 c 1,35,-1
 2264 136 l 1,36,37
 2236.96153846 126.987179487 2236.96153846 126.987179487 2175.98076923 81.4935897436 c 128,-1,38
 2115 36 2115 36 2086.5 18 c 128,-1,39
 2058 0 2058 0 2038 0 c 2,40,-1
 1740 0 l 1,41,42
 1798.94339623 64.3018867925 1798.94339623 64.3018867925 1824 152 c 0,43,44
 1858.10526316 271.368421053 1858.10526316 271.368421053 1917.55263158 596.184210526 c 128,-1,45
 1977 921 1977 921 2013 1127 c 1,46,47
 1883 966 1883 966 1756.5 805.5 c 128,-1,48
 1630 645 1630 645 1546.5 540.5 c 128,-1,49
 1463 436 1463 436 1426.5 388.5 c 128,-1,50
 1390 341 1390 341 1361.5 303.5 c 128,-1,51
 1333 266 1333 266 1312.5 238 c 128,-1,52
 1292 210 1292 210 1276 193 c 128,-1,53
 1260 176 1260 176 1229.5 157 c 128,-1,54
 1199 138 1199 138 1163 117 c 128,-1,55
 1127 96 1127 96 1093 77 c 128,-1,56
 1059 58 1059 58 1043 49 c 1,57,58
 1027.60014892 209.842889054 1027.60014892 209.842889054 978.30007446 356.921444527 c 128,-1,59
 929 504 929 504 895 591.5 c 128,-1,60
 861 679 861 679 829 768 c 2,61,-1
 732 1033 l 1,62,63
 571.358644068 527.45220339 571.358644068 527.45220339 521.179322034 407.726101695 c 128,-1,64
 471 288 471 288 437 228.5 c 128,-1,65
 403 169 403 169 363 136 c 1,66,-1
 683 136 l 1,0,1
EndSplineSet
EndChar

StartChar: N
Encoding: 78 78 61
Width: 1824
Flags: HW
LayerCount: 2
Fore
SplineSet
1548 1303 m 1,0,1
 1752 1439 1752 1439 1774 1439 c 2,2,-1
 2151 1439 l 1,3,4
 2112.33333333 1427 2112.33333333 1427 2064.66666667 1388.5 c 0,5,6
 1976.9088729 1317.61870504 1976.9088729 1317.61870504 1930 1304 c 1,7,8
 1916 1223 1916 1223 1895 1144 c 128,-1,9
 1874 1065 1874 1065 1840.5 924 c 0,10,11
 1772.83811345 639.21414914 1772.83811345 639.21414914 1595 207 c 0,12,13
 1584 181 1584 181 1574 153.5 c 128,-1,14
 1564 126 1564 126 1551.5 107 c 128,-1,15
 1539 88 1539 88 1515 68.5 c 128,-1,16
 1491 49 1491 49 1462.5 29.5 c 128,-1,17
 1434 10 1434 10 1406.5 -7 c 128,-1,18
 1379 -24 1379 -24 1363 -34 c 1,19,-1
 1363 -17 l 2,20,21
 1363 48.3333333333 1363 48.3333333333 1313.5 134.5 c 0,22,23
 1300 158 1300 158 1227.5 285 c 0,24,25
 1043.27654588 607.708671354 1043.27654588 607.708671354 729 1077 c 1,26,-1
 630 645 l 2,27,28
 615 582 615 582 599.5 511.5 c 128,-1,29
 584 441 584 441 560.5 372.5 c 0,30,31
 505.881731785 213.293558606 505.881731785 213.293558606 420 136 c 1,32,-1
 743 136 l 1,33,34
 539 0 539 0 517 0 c 2,35,-1
 188 0 l 1,36,37
 268.837209302 88.1860465116 268.837209302 88.1860465116 306.418604651 175.093023256 c 0,38,39
 361.485232068 302.434599156 361.485232068 302.434599156 402.742616034 479.717299578 c 0,40,41
 501.352511047 903.443352847 501.352511047 903.443352847 571 1303 c 1,42,-1
 344 1303 l 1,43,44
 548 1439 548 1439 570 1439 c 2,45,-1
 947 1439 l 1,46,47
 914.091633466 1426.07171315 914.091633466 1426.07171315 845 1372 c 1,48,49
 1061.72762646 1063.80933852 1061.72762646 1063.80933852 1190.36381323 852.404669261 c 128,-1,50
 1319 641 1319 641 1380.5 543.5 c 128,-1,51
 1442 446 1442 446 1499 343 c 1,52,53
 1651.5984252 816.858267717 1651.5984252 816.858267717 1727 1303 c 1,54,-1
 1548 1303 l 1,0,1
EndSplineSet
EndChar

StartChar: O
Encoding: 79 79 62
Width: 1752
Flags: HW
LayerCount: 2
Fore
SplineSet
751.5 -81 m 0,0,1
 647 -81 647 -81 546 -52.5 c 128,-1,2
 445 -24 445 -24 371.5 35.5 c 0,3,4
 214 163 214 163 214 404 c 0,5,6
 214 677.796296296 214 677.796296296 388 934.5 c 0,7,8
 553.143440517 1178.13754496 553.143440517 1178.13754496 815.5 1328.5 c 0,9,10
 1085.07586207 1483 1085.07586207 1483 1355 1483 c 0,11,12
 1583.375 1483 1583.375 1483 1736 1351 c 0,13,14
 1896 1212.62162162 1896 1212.62162162 1896 987 c 0,15,16
 1896 714.75 1896 714.75 1667 428.5 c 0,17,18
 1451.12978369 158.662229617 1451.12978369 158.662229617 1147.5 15.5 c 0,19,20
 942.835164835 -81 942.835164835 -81 751.5 -81 c 0,0,1
1665 863 m 0,21,22
 1665 973 1665 973 1624 1066 c 128,-1,23
 1583 1159 1583 1159 1510 1220.5 c 0,24,25
 1364.59349593 1343 1364.59349593 1343 1119 1343 c 0,26,27
 900.722222222 1343 900.722222222 1343 741 1228 c 0,28,29
 596.655149935 1124.07170795 596.655149935 1124.07170795 518 937 c 0,30,31
 445 763.378378378 445 763.378378378 445 549 c 0,32,33
 445 301.862068966 445 301.862068966 597.5 172.5 c 0,34,35
 740.731707317 51 740.731707317 51 992 51 c 0,36,37
 1193.71681416 51 1193.71681416 51 1355 172.5 c 0,38,39
 1499.70152641 281.508483232 1499.70152641 281.508483232 1584.5 471.5 c 0,40,41
 1665 651.860759494 1665 651.860759494 1665 863 c 0,21,22
EndSplineSet
EndChar

StartChar: P
Encoding: 80 80 63
Width: 1229
Flags: HW
LayerCount: 2
Fore
SplineSet
347 1303 m 1,0,1
 551 1439 551 1439 573 1439 c 2,2,-1
 1110 1439 l 2,3,4
 1348.15384615 1439 1348.15384615 1439 1438 1293 c 0,5,6
 1470 1241 1470 1241 1470 1169 c 128,-1,7
 1470 1097 1470 1097 1447.5 1036 c 128,-1,8
 1425 975 1425 975 1387 921.5 c 128,-1,9
 1349 868 1349 868 1298.5 821.5 c 128,-1,10
 1248 775 1248 775 1191.5 735.5 c 0,11,12
 1099.84444444 671.422222222 1099.84444444 671.422222222 993.922222222 619.211111111 c 0,13,14
 806.850819323 527 806.850819323 527 647 527 c 0,15,16
 620 527 620 527 592 529 c 1,17,18
 553.842610365 365.468330134 553.842610365 365.468330134 532.921305182 314.734165067 c 0,19,20
 488.684552386 207.460039537 488.684552386 207.460039537 394 136 c 1,21,-1
 709 136 l 1,22,23
 682.578512397 129.107438017 682.578512397 129.107438017 622.789256198 83.5537190083 c 128,-1,24
 563 38 563 38 533.5 19 c 128,-1,25
 504 0 504 0 483 0 c 2,26,-1
 166 0 l 1,27,28
 247.82811362 60.3969410051 247.82811362 60.3969410051 273.91405681 102.698470503 c 0,29,30
 310.608849558 162.203539823 310.608849558 162.203539823 336 268 c 2,31,-1
 577 1303 l 1,32,-1
 347 1303 l 1,0,1
634 711 m 1,33,34
 814.769230769 664 814.769230769 664 899.884615385 664 c 128,-1,35
 985 664 985 664 1050.5 692.5 c 128,-1,36
 1116 721 1116 721 1159.5 772 c 0,37,38
 1247 874.586206897 1247 874.586206897 1247 1042 c 0,39,40
 1247 1303 1247 1303 815 1303 c 2,41,-1
 772 1303 l 1,42,-1
 634 711 l 1,33,34
EndSplineSet
EndChar

StartChar: Q
Encoding: 81 81 64
Width: 1759
Flags: HW
LayerCount: 2
Fore
SplineSet
1118 33 m 1,0,1
 956 -41 956 -41 774 -41 c 0,2,3
 529.621848739 -41 529.621848739 -41 382.5 76.5 c 0,4,5
 222 204.684563758 222 204.684563758 222 442 c 0,6,7
 222 708.18902439 222 708.18902439 399 957.5 c 0,8,9
 564.61147504 1190.76982155 564.61147504 1190.76982155 827 1335.5 c 0,10,11
 1094.41007194 1483 1094.41007194 1483 1356 1483 c 0,12,13
 1584.375 1483 1584.375 1483 1737 1351 c 0,14,15
 1897 1212.62162162 1897 1212.62162162 1897 987 c 0,16,17
 1897 750.846153846 1897 750.846153846 1723 515.5 c 0,18,19
 1576.61081893 317.499248685 1576.61081893 317.499248685 1349 165 c 1,20,21
 1415 111 1415 111 1484 53.5 c 128,-1,22
 1553 -4 1553 -4 1627.5 -51 c 0,23,24
 1797.10638298 -158 1797.10638298 -158 1956 -158 c 0,25,26
 2032.875 -158 2032.875 -158 2191 -103 c 1,27,28
 2034.15533981 -231.961165049 2034.15533981 -231.961165049 1846 -279 c 0,29,30
 1782 -295 1782 -295 1715.5 -295 c 0,31,32
 1589.68421053 -295 1589.68421053 -295 1478.84210526 -229.5 c 128,-1,33
 1368 -164 1368 -164 1284 -98.5 c 128,-1,34
 1200 -33 1200 -33 1118 33 c 1,0,1
1669 866.5 m 0,35,36
 1669 973 1669 973 1626 1065 c 128,-1,37
 1583 1157 1583 1157 1508 1218.5 c 0,38,39
 1356.17073171 1343 1356.17073171 1343 1119 1343 c 0,40,41
 804.674641148 1343 804.674641148 1343 621 1114.5 c 0,42,43
 451 903.011904762 451 903.011904762 451 586 c 0,44,45
 451 345.810810811 451 345.810810811 609 214.5 c 0,46,47
 757.601626016 91 757.601626016 91 1002 91 c 0,48,49
 1195.40740741 91 1195.40740741 91 1353 206 c 0,50,51
 1498.46249072 312.148304036 1498.46249072 312.148304036 1585 490.5 c 0,52,53
 1669 663.62195122 1669 663.62195122 1669 866.5 c 0,35,36
EndSplineSet
EndChar

StartChar: R
Encoding: 82 82 65
Width: 1444
Flags: HW
LayerCount: 2
Fore
SplineSet
1067 1439 m 2,0,1
 1468 1439 1468 1439 1468 1210 c 0,2,3
 1468 992.669724771 1468 992.669724771 1194.5 809.5 c 0,4,5
 1095.16603774 742.973584906 1095.16603774 742.973584906 977 692 c 1,6,7
 1029.13844252 669.406674907 1029.13844252 669.406674907 1058.56922126 635.203337454 c 128,-1,8
 1088 601 1088 601 1104 577 c 128,-1,9
 1120 553 1120 553 1137 528 c 2,10,-1
 1331 240 l 2,11,12
 1343 223 1343 223 1355.5 204 c 128,-1,13
 1368 185 1368 185 1383 169 c 0,14,15
 1416.75 133 1416.75 133 1448.875 133 c 0,16,17
 1500.81818182 133 1500.81818182 133 1559 165 c 1,18,19
 1455.13071895 50.7437908497 1455.13071895 50.7437908497 1313.5 9 c 0,20,21
 1266 -5 1266 -5 1234 -5 c 128,-1,22
 1202 -5 1202 -5 1188.5 2 c 128,-1,23
 1175 9 1175 9 1164 20.5 c 128,-1,24
 1153 32 1153 32 1144.5 45.5 c 128,-1,25
 1136 59 1136 59 1127 72 c 2,26,-1
 928 367 l 2,27,28
 890 423 890 423 862 465 c 128,-1,29
 834 507 834 507 801 535 c 0,30,31
 736.178571429 590 736.178571429 590 602 590 c 1,32,-1
 555 388 l 2,33,34
 531.166666667 288.333333333 531.166666667 288.333333333 515.083333333 256.166666667 c 0,35,36
 487.741935484 201.483870968 487.741935484 201.483870968 426 136 c 1,37,-1
 746 136 l 1,38,39
 726.821368948 132.404006678 726.821368948 132.404006678 664.910684474 86.2020033389 c 0,40,41
 549.4 4.26325641456e-14 549.4 4.26325641456e-14 520 0 c 2,42,-1
 191 0 l 1,43,44
 290.873910517 86.0981987217 290.873910517 86.0981987217 326 239 c 2,45,-1
 574 1303 l 1,46,-1
 358 1303 l 1,47,48
 562 1439 562 1439 584 1439 c 2,49,-1
 1067 1439 l 2,0,1
1169 856.5 m 128,-1,51
 1212 908 1212 908 1226 969.5 c 128,-1,52
 1240 1031 1240 1031 1240 1071 c 128,-1,53
 1240 1111 1240 1111 1224.5 1147 c 128,-1,54
 1209 1183 1209 1183 1183 1209.5 c 128,-1,55
 1157 1236 1157 1236 1122.5 1254 c 128,-1,56
 1088 1272 1088 1272 1049.5 1283 c 0,57,58
 979.5 1303 979.5 1303 892 1303 c 2,59,-1
 768 1303 l 1,60,-1
 635 730 l 1,61,-1
 791 730 l 2,62,63
 972.052631579 730 972.052631579 730 1067.5 776.5 c 0,64,50
 1126 805 1126 805 1169 856.5 c 128,-1,51
EndSplineSet
EndChar

StartChar: S
Encoding: 83 83 66
Width: 1162
Flags: HW
LayerCount: 2
Fore
SplineSet
370 319 m 1,0,1
 323 279.833333333 323 279.833333333 323 245.416666667 c 128,-1,2
 323 211 323 211 341 192 c 128,-1,3
 359 173 359 173 387.5 159.5 c 128,-1,4
 416 146 416 146 451 137 c 128,-1,5
 486 128 486 128 520.5 123 c 0,6,7
 582.6 114 582.6 114 643.8 114 c 128,-1,8
 705 114 705 114 771.5 130.5 c 128,-1,9
 838 147 838 147 890 182.5 c 0,10,11
 1004 260.326923077 1004 260.326923077 1004 410 c 0,12,13
 1004 557.5 1004 557.5 801 638 c 0,14,15
 743 661 743 661 683 681.5 c 128,-1,16
 623 702 623 702 565 724.5 c 128,-1,17
 507 747 507 747 462 776 c 0,18,19
 362 840.444444444 362 840.444444444 362 942 c 0,20,21
 362 1066.86466165 362 1066.86466165 510.5 1197.5 c 0,22,23
 637.360655738 1309.09922347 637.360655738 1309.09922347 829.5 1390 c 0,24,25
 1012.375 1467 1012.375 1467 1129 1467 c 0,26,27
 1221.71428571 1467 1221.71428571 1467 1276.35714286 1450 c 128,-1,28
 1331 1433 1331 1433 1345 1423 c 128,-1,29
 1359 1413 1359 1413 1359 1401 c 128,-1,30
 1359 1389 1359 1389 1341.5 1372 c 128,-1,31
 1324 1355 1324 1355 1297 1335 c 128,-1,32
 1270 1315 1270 1315 1237.5 1294 c 128,-1,33
 1205 1273 1205 1273 1174 1255.5 c 0,34,35
 1099.10218978 1213.2189781 1099.10218978 1213.2189781 1082 1207 c 1,36,37
 1128 1237.66666667 1128 1237.66666667 1128 1260.83333333 c 128,-1,38
 1128 1284 1128 1284 1099.5 1297 c 128,-1,39
 1071 1310 1071 1310 1034 1317.5 c 0,40,41
 972.333333333 1330 972.333333333 1330 910.166666667 1330 c 128,-1,42
 848 1330 848 1330 790 1318 c 128,-1,43
 732 1306 732 1306 687.5 1277 c 0,44,45
 589 1212.80898876 589 1212.80898876 589 1080 c 0,46,47
 589 929.789473684 589 929.789473684 790 857.5 c 0,48,49
 847 837 847 837 906.5 818.5 c 128,-1,50
 966 800 966 800 1023 779.5 c 128,-1,51
 1080 759 1080 759 1124.5 729 c 0,52,53
 1224 661.921348315 1224 661.921348315 1224 564.460674157 c 128,-1,54
 1224 467 1224 467 1183 391 c 128,-1,55
 1142 315 1142 315 1074 250.5 c 128,-1,56
 1006 186 1006 186 919 135 c 128,-1,57
 832 84 832 84 740 49 c 0,58,59
 548.114285714 -24 548.114285714 -24 395 -24 c 0,60,61
 317.368421053 -24 317.368421053 -24 250.184210526 -5.5 c 128,-1,62
 183 13 183 13 155 27.5 c 0,63,64
 92 60.125 92 60.125 92 103 c 0,65,66
 92 188.176470588 92 188.176470588 370 319 c 1,0,1
EndSplineSet
EndChar

StartChar: T
Encoding: 84 84 67
Width: 1244
Flags: HW
LayerCount: 2
Fore
SplineSet
300 1303 m 1,0,1
 504 1439 504 1439 526 1439 c 2,2,-1
 1654 1439 l 1,3,4
 1637.7804878 1435.75609756 1637.7804878 1435.75609756 1579.8902439 1393.87804878 c 128,-1,5
 1522 1352 1522 1352 1500 1337 c 0,6,7
 1450.13333333 1303 1450.13333333 1303 1428 1303 c 2,8,-1
 1018 1303 l 1,9,-1
 805 388 l 1,10,11
 774.372881356 265.491525424 774.372881356 265.491525424 714.5 183 c 0,12,13
 692 152 692 152 665 136 c 1,14,-1
 995 136 l 1,15,16
 976.09375 132.21875 976.09375 132.21875 919.546875 90.109375 c 128,-1,17
 863 48 863 48 841 33.5 c 0,18,19
 790.172413793 -4.97379915032e-14 790.172413793 -4.97379915032e-14 769 0 c 2,20,-1
 420 0 l 1,21,22
 495.130434783 56.347826087 495.130434783 56.347826087 518.565217391 93.1739130435 c 0,23,24
 556.353535354 152.555555556 556.353535354 152.555555556 576 239 c 2,25,-1
 823 1303 l 1,26,-1
 300 1303 l 1,0,1
EndSplineSet
EndChar

StartChar: U
Encoding: 85 85 68
Width: 1739
Flags: HW
LayerCount: 2
Fore
SplineSet
2084 1440 m 1,0,1
 2054.72151899 1430.24050633 2054.72151899 1430.24050633 1995.86075949 1385.62025316 c 128,-1,2
 1937 1341 1937 1341 1908 1322.5 c 128,-1,3
 1879 1304 1879 1304 1858 1304 c 2,4,-1
 1784 1304 l 1,5,-1
 1571 389 l 1,6,7
 1528.46835443 218.873417722 1528.46835443 218.873417722 1431 137 c 1,8,-1
 1761 137 l 1,9,10
 1731.72151899 127.240506329 1731.72151899 127.240506329 1672.86075949 82.6202531646 c 128,-1,11
 1614 38 1614 38 1585 19.5 c 128,-1,12
 1556 1 1556 1 1535 1 c 2,13,-1
 1206 1 l 1,14,15
 1289.24468085 90.9042553191 1289.24468085 90.9042553191 1308.12234043 134.95212766 c 128,-1,16
 1327 179 1327 179 1336 215 c 1,17,18
 1150.33514417 102.095695779 1150.33514417 102.095695779 1044.66757209 58.5478478897 c 0,19,20
 837.088235294 -27 837.088235294 -27 677 -27 c 0,21,22
 419.405172414 -27 419.405172414 -27 349.5 132 c 0,23,24
 324 190 324 190 324 258.5 c 0,25,26
 324 358.181818182 324 358.181818182 350 474 c 2,27,-1
 543 1304 l 1,28,-1
 375 1304 l 1,29,30
 384 1310 384 1310 402 1322.5 c 128,-1,31
 420 1335 420 1335 442.5 1350 c 128,-1,32
 465 1365 465 1365 489.5 1381 c 128,-1,33
 514 1397 514 1397 536 1410 c 0,34,35
 586.769230769 1440 586.769230769 1440 601 1440 c 2,36,-1
 1017 1440 l 1,37,38
 987.721518987 1430.24050633 987.721518987 1430.24050633 928.860759494 1385.62025316 c 128,-1,39
 870 1341 870 1341 841 1322.5 c 128,-1,40
 812 1304 812 1304 791 1304 c 2,41,-1
 738 1304 l 1,42,-1
 558 531 l 2,43,44
 543 466.714285714 543 466.714285714 543 396.357142857 c 128,-1,45
 543 326 543 326 573 269.5 c 128,-1,46
 603 213 603 213 653 177.5 c 0,47,48
 746.661971831 111 746.661971831 111 910 111 c 0,49,50
 1059.35294118 111 1059.35294118 111 1248.5 199.5 c 0,51,52
 1303 225 1303 225 1344 251 c 1,53,-1
 1589 1304 l 1,54,-1
 1402 1304 l 1,55,56
 1411 1310 1411 1310 1429 1322.5 c 128,-1,57
 1447 1335 1447 1335 1469.5 1350 c 128,-1,58
 1492 1365 1492 1365 1516.5 1381 c 128,-1,59
 1541 1397 1541 1397 1563 1410 c 0,60,61
 1613.76923077 1440 1613.76923077 1440 1628 1440 c 2,62,-1
 2084 1440 l 1,0,1
EndSplineSet
EndChar

StartChar: V
Encoding: 86 86 69
Width: 1458
Flags: HW
LayerCount: 2
Fore
SplineSet
1594 1450 m 0,0,1
 1700 1450 1700 1450 1700 1352 c 0,2,3
 1700 1103.75 1700 1103.75 1008 282 c 0,4,5
 963 228 963 228 919.5 173.5 c 128,-1,6
 876 119 876 119 838 86.5 c 128,-1,7
 800 54 800 54 770 38 c 128,-1,8
 740 22 740 22 709.5 7 c 0,9,10
 628.584973166 -32.7942754919 628.584973166 -32.7942754919 601 -59 c 1,11,12
 600 -16 600 -16 600 222.5 c 128,-1,13
 600 461 600 461 593 639.5 c 128,-1,14
 586 818 586 818 569 921 c 128,-1,15
 552 1024 552 1024 546.5 1058 c 128,-1,16
 541 1092 541 1092 531.5 1127.5 c 128,-1,17
 522 1163 522 1163 508.5 1197 c 128,-1,18
 495 1231 495 1231 475 1257.5 c 0,19,20
 430.094339623 1317 430.094339623 1317 365 1317 c 0,21,22
 332.076923077 1317 332.076923077 1317 307.538461538 1306 c 2,23,-1
 268.5 1288.5 l 2,24,25
 254 1282 254 1282 236 1278 c 1,26,27
 480.75 1456 480.75 1456 603 1456 c 0,28,29
 689.428571429 1456 689.428571429 1456 735.5 1328.5 c 0,30,31
 831.822225817 1061.93384018 831.822225817 1061.93384018 826.5 311.5 c 0,32,33
 826 241 826 241 826 195 c 1,34,35
 856 232 856 232 900 285 c 128,-1,36
 944 338 944 338 995 402 c 128,-1,37
 1046 466 1046 466 1101.5 538.5 c 128,-1,38
 1157 611 1157 611 1210 686 c 128,-1,39
 1263 761 1263 761 1310.5 835.5 c 128,-1,40
 1358 910 1358 910 1394 978 c 0,41,42
 1472 1125.33333333 1472 1125.33333333 1472 1210 c 0,43,44
 1472 1316 1472 1316 1372 1316 c 0,45,46
 1337 1316 1337 1316 1298 1303 c 1,47,48
 1341 1319 1341 1319 1373 1344 c 128,-1,49
 1405 1369 1405 1369 1436.5 1392.5 c 0,50,51
 1513.57446809 1450 1513.57446809 1450 1594 1450 c 0,0,1
EndSplineSet
EndChar

StartChar: W
Encoding: 87 87 70
Width: 2160
Flags: HW
LayerCount: 2
Fore
SplineSet
1237 1302 m 1,0,1
 1344.16 1365.92 1344.16 1365.92 1459 1439 c 1,2,3
 1570.49958644 1337.19602978 1570.49958644 1337.19602978 1610 522.5 c 0,4,5
 1615.20863309 415.071942446 1615.20863309 415.071942446 1619 271 c 1,6,7
 1655 325 1655 325 1758.5 473.5 c 128,-1,8
 1862 622 1862 622 1922 710 c 128,-1,9
 1982 798 1982 798 2033 879.5 c 0,10,11
 2147.87953556 1063.0820029 2147.87953556 1063.0820029 2166 1141 c 0,12,13
 2173 1169 2173 1169 2173 1197 c 128,-1,14
 2173 1225 2173 1225 2168 1247 c 128,-1,15
 2163 1269 2163 1269 2151.5 1286.5 c 0,16,17
 2126.2 1325 2126.2 1325 2075 1325 c 0,18,19
 2036.125 1325 2036.125 1325 2000 1308 c 1,20,21
 2035 1324 2035 1324 2070.5 1350 c 128,-1,22
 2106 1376 2106 1376 2142 1400 c 0,23,24
 2230.5 1459 2230.5 1459 2289.25 1459 c 128,-1,25
 2348 1459 2348 1459 2376 1424.5 c 128,-1,26
 2404 1390 2404 1390 2404 1339 c 0,27,28
 2404 1290.25490196 2404 1290.25490196 2372 1225.62745098 c 128,-1,29
 2340 1161 2340 1161 2302 1096.5 c 128,-1,30
 2264 1032 2264 1032 2217 958 c 128,-1,31
 2170 884 2170 884 2119.5 807.5 c 128,-1,32
 2069 731 2069 731 2017.5 656 c 128,-1,33
 1966 581 1966 581 1920.5 514.5 c 128,-1,34
 1875 448 1875 448 1837 393.5 c 128,-1,35
 1799 339 1799 339 1778.5 308 c 128,-1,36
 1758 277 1758 277 1740.5 248.5 c 128,-1,37
 1723 220 1723 220 1704.5 191.5 c 0,38,39
 1661.95 125.95 1661.95 125.95 1636.975 100.975 c 128,-1,40
 1612 76 1612 76 1582 57.5 c 128,-1,41
 1552 39 1552 39 1516.5 18.5 c 128,-1,42
 1481 -2 1481 -2 1447.5 -20.5 c 128,-1,43
 1414 -39 1414 -39 1397 -49 c 1,44,45
 1394 68 1394 68 1392 185 c 128,-1,46
 1390 302 1390 302 1385.5 418.5 c 0,47,48
 1375.11177347 687.439642325 1375.11177347 687.439642325 1348 884 c 1,49,50
 1255 729 1255 729 1154 581.5 c 128,-1,51
 1053 434 1053 434 985.5 334.5 c 128,-1,52
 918 235 918 235 884.5 182.5 c 128,-1,53
 851 130 851 130 824.5 103.5 c 128,-1,54
 798 77 798 77 768 58 c 128,-1,55
 738 39 738 39 702.5 19 c 0,56,57
 610.2 -33 610.2 -33 583 -49 c 1,58,-1
 583 -29 l 1,59,-1
 585 288 l 1,60,-1
 585 380 l 2,61,62
 585 1113.12676056 585 1113.12676056 427.5 1279.5 c 0,63,64
 392 1317 392 1317 353.5 1317 c 0,65,66
 290.285714286 1317 290.285714286 1317 229 1284 c 1,67,68
 343.947368421 1382.52631579 343.947368421 1382.52631579 496.5 1438 c 0,69,70
 546 1456 546 1456 579 1456 c 128,-1,71
 612 1456 612 1456 628.5 1447.5 c 128,-1,72
 645 1439 645 1439 669 1415 c 128,-1,73
 693 1391 693 1391 713.5 1336 c 128,-1,74
 734 1281 734 1281 749.5 1208 c 128,-1,75
 765 1135 765 1135 775 1049 c 128,-1,76
 785 963 785 963 791.5 873 c 128,-1,77
 798 783 798 783 801 693.5 c 128,-1,78
 804 604 804 604 805.5 524 c 128,-1,79
 807 444 807 444 807 378 c 2,80,-1
 807 269 l 1,81,82
 842 321 842 321 890.5 390.5 c 128,-1,83
 939 460 939 460 991.5 539.5 c 128,-1,84
 1044 619 1044 619 1096 704.5 c 128,-1,85
 1148 790 1148 790 1189 872.5 c 0,86,87
 1281 1057.62195122 1281 1057.62195122 1281 1153.22764228 c 128,-1,88
 1281 1248.83333333 1281 1248.83333333 1237 1302 c 1,0,1
EndSplineSet
EndChar

StartChar: X
Encoding: 88 88 71
Width: 1632
Flags: HW
LayerCount: 2
Fore
SplineSet
1640 1304 m 1,0,1
 1472.56329114 1148.15506329 1472.56329114 1148.15506329 1110 837 c 1,2,3
 1146.66666667 753.666666667 1146.66666667 753.666666667 1240.33333333 566.333333333 c 128,-1,4
 1334 379 1334 379 1371 309.5 c 0,5,6
 1456.45391304 148.985217391 1456.45391304 148.985217391 1475.22695652 137.492608696 c 0,7,8
 1515.23534975 113 1515.23534975 113 1537.61767488 113 c 128,-1,9
 1560 113 1560 113 1579 118.5 c 128,-1,10
 1598 124 1598 124 1618 131.5 c 128,-1,11
 1638 139 1638 139 1657 147.5 c 128,-1,12
 1676 156 1676 156 1688 161 c 1,13,14
 1552.05139186 46.9785867238 1552.05139186 46.9785867238 1421 -2.5 c 0,15,16
 1372 -21 1372 -21 1338 -21 c 128,-1,17
 1304 -21 1304 -21 1284 -13 c 128,-1,18
 1264 -5 1264 -5 1248 8.5 c 0,19,20
 1197.99061711 50.695416817 1197.99061711 50.695416817 1084.99530855 283.847708409 c 128,-1,21
 972 517 972 517 902 665 c 1,22,-1
 247 137 l 1,23,-1
 608 137 l 1,24,25
 587 128 587 128 555.5 105 c 128,-1,26
 524 82 524 82 491.5 59 c 0,27,28
 408.130434783 -7.1054273576e-15 408.130434783 -7.1054273576e-15 382 0 c 2,29,-1
 14 0 l 1,30,-1
 885 699 l 1,31,32
 807 855 807 855 732.5 1001.5 c 128,-1,33
 658 1148 658 1148 642.5 1182.5 c 128,-1,34
 627 1217 627 1217 606.5 1247.5 c 0,35,36
 558.442622951 1319 558.442622951 1319 493 1319 c 0,37,38
 431.428571429 1319 431.428571429 1319 359 1280 c 1,39,40
 497.523489933 1388.22147651 497.523489933 1388.22147651 637.5 1439.5 c 0,41,42
 688 1458 688 1458 723.5 1458 c 128,-1,43
 759 1458 759 1458 780 1444 c 128,-1,44
 801 1430 801 1430 816.5 1409 c 128,-1,45
 832 1388 832 1388 843.5 1362.5 c 128,-1,46
 855 1337 855 1337 889.5 1271 c 0,47,48
 981.240601504 1095.4962406 981.240601504 1095.4962406 1090 876 c 1,49,50
 1405.47991071 1175.02008929 1405.47991071 1175.02008929 1557 1304 c 1,51,-1
 1312 1304 l 1,52,53
 1338.74660633 1312.14027149 1338.74660633 1312.14027149 1398.37330317 1357.57013575 c 128,-1,54
 1458 1403 1458 1403 1487.5 1421.5 c 128,-1,55
 1517 1440 1517 1440 1538 1440 c 2,56,-1
 1994 1440 l 1,57,58
 1965.58823529 1431.35294118 1965.58823529 1431.35294118 1906.29411765 1386.17647059 c 128,-1,59
 1847 1341 1847 1341 1818 1322.5 c 128,-1,60
 1789 1304 1789 1304 1768 1304 c 2,61,-1
 1640 1304 l 1,0,1
EndSplineSet
EndChar

StartChar: Y
Encoding: 89 89 72
Width: 1255
Flags: HW
LayerCount: 2
Fore
SplineSet
905 623 m 1,0,1
 843.13253012 342.534136546 843.13253012 342.534136546 827.56626506 304.267068273 c 128,-1,2
 812 266 812 266 796.5 237 c 0,3,4
 764.925925926 177.925925926 764.925925926 177.925925926 722 135 c 1,5,-1
 1043 135 l 1,6,7
 1024.22477876 130.582300885 1024.22477876 130.582300885 961.612389381 84.7911504425 c 0,8,9
 845.673469388 -2.13162820728e-14 845.673469388 -2.13162820728e-14 817 0 c 2,10,-1
 468 0 l 1,11,12
 536.503688093 58.124341412 536.503688093 58.124341412 563.251844046 101.062170706 c 0,13,14
 608.703125 174.0234375 608.703125 174.0234375 628 257 c 2,15,-1
 687 510 l 2,16,17
 692 535 692 535 692 580.5 c 0,18,19
 692 736.857142857 692 736.857142857 605 987.5 c 0,20,21
 524.204386374 1220.26831545 524.204386374 1220.26831545 427.5 1301.5 c 0,22,23
 390 1333 390 1333 362 1333 c 128,-1,24
 334 1333 334 1333 315.5 1328.5 c 128,-1,25
 297 1324 297 1324 279 1317 c 0,26,27
 250.811320755 1306.03773585 250.811320755 1306.03773585 215 1284 c 1,28,29
 331.09645464 1396.35140772 331.09645464 1396.35140772 472.5 1443 c 0,30,31
 521 1459 521 1459 565.5 1459 c 0,32,33
 645.972972973 1459 645.972972973 1459 698 1382 c 1,34,35
 805.49569378 1216.62200957 805.49569378 1216.62200957 873.5 923.5 c 0,36,37
 902.628318584 797.946902655 902.628318584 797.946902655 909 696 c 1,38,39
 1183.75390891 960.577838205 1183.75390891 960.577838205 1262 1142.5 c 0,40,41
 1282 1189 1282 1189 1282 1232 c 128,-1,42
 1282 1275 1282 1275 1255 1301.5 c 128,-1,43
 1228 1328 1228 1328 1188.5 1328 c 128,-1,44
 1149 1328 1149 1328 1124 1321 c 1,45,46
 1155 1330 1155 1330 1184.5 1353 c 128,-1,47
 1214 1376 1214 1376 1246.5 1401 c 0,48,49
 1328.4 1464 1328.4 1464 1387.2 1464 c 0,50,51
 1509 1464 1509 1464 1509 1368 c 0,52,53
 1509 1201.68376068 1509 1201.68376068 998.5 713 c 0,54,55
 940 657 940 657 905 623 c 1,0,1
EndSplineSet
EndChar

StartChar: Z
Encoding: 90 90 73
Width: 1248
Flags: HW
LayerCount: 2
Fore
SplineSet
753 1446 m 1,0,-1
 1296 1430 l 1,1,2
 1403 1430 1403 1430 1475 1438 c 1,3,4
 1401 1383 1401 1383 1340 1313.5 c 128,-1,5
 1279 1244 1279 1244 1205 1159 c 128,-1,6
 1131 1074 1131 1074 1045 973.5 c 128,-1,7
 959 873 959 873 878 779 c 128,-1,8
 797 685 797 685 722 598 c 128,-1,9
 647 511 647 511 568 428 c 0,10,11
 389.608964451 240.576506955 389.608964451 240.576506955 225 125 c 1,12,13
 423.545454545 149 423.545454545 149 589 149 c 1,14,15
 1070 135 l 1,16,17
 1144 135 1144 135 1274 187 c 1,18,19
 1149.18123238 65.7474828836 1149.18123238 65.7474828836 989.5 16.5 c 0,20,21
 936 0 936 0 886 0 c 2,22,-1
 11 0 l 1,23,24
 246.090112298 170.06518762 246.090112298 170.06518762 577 555.5 c 0,25,26
 785.431034483 798.274784483 785.431034483 798.274784483 872.715517241 903.137392241 c 128,-1,27
 960 1008 960 1008 1022.5 1078 c 128,-1,28
 1085 1148 1085 1148 1136.5 1202.5 c 128,-1,29
 1188 1257 1188 1257 1247 1302 c 1,30,31
 1175 1294 1175 1294 1070 1294 c 1,32,-1
 590 1310 l 1,33,34
 483 1310 483 1310 411 1302 c 1,35,36
 592.555555556 1430.15686275 592.555555556 1430.15686275 629.277777778 1437.07843137 c 0,37,38
 676.61095373 1446 676.61095373 1446 753 1446 c 1,0,-1
EndSplineSet
EndChar

StartChar: bracketleft
Encoding: 91 91 74
Width: 708
Flags: HW
LayerCount: 2
Fore
SplineSet
679 -176 m 1,0,1
 475 -312 475 -312 453 -312 c 2,2,-1
 35 -312 l 1,3,4
 131.645812311 -236.495459132 131.645812311 -236.495459132 177 -45 c 2,5,-1
 551 1564 l 1,6,7
 555.294776119 1589.76865672 555.294776119 1589.76865672 706.5 1670 c 0,8,9
 763.038461538 1700 763.038461538 1700 777 1700 c 2,10,-1
 1135 1700 l 1,11,12
 1118.7804878 1696.75609756 1118.7804878 1696.75609756 1060.8902439 1654.87804878 c 128,-1,13
 1003 1613 1003 1613 981 1598 c 0,14,15
 931.133333333 1564 931.133333333 1564 909 1564 c 2,16,-1
 746 1564 l 1,17,-1
 379 -14 l 2,18,19
 364.956112853 -78.6018808777 364.956112853 -78.6018808777 303 -144 c 0,20,21
 285 -163 285 -163 266 -176 c 1,22,-1
 679 -176 l 1,0,1
EndSplineSet
EndChar

StartChar: backslash
Encoding: 92 92 75
Width: 979
Flags: HW
LayerCount: 2
Fore
SplineSet
724 0 m 1,0,1
 497.780727565 609.641768089 497.780727565 609.641768089 434 1303 c 1,2,3
 492 1335 492 1335 547 1371 c 128,-1,4
 602 1407 602 1407 660 1439 c 1,5,6
 720.724559511 775.88781014 720.724559511 775.88781014 909.5 251 c 0,7,8
 930 194 930 194 950 136 c 1,9,10
 928 122 928 122 898.5 102 c 128,-1,11
 869 82 869 82 837.5 62 c 0,12,13
 761.095744681 13.4893617021 761.095744681 13.4893617021 724 0 c 1,0,1
EndSplineSet
EndChar

StartChar: bracketright
Encoding: 93 93 76
Width: 710
Flags: HW
LayerCount: 2
Fore
SplineSet
379 1564 m 1,0,1
 583 1700 583 1700 605 1700 c 2,2,-1
 1023 1700 l 1,3,4
 915.018823529 1584.30588235 915.018823529 1584.30588235 883 1442 c 1,5,-1
 507 -176 l 1,6,7
 497.487603306 -204.537190083 497.487603306 -204.537190083 351.5 -282 c 0,8,9
 294.961538462 -312 294.961538462 -312 281 -312 c 2,10,-1
 -77 -312 l 1,11,12
 -54.8294573643 -307.565891473 -54.8294573643 -307.565891473 0.0852713178295 -265.782945736 c 128,-1,13
 55 -224 55 -224 77 -209.5 c 0,14,15
 127.827586207 -176 127.827586207 -176 149 -176 c 2,16,-1
 312 -176 l 1,17,-1
 679 1402 l 2,18,19
 692.348314607 1462.06741573 692.348314607 1462.06741573 787 1564 c 1,20,-1
 379 1564 l 1,0,1
EndSplineSet
EndChar

StartChar: asciicircum
Encoding: 94 94 77
Width: 696
Flags: HW
LayerCount: 2
Fore
SplineSet
696 874 m 2,0,1
 698.582338902 855.923627685 698.582338902 855.923627685 594 805.5 c 0,2,3
 481.269565217 751.147826087 481.269565217 751.147826087 470 738 c 1,4,-1
 401 1123 l 1,5,-1
 226 874 l 2,6,7
 206.408163265 844.612244898 206.408163265 844.612244898 141.204081633 814.306122449 c 128,-1,8
 76 784 76 784 44.5 768.5 c 128,-1,9
 13 753 13 753 0 738 c 1,10,-1
 374 1272 l 1,11,12
 382.063583815 1285.43930636 382.063583815 1285.43930636 443.531791908 1319.71965318 c 128,-1,13
 505 1354 505 1354 528.5 1367.5 c 0,14,15
 569.625 1391.125 569.625 1391.125 600 1408 c 1,16,-1
 696 874 l 2,0,1
EndSplineSet
EndChar

StartChar: underscore
Encoding: 95 95 78
Width: 996
Flags: HW
LayerCount: 2
Fore
SplineSet
900 -200 m 1,0,1
 883.780487805 -203.243902439 883.780487805 -203.243902439 825.890243902 -245.12195122 c 128,-1,2
 768 -287 768 -287 746 -302 c 0,3,4
 696.133333333 -336 696.133333333 -336 674 -336 c 2,5,-1
 -48 -336 l 1,6,7
 -32.3538461538 -334.261538462 -32.3538461538 -334.261538462 25.3230769231 -291.630769231 c 128,-1,8
 83 -249 83 -249 105 -234 c 0,9,10
 154.866666667 -200 154.866666667 -200 178 -200 c 2,11,-1
 900 -200 l 1,0,1
EndSplineSet
EndChar

StartChar: grave
Encoding: 96 96 79
Width: 452
Flags: HW
LayerCount: 2
Fore
SplineSet
452 1390 m 1,0,1
 442 1384 442 1384 424 1371.5 c 128,-1,2
 406 1359 406 1359 383.5 1344 c 128,-1,3
 361 1329 361 1329 336.5 1313.5 c 128,-1,4
 312 1298 312 1298 290 1285 c 0,5,6
 240.634146341 1255.82926829 240.634146341 1255.82926829 226 1254 c 1,7,8
 140 1312 140 1312 88 1393.5 c 128,-1,9
 36 1475 36 1475 0 1570 c 1,10,11
 8.2 1586.4 8.2 1586.4 97.1 1637.2 c 0,12,13
 217.5 1706 217.5 1706 224.25 1706 c 128,-1,14
 231 1706 231 1706 230.5 1700 c 128,-1,15
 230 1694 230 1694 234 1681.5 c 0,16,17
 241.214953271 1658.95327103 241.214953271 1658.95327103 271.607476636 1599.97663551 c 0,18,19
 343.456858961 1460.55304168 343.456858961 1460.55304168 452 1390 c 1,0,1
EndSplineSet
EndChar

StartChar: a
Encoding: 97 97 80
Width: 1115
Flags: HW
LayerCount: 2
Fore
SplineSet
428 -20 m 0,0,1
 157 -20 157 -20 157 248 c 0,2,3
 157 431.235294118 157 431.235294118 265 607 c 0,4,5
 369.104916856 776.425649001 369.104916856 776.425649001 538 882.5 c 0,6,7
 712.349514563 992 712.349514563 992 896 992 c 0,8,9
 976.666666667 992 976.666666667 992 1044.33333333 967.5 c 128,-1,10
 1112 943 1112 943 1145 933 c 1,11,-1
 992 277 l 1,12,13
 981 224.75 981 224.75 981 199 c 0,14,15
 981 120 981 120 1077 120 c 0,16,17
 1108 120 1108 120 1137 126 c 1,18,19
 1106 105 1106 105 1072 80 c 128,-1,20
 1038 55 1038 55 1001.5 34 c 0,21,22
 914.595238095 -16 914.595238095 -16 849 -16 c 0,23,24
 777.379310345 -16 777.379310345 -16 758.5 20.5 c 0,25,26
 751 35 751 35 751 56 c 0,27,28
 751 88.8 751 88.8 763 132 c 1,29,30
 726 108 726 108 686.5 81.5 c 128,-1,31
 647 55 647 55 605 32.5 c 0,32,33
 507 -20 507 -20 428 -20 c 0,0,1
375 347 m 0,34,35
 375 115 375 115 611 115 c 0,36,37
 649.285714286 115 649.285714286 115 693.642857143 138 c 0,38,39
 774.203160271 179.772009029 774.203160271 179.772009029 784 217 c 1,40,-1
 899 712 l 1,41,42
 871 787 871 787 821 822.5 c 128,-1,43
 771 858 771 858 703.5 858 c 128,-1,44
 636 858 636 858 592 832.5 c 128,-1,45
 548 807 548 807 513 765 c 128,-1,46
 478 723 478 723 452 669.5 c 128,-1,47
 426 616 426 616 409 559 c 0,48,49
 375 445 375 445 375 347 c 0,34,35
EndSplineSet
Substitution2: "Single Substitution lookup 5 subtable" ordfeminine
Substitution2: "'aalt' Access All Alternates in Latin lookup 0 subtable" ordfeminine
EndChar

StartChar: b
Encoding: 98 98 81
Width: 1126
Flags: HW
LayerCount: 2
Fore
SplineSet
540 807 m 1,0,1
 777.096774194 982 777.096774194 982 949 982 c 0,2,3
 1143.0754717 982 1143.0754717 982 1195 810 c 0,4,5
 1211 757 1211 757 1211 683.5 c 128,-1,6
 1211 610 1211 610 1180 523.5 c 128,-1,7
 1149 437 1149 437 1095.5 356 c 128,-1,8
 1042 275 1042 275 971 204.5 c 128,-1,9
 900 134 900 134 819 81.5 c 0,10,11
 643.885714286 -32 643.885714286 -32 485 -32 c 0,12,13
 368.727272727 -32 368.727272727 -32 294.5 37 c 0,14,15
 219 107.183098592 219 107.183098592 219 223 c 0,16,17
 219 264 219 264 228 303 c 2,18,-1
 459 1294 l 2,19,20
 476 1367.66666667 476 1367.66666667 476 1398 c 0,21,22
 476 1471 476 1471 409 1471 c 0,23,24
 383 1471 383 1471 323 1456 c 1,25,26
 371 1487 371 1487 424 1521.5 c 128,-1,27
 477 1556 477 1556 532 1589 c 0,28,29
 657.555555556 1664.33333333 657.555555556 1664.33333333 750 1707 c 1,30,-1
 540 807 l 1,0,1
980.5 457.5 m 128,-1,32
 988 512 988 512 988 567.5 c 128,-1,33
 988 623 988 623 973.5 675.5 c 128,-1,34
 959 728 959 728 929 766 c 0,35,36
 864.263157895 848 864.263157895 848 739 848 c 0,37,38
 652.082191781 848 652.082191781 848 578 763.5 c 0,39,40
 513.72967265 690.191657867 513.72967265 690.191657867 491 597 c 1,41,-1
 434 350 l 2,42,43
 427 323 427 323 427 282 c 128,-1,44
 427 241 427 241 446 204.5 c 128,-1,45
 465 168 465 168 496.5 143 c 0,46,47
 558.24 94 558.24 94 637.62 94 c 128,-1,48
 717 94 717 94 765 114.5 c 128,-1,49
 813 135 813 135 850 170.5 c 128,-1,50
 887 206 887 206 913 252.5 c 128,-1,51
 939 299 939 299 956 351 c 128,-1,31
 973 403 973 403 980.5 457.5 c 128,-1,32
EndSplineSet
EndChar

StartChar: c
Encoding: 99 99 82
Width: 937
Flags: HW
LayerCount: 2
Fore
SplineSet
901 774 m 1,0,1
 908.272727273 777.636363636 908.272727273 777.636363636 918.136363636 790.318181818 c 128,-1,2
 928 803 928 803 928 809 c 128,-1,3
 928 815 928 815 915.5 824 c 128,-1,4
 903 833 903 833 883.5 840.5 c 128,-1,5
 864 848 864 848 840.5 854.5 c 128,-1,6
 817 861 817 861 794.5 865 c 0,7,8
 743.875 874 743.875 874 705.9375 874 c 128,-1,9
 668 874 668 874 619.5 854 c 128,-1,10
 571 834 571 834 533 799.5 c 128,-1,11
 495 765 495 765 466.5 719 c 128,-1,12
 438 673 438 673 419.5 621.5 c 0,13,14
 383 519.891891892 383 519.891891892 383 428.445945946 c 128,-1,15
 383 337 383 337 406 282 c 128,-1,16
 429 227 429 227 470.5 191 c 0,17,18
 552.347222222 120 552.347222222 120 700 120 c 0,19,20
 819.857142857 120 819.857142857 120 942 180 c 1,21,22
 789.343020239 47.2548002076 789.343020239 47.2548002076 586 -0.5 c 0,23,24
 520 -16 520 -16 455 -16 c 128,-1,25
 390 -16 390 -16 333.5 3.5 c 128,-1,26
 277 23 277 23 237 60.5 c 0,27,28
 153 139.25 153 139.25 153 278 c 0,29,30
 153 448.393442623 153 448.393442623 286 625 c 0,31,32
 410.247681796 789.984626647 410.247681796 789.984626647 597 897 c 0,33,34
 788.960784314 1007 788.960784314 1007 953 1007 c 0,35,36
 1062.92307692 1007 1062.92307692 1007 1134 963 c 1,37,38
 1152 954 1152 954 1152 943 c 128,-1,39
 1152 932 1152 932 1136 916.5 c 128,-1,40
 1120 901 1120 901 1095.5 882.5 c 128,-1,41
 1071 864 1071 864 1041 845 c 128,-1,42
 1011 826 1011 826 983 810.5 c 0,43,44
 921.098654709 776.233183857 921.098654709 776.233183857 901 774 c 1,0,1
EndSplineSet
EndChar

StartChar: d
Encoding: 100 100 83
Width: 1173
Flags: HW
LayerCount: 2
Fore
SplineSet
1099 1397 m 0,0,1
 1099 1471 1099 1471 1034 1471 c 0,2,3
 1011 1471 1011 1471 989 1466 c 128,-1,4
 967 1461 967 1461 945 1456 c 1,5,6
 1050 1523 1050 1523 1154.5 1589 c 128,-1,7
 1259 1655 1259 1655 1372 1707 c 1,8,-1
 1039 277 l 1,9,10
 1028 235.2 1028 235.2 1028 199 c 0,11,12
 1028 120 1028 120 1124 120 c 0,13,14
 1154 120 1154 120 1184 126 c 1,15,16
 1153 105 1153 105 1119 80 c 128,-1,17
 1085 55 1085 55 1048.5 34 c 0,18,19
 961.595238095 -16 961.595238095 -16 895 -16 c 0,20,21
 824.379310345 -16 824.379310345 -16 805.5 20.5 c 0,22,23
 798 35 798 35 798 56 c 0,24,25
 798 88.8 798 88.8 810 132 c 1,26,27
 639.743882545 24.4698205546 639.743882545 24.4698205546 565.371941272 2.23491027732 c 128,-1,28
 491 -20 491 -20 445 -20 c 0,29,30
 306 -20 306 -20 231 52 c 128,-1,31
 156 124 156 124 156 264 c 0,32,33
 156 447.210526316 156 447.210526316 279 622 c 0,34,35
 392.639240506 783.487341772 392.639240506 783.487341772 576.5 887.5 c 0,36,37
 761.222222222 992 761.222222222 992 943 992 c 0,38,39
 980.25 992 980.25 992 1010 985 c 1,40,-1
 1086 1313 l 2,41,42
 1099 1365 1099 1365 1099 1397 c 0,0,1
946 712 m 1,43,44
 892.210526316 858 892.210526316 858 707 858 c 0,45,46
 543.064516129 858 543.064516129 858 455 700.5 c 0,47,48
 381 568.153846154 381 568.153846154 381 414.076923077 c 0,49,50
 381 115 381 115 657 115 c 0,51,52
 696.285714286 115 696.285714286 115 740.642857143 138 c 0,53,54
 821.203160271 179.772009029 821.203160271 179.772009029 831 217 c 1,55,-1
 946 712 l 1,43,44
EndSplineSet
EndChar

StartChar: e
Encoding: 101 101 84
Width: 869
Flags: HW
LayerCount: 2
Fore
SplineSet
948 868 m 0,0,1
 948 658.5 948 658.5 377 373 c 1,2,3
 387.08 121 387.08 121 640 121 c 0,4,5
 754.923076923 121 754.923076923 121 878 185 c 1,6,7
 736.099107347 49.4058136873 736.099107347 49.4058136873 521.5 1 c 0,8,9
 455 -14 455 -14 391.5 -14 c 128,-1,10
 328 -14 328 -14 282.5 8.5 c 128,-1,11
 237 31 237 31 208.5 69 c 0,12,13
 153 143 153 143 153 244.5 c 128,-1,14
 153 346 153 346 183.5 428.5 c 128,-1,15
 214 511 214 511 265.5 590 c 128,-1,16
 317 669 317 669 385 740 c 128,-1,17
 453 811 453 811 529.5 864 c 0,18,19
 696.933962264 980 696.933962264 980 839 980 c 0,20,21
 890 980 890 980 919 948.5 c 128,-1,22
 948 917 948 917 948 868 c 0,0,1
722 739.5 m 128,-1,24
 722 772 722 772 696.5 806 c 128,-1,25
 671 840 671 840 625 840 c 128,-1,26
 579 840 579 840 546.5 817.5 c 128,-1,27
 514 795 514 795 488 759 c 128,-1,28
 462 723 462 723 442 677.5 c 128,-1,29
 422 632 422 632 408.5 585.5 c 0,30,31
 382.930875576 497.428571429 382.930875576 497.428571429 378 421 c 1,32,33
 476.349288486 447.033635188 476.349288486 447.033635188 601 561 c 0,34,35
 674.327316486 628.04211793 674.327316486 628.04211793 698.163658243 667.521058965 c 128,-1,23
 722 707 722 707 722 739.5 c 128,-1,24
EndSplineSet
EndChar

StartChar: f
Encoding: 102 102 85
Width: 724
Flags: HW
LayerCount: 2
Fore
SplineSet
-20 -375 m 1,0,1
 -55 -399.230769231 -55 -399.230769231 -55 -425.115384615 c 0,2,3
 -55 -469.941176471 -55 -469.941176471 -5 -467 c 1,4,-1
 -3 -467 l 1,5,6
 131.753911807 -304.682788051 131.753911807 -304.682788051 206 22 c 1,7,-1
 400 857 l 1,8,-1
 274 857 l 1,9,10
 368.24 919 368.24 919 423 956 c 1,11,12
 469.376327769 1161.38088012 469.376327769 1161.38088012 499.188163885 1233.69044006 c 128,-1,13
 529 1306 529 1306 559.5 1352.5 c 128,-1,14
 590 1399 590 1399 634.5 1441 c 0,15,16
 717.360461055 1519.20537897 717.360461055 1519.20537897 889 1617 c 0,17,18
 1054 1712 1054 1712 1181 1712 c 0,19,20
 1222.7 1712 1222.7 1712 1273.85 1696.5 c 0,21,22
 1375 1665.84848485 1375 1665.84848485 1375 1635 c 0,23,24
 1375 1600.60714286 1375 1600.60714286 1205 1506.5 c 0,25,26
 1140.84251969 1470.98425197 1140.84251969 1470.98425197 1121 1469 c 1,27,28
 1148 1496 1148 1496 1148 1500 c 0,29,30
 1148 1526.77272727 1148 1526.77272727 1064 1553.5 c 0,31,32
 990.142857143 1577 990.142857143 1577 958.071428571 1577 c 0,33,34
 888.875 1577 888.875 1577 845 1564 c 1,35,36
 723.484652666 1435.47415186 723.484652666 1435.47415186 659 1141.5 c 0,37,38
 642 1064 642 1064 626 993 c 1,39,-1
 1001 993 l 1,40,41
 980.974512744 988.784107946 980.974512744 988.784107946 918.487256372 942.392053973 c 128,-1,42
 856 896 856 896 825.5 876.5 c 128,-1,43
 795 857 795 857 775 857 c 2,44,-1
 595 857 l 1,45,-1
 404 40 l 2,46,47
 372.854251012 -94.9649122807 372.854251012 -94.9649122807 280 -242.5 c 0,48,49
 125.386769805 -488.163243532 125.386769805 -488.163243532 -80 -573.5 c 0,50,51
 -151 -603 -151 -603 -215 -603 c 128,-1,52
 -279 -603 -279 -603 -279 -567 c 0,53,54
 -279 -513.379310345 -279 -513.379310345 -112 -427 c 0,55,56
 -42.4 -391 -42.4 -391 -20 -375 c 1,0,1
EndSplineSet
EndChar

StartChar: g
Encoding: 103 103 86
Width: 980
Flags: HW
LayerCount: 2
Fore
SplineSet
883 979 m 1,0,-1
 1173 972 l 1,1,2
 1223 972 1223 972 1265 993 c 1,3,4
 1250.36470588 945.435294118 1250.36470588 945.435294118 1124 885 c 0,5,6
 1077.68918919 862.851351351 1077.68918919 862.851351351 1048 856 c 1,7,8
 1059 821.166666667 1059 821.166666667 1059 760.583333333 c 128,-1,9
 1059 700 1059 700 1033.5 637.5 c 128,-1,10
 1008 575 1008 575 966.5 524 c 128,-1,11
 925 473 925 473 871.5 431.5 c 128,-1,12
 818 390 818 390 762.5 355.5 c 128,-1,13
 707 321 707 321 653.5 292 c 128,-1,14
 600 263 600 263 558.5 236.5 c 0,15,16
 466 177.43373494 466 177.43373494 466 135 c 0,17,18
 466 82.8235294118 466 82.8235294118 528 50 c 0,19,20
 562 32 562 32 614.5 11 c 128,-1,21
 667 -10 667 -10 712 -29.5 c 128,-1,22
 757 -49 757 -49 801.5 -72.5 c 128,-1,23
 846 -96 846 -96 882 -123.5 c 0,24,25
 963 -185.375 963 -185.375 963 -250 c 0,26,27
 963 -390.553719008 963 -390.553719008 664.5 -506.5 c 0,28,29
 481.884969813 -577.433110899 481.884969813 -577.433110899 308.5 -601 c 0,30,31
 257 -608 257 -608 228.5 -608 c 128,-1,32
 200 -608 200 -608 168 -605.5 c 128,-1,33
 136 -603 136 -603 99.5 -597 c 128,-1,34
 63 -591 63 -591 26 -581 c 128,-1,35
 -11 -571 -11 -571 -40.5 -555 c 0,36,37
 -107 -518.93220339 -107 -518.93220339 -107 -470.966101695 c 128,-1,38
 -107 -423 -107 -423 -83 -384 c 128,-1,39
 -59 -345 -59 -345 -20.5 -311 c 128,-1,40
 18 -277 18 -277 67 -248 c 128,-1,41
 116 -219 116 -219 165 -194 c 128,-1,42
 214 -169 214 -169 258.5 -147.5 c 128,-1,43
 303 -126 303 -126 334 -108 c 1,44,45
 274.882352941 -84.3529411765 274.882352941 -84.3529411765 250 -41.5 c 0,46,47
 241 -26 241 -26 241 -6.5 c 128,-1,48
 241 13 241 13 255 35 c 128,-1,49
 269 57 269 57 291.5 78 c 128,-1,50
 314 99 314 99 342 119 c 128,-1,51
 370 139 370 139 398 156 c 128,-1,52
 426 173 426 173 451 187.5 c 128,-1,53
 476 202 476 202 492 212 c 1,54,55
 446.5 199 446.5 199 399.75 199 c 128,-1,56
 353 199 353 199 314 217 c 128,-1,57
 275 235 275 235 248.5 266 c 0,58,59
 196 327.41509434 196 327.41509434 196 416.70754717 c 128,-1,60
 196 506 196 506 228 576.5 c 128,-1,61
 260 647 260 647 313 708 c 128,-1,62
 366 769 366 769 436 819 c 128,-1,63
 506 869 506 869 582.5 904.5 c 0,64,65
 743.042253521 979 743.042253521 979 883 979 c 1,0,-1
783 793 m 128,-1,67
 733 842 733 842 651.5 842 c 128,-1,68
 570 842 570 842 527 817.5 c 128,-1,69
 484 793 484 793 460.5 752.5 c 0,70,71
 420 682.70212766 420 682.70212766 420 563.85106383 c 0,72,73
 420 333 420 333 633 333 c 0,74,75
 727.5 333 727.5 333 785.5 449 c 0,76,77
 833 544 833 544 833 644 c 128,-1,66
 833 744 833 744 783 793 c 128,-1,67
495 -471 m 0,78,79
 742 -471 742 -471 742 -343 c 0,80,81
 742 -245.056338028 742 -245.056338028 428.5 -143.5 c 0,82,83
 393 -132 393 -132 373 -124 c 1,84,85
 122 -224.4 122 -224.4 122 -338 c 0,86,87
 122 -394.385542169 122 -394.385542169 371.5 -451.5 c 0,88,89
 456.684210526 -471 456.684210526 -471 495 -471 c 0,78,79
EndSplineSet
EndChar

StartChar: h
Encoding: 104 104 87
Width: 1124
Flags: HW
LayerCount: 2
Fore
SplineSet
488 1413 m 0,0,1
 488 1486 488 1486 428 1486 c 0,2,3
 388.666666667 1486 388.666666667 1486 335 1472 c 1,4,5
 476.183450429 1565.66978923 476.183450429 1565.66978923 762 1723 c 1,6,-1
 549 806 l 1,7,8
 694.659477866 913.328036322 694.659477866 913.328036322 837.5 955.5 c 0,9,10
 890 971 890 971 931.5 971 c 128,-1,11
 973 971 973 971 1006.5 960.5 c 128,-1,12
 1040 950 1040 950 1065.5 929.5 c 0,13,14
 1122 884.078431373 1122 884.078431373 1122 811 c 0,15,16
 1122 792 1122 792 1117 769 c 2,17,-1
 999 260 l 1,18,19
 988 218.2 988 218.2 988 179.1 c 128,-1,20
 988 140 988 140 1007.5 125 c 128,-1,21
 1027 110 1027 110 1057.5 110 c 128,-1,22
 1088 110 1088 110 1113.5 119 c 128,-1,23
 1139 128 1139 128 1159 135 c 1,24,25
 1002.79310345 -16 1002.79310345 -16 854 -16 c 256,26,27
 766 -16 766 -16 766 67 c 0,28,29
 766 101 766 101 774.5 135 c 128,-1,30
 783 169 783 169 791 202 c 2,31,-1
 878 576 l 1,32,33
 897 652 897 652 897 700 c 128,-1,34
 897 748 897 748 884.5 772.5 c 128,-1,35
 872 797 872 797 849.5 810.5 c 0,36,37
 813.666666667 832 813.666666667 832 741.833333333 832 c 128,-1,38
 670 832 670 832 627.5 801.5 c 128,-1,39
 585 771 585 771 556.5 724.5 c 0,40,41
 512.360770578 652.483362522 512.360770578 652.483362522 482 520 c 2,42,-1
 412 218 l 2,43,44
 404 183.333333333 404 183.333333333 404 166 c 0,45,46
 404 118 404 118 446 118 c 0,47,48
 463.4 118 463.4 118 511 135 c 1,49,50
 450.33072407 37.2550554468 450.33072407 37.2550554468 343.5 -3 c 0,51,52
 309 -16 309 -16 279.5 -16 c 128,-1,53
 250 -16 250 -16 235 -8.5 c 128,-1,54
 220 -1 220 -1 211.5 12.5 c 0,55,56
 196 37.1176470588 196 37.1176470588 196 73.0588235294 c 0,57,58
 196 126.333333333 196 126.333333333 210 187 c 2,59,-1
 476 1329 l 2,60,61
 488 1377 488 1377 488 1413 c 0,0,1
EndSplineSet
EndChar

StartChar: i
Encoding: 105 105 88
Width: 590
Flags: HW
LayerCount: 2
Fore
SplineSet
780 1697 m 1,0,1
 750.575757576 1520.45454545 750.575757576 1520.45454545 729 1480 c 0,2,3
 722.828947368 1467.65789474 722.828947368 1467.65789474 660.414473684 1432.32894737 c 128,-1,4
 598 1397 598 1397 573.5 1383 c 0,5,6
 521 1353 521 1353 503 1344 c 1,7,8
 535.942060086 1448.63948498 535.942060086 1448.63948498 554 1561 c 1,9,-1
 780 1697 l 1,0,1
355 696 m 0,10,11
 355 769 355 769 290 769 c 0,12,13
 259.8 769 259.8 769 201 755 c 1,14,15
 502.150627615 947.736401674 502.150627615 947.736401674 628 1006 c 1,16,-1
 464 300 l 2,17,18
 458 274 458 274 451.5 247 c 128,-1,19
 445 220 445 220 445 193 c 0,20,21
 445 116 445 116 557 116 c 0,22,23
 584.666666667 116 584.666666667 116 622 123 c 1,24,25
 590 101 590 101 556 76 c 128,-1,26
 522 51 522 51 486 30 c 0,27,28
 402 -19 402 -19 333 -19 c 0,29,30
 250.555555556 -19 250.555555556 -19 231 25 c 0,31,32
 223 43 223 43 223 66 c 0,33,34
 223 101.75 223 101.75 232 140 c 2,35,-1
 342 614 l 2,36,37
 355 666 355 666 355 696 c 0,10,11
EndSplineSet
EndChar

StartChar: j
Encoding: 106 106 89
Width: 551
Flags: HW
LayerCount: 2
Fore
SplineSet
781 1697 m 1,0,1
 777 1676 777 1676 772 1646.5 c 128,-1,2
 767 1617 767 1617 760 1586 c 0,3,4
 742.327868852 1507.73770492 742.327868852 1507.73770492 735.163934426 1491.36885246 c 128,-1,5
 728 1475 728 1475 712.5 1464.5 c 128,-1,6
 697 1454 697 1454 675 1440 c 128,-1,7
 653 1426 653 1426 626 1411 c 128,-1,8
 599 1396 599 1396 575 1382.5 c 0,9,10
 527 1355.5 527 1355.5 504 1344 c 1,11,12
 527.256637168 1411.18584071 527.256637168 1411.18584071 555 1561 c 1,13,-1
 781 1697 l 1,0,1
355 696 m 0,14,15
 355 769 355 769 295 769 c 0,16,17
 266.4 769 266.4 769 202 755 c 1,18,19
 343.183450429 848.669789227 343.183450429 848.669789227 629 1006 c 1,20,-1
 484 383 l 2,21,22
 462 289 462 289 440.5 195.5 c 128,-1,23
 419 102 419 102 397 25 c 128,-1,24
 375 -52 375 -52 342.5 -121.5 c 128,-1,25
 310 -191 310 -191 265 -259 c 128,-1,26
 220 -327 220 -327 165 -389 c 128,-1,27
 110 -451 110 -451 47.5 -498.5 c 0,28,29
 -90 -603 -90 -603 -221 -603 c 0,30,31
 -275 -603 -275 -603 -275 -567 c 0,32,33
 -275 -521.525423729 -275 -521.525423729 -166.5 -459 c 0,34,35
 -132.083333333 -439.166666667 -132.083333333 -439.166666667 -81.0416666667 -412.083333333 c 128,-1,36
 -30 -385 -30 -385 -16 -375 c 1,37,38
 -51 -399.230769231 -51 -399.230769231 -51 -425.115384615 c 0,39,40
 -51 -469.941176471 -51 -469.941176471 -1 -467 c 1,41,-1
 1 -467 l 1,42,43
 110.130715438 -335.027972028 110.130715438 -335.027972028 173 -108 c 0,44,45
 191 -43 191 -43 206 22 c 2,46,-1
 341 604 l 2,47,48
 355 668.4 355 668.4 355 696 c 0,14,15
EndSplineSet
EndChar

StartChar: k
Encoding: 107 107 90
Width: 1068
Flags: HW
LayerCount: 2
Fore
SplineSet
1039 854 m 0,0,1
 1039 695.344827586 1039 695.344827586 694 505 c 1,2,3
 705 489 705 489 727.5 455 c 128,-1,4
 750 421 750 421 779 379 c 128,-1,5
 808 337 808 337 840.5 292 c 128,-1,6
 873 247 873 247 903.5 210 c 0,7,8
 972.743243243 126 972.743243243 126 1004.87162162 126 c 0,9,10
 1068.4 126 1068.4 126 1149 165 c 1,11,12
 1036.04935622 48.1545064378 1036.04935622 48.1545064378 901.5 0 c 0,13,14
 854 -17 854 -17 812.5 -17 c 128,-1,15
 771 -17 771 -17 742.5 7.5 c 128,-1,16
 714 32 714 32 671.5 87 c 0,17,18
 605.853846154 171.953846154 605.853846154 171.953846154 452 391 c 1,19,20
 408 215 408 215 408 178 c 0,21,22
 408 115 408 115 463 115 c 0,23,24
 486 115 486 115 509 125 c 1,25,26
 486 108 486 108 452.5 83 c 128,-1,27
 419 58 419 58 382.5 35 c 0,28,29
 293.630434783 -21 293.630434783 -21 246 -21 c 0,30,31
 186 -21 186 -21 186 51 c 0,32,33
 186 78 186 78 196 123 c 2,34,-1
 478 1337 l 1,35,36
 489 1378.8 489 1378.8 489 1413 c 0,37,38
 489 1487 489 1487 425 1487 c 0,39,40
 402 1487 402 1487 380 1482 c 128,-1,41
 358 1477 358 1477 336 1472 c 1,42,43
 440 1539 440 1539 545 1605 c 128,-1,44
 650 1671 650 1671 763 1723 c 1,45,-1
 548 805 l 1,46,47
 678.344827586 902.75862069 678.344827586 902.75862069 829 951.5 c 0,48,49
 880 968 880 968 926 968 c 128,-1,50
 972 968 972 968 1005.5 937.5 c 128,-1,51
 1039 907 1039 907 1039 854 c 0,0,1
798 654.5 m 0,52,53
 816 689 816 689 816 720.5 c 128,-1,54
 816 752 816 752 806 771.5 c 128,-1,55
 796 791 796 791 779.5 804.5 c 0,56,57
 745.888888889 832 745.888888889 832 702.444444444 832 c 128,-1,58
 659 832 659 832 628.5 809.5 c 128,-1,59
 598 787 598 787 574 750.5 c 128,-1,60
 550 714 550 714 531.5 668.5 c 128,-1,61
 513 623 513 623 499 577 c 128,-1,62
 485 531 485 531 475 489 c 128,-1,63
 465 447 465 447 458 419 c 1,64,65
 726.494623656 517.448028674 726.494623656 517.448028674 798 654.5 c 0,52,53
EndSplineSet
EndChar

StartChar: l
Encoding: 108 108 91
Width: 564
Flags: HW
LayerCount: 2
Fore
SplineSet
486 1375 m 0,0,1
 486 1478 486 1478 388 1478 c 0,2,3
 366 1478 366 1478 344 1474 c 1,4,5
 398 1506 398 1506 452 1539 c 128,-1,6
 506 1572 506 1572 559 1597 c 0,7,8
 668.889908257 1648.83486239 668.889908257 1648.83486239 762 1689 c 1,9,-1
 441 309 l 2,10,11
 434 281 434 281 426.5 252 c 128,-1,12
 419 223 419 223 419 195.5 c 128,-1,13
 419 168 419 168 429 153 c 128,-1,14
 439 138 439 138 455.5 130.5 c 0,15,16
 507.238938053 106.982300885 507.238938053 106.982300885 598 124 c 1,17,18
 563 100 563 100 527.5 74.5 c 128,-1,19
 492 49 492 49 454.5 28 c 0,20,21
 368.785714286 -20 368.785714286 -20 291 -20 c 0,22,23
 204 -20 204 -20 204 81 c 0,24,25
 204 132 204 132 224 212 c 1,26,-1
 473 1282 l 2,27,28
 486 1341.8 486 1341.8 486 1375 c 0,0,1
EndSplineSet
EndChar

StartChar: m
Encoding: 109 109 92
Width: 1580
Flags: HW
LayerCount: 2
Fore
SplineSet
588 802 m 1,0,1
 853.571428571 971 853.571428571 971 964 971 c 0,2,3
 1054.94117647 971 1054.94117647 971 1079.5 887.5 c 0,4,5
 1087 862 1087 862 1087 839 c 128,-1,6
 1087 816 1087 816 1084 801 c 1,7,8
 1240.85263158 905.568421053 1240.85263158 905.568421053 1371.5 952.5 c 0,9,10
 1423 971 1423 971 1458 971 c 128,-1,11
 1493 971 1493 971 1516 960.5 c 128,-1,12
 1539 950 1539 950 1554 931 c 0,13,14
 1584 893 1584 893 1584 845.5 c 128,-1,15
 1584 798 1584 798 1577 769 c 2,16,-1
 1466 291 l 1,17,18
 1448 219 1448 219 1448 183.5 c 0,19,20
 1448 120 1448 120 1539 120 c 0,21,22
 1576.14285714 120 1576.14285714 120 1619 135 c 1,23,24
 1517.30508475 61.906779661 1517.30508475 61.906779661 1476.65254237 38.4533898305 c 0,25,26
 1384 -15 1384 -15 1314 -15 c 0,27,28
 1223 -15 1223 -15 1223 72 c 0,29,30
 1223 110 1223 110 1246 202 c 1,31,-1
 1334 579 l 2,32,33
 1352 658.714285714 1352 658.714285714 1352 706 c 0,34,35
 1352 832 1352 832 1240 832 c 0,36,37
 1157.28571429 832 1157.28571429 832 1096 733 c 0,38,39
 1052.05821918 662.017123288 1052.05821918 662.017123288 1027 559 c 1,40,-1
 961 275 l 2,41,42
 951 230 951 230 951 202 c 0,43,44
 951 120 951 120 1041 120 c 0,45,46
 1079.28571429 120 1079.28571429 120 1120 135 c 1,47,48
 977.970711297 29.6234309623 977.970711297 29.6234309623 916.985355649 7.31171548117 c 128,-1,49
 856 -15 856 -15 816 -15 c 0,50,51
 725 -15 725 -15 725 72 c 0,52,53
 725 110 725 110 748 202 c 1,54,-1
 836 579 l 2,55,56
 854 658.714285714 854 658.714285714 854 706 c 0,57,58
 854 832 854 832 741 832 c 0,59,60
 634.47826087 832 634.47826087 832 561.5 645.5 c 0,61,62
 539.827586207 590.114942529 539.827586207 590.114942529 523 520 c 2,63,-1
 451 211 l 2,64,65
 446 193 446 193 446 177 c 0,66,67
 446 115 446 115 502 115 c 0,68,69
 524 115 524 115 549 125 c 1,70,71
 352.823529412 -20 352.823529412 -20 278 -20 c 256,72,73
 219 -20 219 -20 219 38 c 0,74,75
 219 52 219 52 223 68 c 2,76,-1
 357 644 l 2,77,78
 364 674 364 674 373 705 c 128,-1,79
 382 736 382 736 382 768 c 0,80,81
 382 841 382 841 287 841 c 0,82,83
 244 841 244 841 198 825 c 1,84,85
 231.882352941 836.294117647 231.882352941 836.294117647 280.441176471 873.647058824 c 0,86,87
 371.191616766 943.45508982 371.191616766 943.45508982 405.595808383 955.22754491 c 0,88,89
 475.069175992 979 475.069175992 979 520 979 c 0,90,91
 605 979 605 979 605 903 c 0,92,93
 605 872.833333333 605 872.833333333 588 802 c 1,0,1
EndSplineSet
EndChar

StartChar: n
Encoding: 110 110 93
Width: 1160
Flags: HW
LayerCount: 2
Fore
SplineSet
1033 202 m 0,0,1
 1033 120 1033 120 1123 120 c 0,2,3
 1160.14285714 120 1160.14285714 120 1203 135 c 1,4,5
 1101.30508475 61.906779661 1101.30508475 61.906779661 1060.65254237 38.4533898305 c 0,6,7
 968 -15 968 -15 898 -15 c 0,8,9
 807 -15 807 -15 807 72 c 0,10,11
 807 110 807 110 830 202 c 1,12,-1
 917 576 l 2,13,14
 929 631.2 929 631.2 929 669 c 0,15,16
 929 832 929 832 759 832 c 0,17,18
 614.385321101 832 614.385321101 832 552 619.5 c 0,19,20
 536 565 536 565 526 520 c 2,21,-1
 454 211 l 2,22,23
 450 196 450 196 450 177 c 0,24,25
 450 115 450 115 505 115 c 0,26,27
 527 115 527 115 552 125 c 1,28,29
 355.823529412 -20 355.823529412 -20 281 -20 c 256,30,31
 222 -20 222 -20 222 39 c 0,32,33
 222 64.8974358974 222 64.8974358974 281 306.948717949 c 128,-1,34
 340 549 340 549 360 637 c 0,35,36
 385 747 385 747 385 768 c 0,37,38
 385 841 385 841 290 841 c 0,39,40
 247 841 247 841 201 825 c 1,41,42
 239.425 838.25 239.425 838.25 286.7125 874.625 c 0,43,44
 377.904191617 944.77245509 377.904191617 944.77245509 410.452095808 956.386227545 c 0,45,46
 473.827790668 979 473.827790668 979 523 979 c 0,47,48
 608 979 608 979 608 903 c 0,49,50
 608 870 608 870 592 806 c 1,51,52
 821.821428571 971 821.821428571 971 981 971 c 0,53,54
 1055.87804878 971 1055.87804878 971 1107.5 929.5 c 0,55,56
 1163 884.882352941 1163 884.882352941 1163 812 c 0,57,58
 1163 792 1163 792 1158 769 c 2,59,-1
 1043 275 l 2,60,61
 1033 230 1033 230 1033 202 c 0,0,1
EndSplineSet
EndChar

StartChar: o
Encoding: 111 111 94
Width: 1096
Flags: HW
LayerCount: 2
Fore
SplineSet
466.5 -17 m 0,0,1
 393 -17 393 -17 337 7.5 c 128,-1,2
 281 32 281 32 241.5 75 c 0,3,4
 159 164.810126582 159 164.810126582 159 301 c 0,5,6
 159 453.740740741 159 453.740740741 277 622 c 0,7,8
 385.156069364 776.222543353 385.156069364 776.222543353 556 883 c 0,9,10
 728.8 991 728.8 991 882 991 c 0,11,12
 1016.03529412 991 1016.03529412 991 1100 899.5 c 0,13,14
 1180 812.320512821 1180 812.320512821 1180 675 c 0,15,16
 1180 520.833333333 1180 520.833333333 1063 354 c 0,17,18
 951.916982231 195.603845033 951.916982231 195.603845033 787 91.5 c 0,19,20
 615.118811881 -17 615.118811881 -17 466.5 -17 c 0,0,1
949 541.5 m 0,21,22
 949 594 949 594 930 654.5 c 128,-1,23
 911 715 911 715 873.5 760 c 0,24,25
 792.666666667 857 792.666666667 857 653 857 c 0,26,27
 568.692307692 857 568.692307692 857 504 784.5 c 0,28,29
 422.270251233 692.906316037 422.270251233 692.906316037 398.5 532 c 0,30,31
 392 488 392 488 392 435 c 128,-1,32
 392 382 392 382 410 321.5 c 128,-1,33
 428 261 428 261 465 215 c 0,34,35
 544.630434783 116 544.630434783 116 686 116 c 0,36,37
 809.870588235 116 809.870588235 116 885.5 265.5 c 0,38,39
 949 391.023255814 949 391.023255814 949 541.5 c 0,21,22
EndSplineSet
Substitution2: "Single Substitution lookup 5 subtable" ordmasculine
Substitution2: "'aalt' Access All Alternates in Latin lookup 0 subtable" ordmasculine
EndChar

StartChar: p
Encoding: 112 112 95
Width: 1134
Flags: HW
LayerCount: 2
Fore
SplineSet
204 827 m 1,0,1
 415.608695652 984 415.608695652 984 525 984 c 0,2,3
 606 984 606 984 606 906 c 0,4,5
 606 876 606 876 594 828 c 1,6,7
 751.034512511 929.860224331 751.034512511 929.860224331 825.017256255 952.930112166 c 128,-1,8
 899 976 899 976 944 976 c 0,9,10
 1078 976 1078 976 1148 905.5 c 128,-1,11
 1218 835 1218 835 1218 701 c 0,12,13
 1218 523.509090909 1218 523.509090909 1099 351.5 c 0,14,15
 986.565890994 188.981606074 986.565890994 188.981606074 811.5 88.5 c 0,16,17
 631.175257732 -15 631.175257732 -15 456 -15 c 0,18,19
 434 -15 434 -15 399 -10 c 1,20,-1
 309 -394 l 2,21,22
 306 -406 306 -406 306 -421 c 0,23,24
 306 -474 306 -474 378 -474 c 0,25,26
 395.4 -474 395.4 -474 443 -457 c 1,27,28
 382.33072407 -554.744944553 382.33072407 -554.744944553 275.5 -595 c 0,29,30
 241 -608 241 -608 206 -608 c 0,31,32
 100 -608 100 -608 100 -495 c 0,33,34
 100 -456 100 -456 111 -412 c 2,35,-1
 374 717 l 2,36,37
 382 754.333333333 382 754.333333333 382 776 c 0,38,39
 382 846 382 846 296 846 c 0,40,41
 256.25 846 256.25 846 204 827 c 1,0,1
994 572 m 0,42,43
 994 840 994 840 731 840 c 0,44,45
 644.588235294 840 644.588235294 840 575 749 c 1,46,-1
 463 264 l 1,47,48
 490 189 490 189 551 153.5 c 128,-1,49
 612 118 612 118 694 118 c 128,-1,50
 776 118 776 118 835 162 c 128,-1,51
 894 206 894 206 929 273.5 c 0,52,53
 994 398.857142857 994 398.857142857 994 572 c 0,42,43
EndSplineSet
EndChar

StartChar: q
Encoding: 113 113 96
Width: 1172
Flags: HW
LayerCount: 2
Fore
SplineSet
1126 847 m 1,0,1
 1216.5 937.5 1216.5 937.5 1380 992 c 1,2,3
 1269.67005076 914.360406091 1269.67005076 914.360406091 1215 836 c 0,4,5
 1156.24705882 751.78745098 1156.24705882 751.78745098 1127 627 c 2,6,-1
 894 -374 l 2,7,8
 890 -390 890 -390 890 -409 c 0,9,10
 890 -474 890 -474 948 -474 c 0,11,12
 968.8 -474 968.8 -474 1013 -457 c 1,13,14
 950.343110127 -559.229662424 950.343110127 -559.229662424 838.5 -596 c 0,15,16
 802 -608 802 -608 765 -608 c 0,17,18
 684 -608 684 -608 684 -487 c 0,19,20
 684 -439 684 -439 696 -392 c 1,21,-1
 816 124 l 1,22,23
 780 102 780 102 740 77.5 c 128,-1,24
 700 53 700 53 658 32 c 0,25,26
 560 -17 560 -17 487.5 -17 c 128,-1,27
 415 -17 415 -17 355 7 c 128,-1,28
 295 31 295 31 251.5 73.5 c 0,29,30
 160 162.896551724 160 162.896551724 160 307 c 0,31,32
 160 462.654867257 160 462.654867257 283.5 625.5 c 0,33,34
 398.172563177 776.705415162 398.172563177 776.705415162 571.5 876.5 c 0,35,36
 747.789473684 978 747.789473684 978 901.625506073 978 c 128,-1,37
 1055.46153846 978 1055.46153846 978 1126 847 c 1,0,1
936 620 m 1,38,39
 873.142857143 840 873.142857143 840 672 840 c 0,40,41
 527.318965517 840 527.318965517 840 450.5 707 c 0,42,43
 388 598.791044776 388 598.791044776 388 442 c 0,44,45
 388 294.535714286 388 294.535714286 475 206.5 c 0,46,47
 562.458823529 118 562.458823529 118 709 118 c 0,48,49
 756 118 756 118 781 131 c 128,-1,50
 806 144 806 144 822 153 c 1,51,-1
 936 620 l 1,38,39
EndSplineSet
EndChar

StartChar: r
Encoding: 114 114 97
Width: 889
Flags: HW
LayerCount: 2
Fore
SplineSet
519 979 m 0,0,1
 605 979 605 979 605 900 c 0,2,3
 605 876.5 605 876.5 595 834 c 1,4,5
 627 855 627 855 668 882.5 c 128,-1,6
 709 910 709 910 752.5 935 c 0,7,8
 856.9 995 856.9 995 922 995 c 0,9,10
 960.833333333 995 960.833333333 995 998.416666667 973 c 0,11,12
 1070.16666667 931 1070.16666667 931 1088.58333333 931 c 128,-1,13
 1107 931 1107 931 1122.5 935.5 c 128,-1,14
 1138 940 1138 940 1153.5 946 c 0,15,16
 1183.92592593 957.777777778 1183.92592593 957.777777778 1210 972 c 1,17,18
 1109.48495271 854.154772141 1109.48495271 854.154772141 968 809 c 0,19,20
 921 794 921 794 887 794 c 128,-1,21
 853 794 853 794 832.5 804 c 128,-1,22
 812 814 812 814 791 826 c 0,23,24
 735 858 735 858 705.5 858 c 128,-1,25
 676 858 676 858 657 843 c 128,-1,26
 638 828 638 828 621.5 803.5 c 128,-1,27
 605 779 605 779 591.5 749.5 c 128,-1,28
 578 720 578 720 567.5 690.5 c 0,29,30
 545.509433962 628.716981132 545.509433962 628.716981132 539 594 c 1,31,-1
 450 211 l 2,32,33
 445 193 445 193 445 177 c 0,34,35
 445 115 445 115 501 115 c 0,36,37
 523 115 523 115 548 125 c 1,38,39
 516 102 516 102 490 76.5 c 128,-1,40
 464 51 464 51 436 29.5 c 0,41,42
 371.534883721 -20 371.534883721 -20 297 -20 c 0,43,44
 266 -20 266 -20 243 -1.5 c 128,-1,45
 220 17 220 17 220 35.5 c 0,46,47
 220 58 220 58 222 68 c 2,48,-1
 356 644 l 2,49,50
 363 674 363 674 372 705 c 128,-1,51
 381 736 381 736 381 768 c 0,52,53
 381 841 381 841 286 841 c 0,54,55
 243 841 243 841 197 825 c 1,56,57
 229.328358209 835.776119403 229.328358209 835.776119403 279.164179104 873.388059701 c 0,58,59
 372.379254457 943.739059968 372.379254457 943.739059968 405.689627229 955.369529984 c 0,60,61
 473.368729097 979 473.368729097 979 519 979 c 0,0,1
EndSplineSet
EndChar

StartChar: s
Encoding: 115 115 98
Width: 836
Flags: HW
LayerCount: 2
Fore
SplineSet
328 245 m 1,0,1
 298 217.727272727 298 217.727272727 298 192.363636364 c 128,-1,2
 298 167 298 167 324 151.5 c 128,-1,3
 350 136 350 136 385 128 c 0,4,5
 446.25 114 446.25 114 510.625 114 c 128,-1,6
 575 114 575 114 610 152 c 128,-1,7
 645 190 645 190 645 248 c 128,-1,8
 645 306 645 306 615.5 337.5 c 128,-1,9
 586 369 586 369 541.5 390.5 c 128,-1,10
 497 412 497 412 445 429 c 128,-1,11
 393 446 393 446 348.5 467 c 0,12,13
 245 515.842696629 245 515.842696629 245 595 c 0,14,15
 245 680.44 245 680.44 357 779 c 0,16,17
 454.425127831 864.734112491 454.425127831 864.734112491 596.5 928.5 c 0,18,19
 733.526315789 990 733.526315789 990 816 990 c 0,20,21
 889.352941176 990 889.352941176 990 922.176470588 974.5 c 128,-1,22
 955 959 955 959 955 946 c 0,23,24
 955 919 955 919 892 887.5 c 0,25,26
 772.789473684 827.894736842 772.789473684 827.894736842 703 776 c 1,27,28
 729 792.25 729 792.25 729 808.625 c 128,-1,29
 729 825 729 825 711.5 833 c 128,-1,30
 694 841 694 841 671 845.5 c 0,31,32
 632.666666667 853 632.666666667 853 593 853 c 0,33,34
 468 853 468 853 468 733 c 0,35,36
 468 647.164383562 468 647.164383562 595.5 603.5 c 0,37,38
 632 591 632 591 669.5 579 c 128,-1,39
 707 567 707 567 743.5 553 c 128,-1,40
 780 539 780 539 808 519.5 c 0,41,42
 871 475.625 871 475.625 871 410.3125 c 128,-1,43
 871 345 871 345 840 290.5 c 128,-1,44
 809 236 809 236 758 188.5 c 128,-1,45
 707 141 707 141 641.5 102 c 128,-1,46
 576 63 576 63 508.5 35 c 0,47,48
 366.267857143 -24 366.267857143 -24 262 -24 c 0,49,50
 159.193548387 -24 159.193548387 -24 97.5 18.5 c 0,51,52
 75 34 75 34 75 56.5 c 128,-1,53
 75 79 75 79 90 97.5 c 128,-1,54
 105 116 105 116 128 132.5 c 128,-1,55
 151 149 151 149 180 164 c 128,-1,56
 209 179 209 179 237 193 c 0,57,58
 312.833333333 230.916666667 312.833333333 230.916666667 328 245 c 1,0,1
EndSplineSet
EndChar

StartChar: t
Encoding: 116 116 99
Width: 687
Flags: HW
LayerCount: 2
Fore
SplineSet
375 -19 m 0,0,1
 236 -19 236 -19 236 137 c 0,2,3
 236 183.333333333 236 183.333333333 250 244 c 2,4,-1
 395 867 l 1,5,-1
 264 867 l 1,6,7
 303 893 303 893 341.5 918 c 128,-1,8
 380 943 380 943 419 969 c 1,9,-1
 451 1111 l 1,10,11
 512.569230769 1149.21538462 512.569230769 1149.21538462 541.784615385 1169.60769231 c 128,-1,12
 571 1190 571 1190 588.5 1199 c 128,-1,13
 606 1208 606 1208 624 1217 c 0,14,15
 670 1240 670 1240 677 1247 c 1,16,-1
 621 1003 l 1,17,-1
 941 1003 l 1,18,19
 923.988571429 1000.38285714 923.988571429 1000.38285714 861.494285714 954.191428571 c 0,20,21
 743.529411765 867 743.529411765 867 715 867 c 2,22,-1
 589 867 l 1,23,-1
 464 331 l 1,24,25
 451 268.6 451 268.6 451 216.8 c 0,26,27
 451 110 451 110 586 110 c 0,28,29
 629.571428571 110 629.571428571 110 667.285714286 126 c 128,-1,30
 705 142 705 142 719 148 c 1,31,32
 623.277899344 33.1334792123 623.277899344 33.1334792123 469.5 -6.5 c 0,33,34
 421 -19 421 -19 375 -19 c 0,0,1
EndSplineSet
EndChar

StartChar: u
Encoding: 117 117 100
Width: 1188
Flags: HW
LayerCount: 2
Fore
SplineSet
1151 973 m 0,0,1
 1207 973 1207 973 1207 913 c 0,2,3
 1207 895 1207 895 1203 877 c 2,4,-1
 1055 242 l 2,5,6
 1053 231 1053 231 1051 220 c 128,-1,7
 1049 209 1049 209 1049 198 c 0,8,9
 1049 153 1049 153 1076.5 137.5 c 128,-1,10
 1104 122 1104 122 1135.5 122 c 0,11,12
 1182.71428571 122 1182.71428571 122 1233 138 c 1,13,14
 1190 124 1190 124 1158 98 c 128,-1,15
 1126 72 1126 72 1092 46.5 c 0,16,17
 1008.66666667 -16 1008.66666667 -16 918.833333333 -16 c 128,-1,18
 829 -16 829 -16 829 67 c 0,19,20
 829 95 829 95 839 145 c 1,21,22
 582.965517241 -20 582.965517241 -20 413 -20 c 0,23,24
 251 -20 251 -20 251 178 c 0,25,26
 251 240.5 251 240.5 270 326 c 1,27,-1
 349 663 l 1,28,29
 363 727.4 363 727.4 363 759 c 0,30,31
 363 843 363 843 275 843 c 0,32,33
 238.571428571 843 238.571428571 843 200 828 c 1,34,35
 232 851 232 851 269 878 c 128,-1,36
 306 905 306 905 346.5 928 c 0,37,38
 439.826086957 981 439.826086957 981 511 981 c 0,39,40
 593 981 593 981 593 899 c 0,41,42
 593 860.25 593 860.25 571 770.625 c 0,43,44
 482.662527392 410.750182615 482.662527392 410.750182615 475.331263696 361.875091308 c 128,-1,45
 468 313 468 313 468 274 c 128,-1,46
 468 235 468 235 482 203 c 128,-1,47
 496 171 496 171 521.5 151.5 c 0,48,49
 567.923076923 116 567.923076923 116 664 116 c 0,50,51
 728.172413793 116 728.172413793 116 807.5 169.5 c 0,52,53
 829 184 829 184 851 197 c 1,54,-1
 974 725 l 2,55,56
 980 749 980 749 980 774 c 0,57,58
 980 838 980 838 928 838 c 0,59,60
 905 838 905 838 880 828 c 1,61,62
 1076.17647059 973 1076.17647059 973 1151 973 c 0,0,1
EndSplineSet
EndChar

StartChar: v
Encoding: 118 118 101
Width: 1060
Flags: HW
LayerCount: 2
Fore
SplineSet
173 803 m 1,0,1
 339 969 339 969 464 969 c 0,2,3
 492 969 492 969 514 948 c 128,-1,4
 536 927 536 927 554.5 872 c 128,-1,5
 573 817 573 817 586 744 c 128,-1,6
 599 671 599 671 608 587.5 c 128,-1,7
 617 504 617 504 622 426.5 c 0,8,9
 629.487804878 310.43902439 629.487804878 310.43902439 633 184 c 1,10,11
 907.607035928 502.544161677 907.607035928 502.544161677 983.5 689.5 c 0,12,13
 1004 740 1004 740 1004 778 c 0,14,15
 1004 832 1004 832 951 832 c 0,16,17
 925 832 925 832 889 820 c 1,18,19
 928 834 928 834 960 858.5 c 128,-1,20
 992 883 992 883 1023.5 907 c 0,21,22
 1102.25 967 1102.25 967 1165.625 967 c 128,-1,23
 1229 967 1229 967 1229 911 c 0,24,25
 1229 729.802083333 1229 729.802083333 828 274.5 c 0,26,27
 780 220 780 220 752 189 c 128,-1,28
 724 158 724 158 700 130.5 c 128,-1,29
 676 103 676 103 655 83.5 c 128,-1,30
 634 64 634 64 600.5 45 c 128,-1,31
 567 26 567 26 531 7.5 c 0,32,33
 440.386363636 -39.0653409091 440.386363636 -39.0653409091 428 -53 c 1,34,35
 426 112 426 112 420 277.5 c 128,-1,36
 414 443 414 443 398.5 538.5 c 128,-1,37
 383 634 383 634 376.5 672 c 128,-1,38
 370 710 370 710 356.5 745.5 c 0,39,40
 324.366197183 830 324.366197183 830 260 830 c 0,41,42
 214.727272727 830 214.727272727 830 173 803 c 1,0,1
EndSplineSet
EndChar

StartChar: w
Encoding: 119 119 102
Width: 1522
Flags: HW
LayerCount: 2
Fore
SplineSet
847.5 595 m 128,-1,1
 877 669 877 669 877 733.071428571 c 128,-1,2
 877 797.142857143 877 797.142857143 840 850 c 1,3,4
 851.789473684 857.368421053 851.789473684 857.368421053 887.394736842 881.684210526 c 128,-1,5
 923 906 923 906 945.5 921 c 128,-1,6
 968 936 968 936 987.5 948.5 c 0,7,8
 1031.96 977 1031.96 977 1042 977 c 128,-1,9
 1052 977 1052 977 1061 955 c 128,-1,10
 1070 933 1070 933 1076.5 904.5 c 128,-1,11
 1083 876 1083 876 1087.5 849 c 128,-1,12
 1092 822 1092 822 1105 743 c 0,13,14
 1157.05803571 426.647321429 1157.05803571 426.647321429 1160 206 c 1,15,16
 1340.17435321 436.623172103 1340.17435321 436.623172103 1399 555.5 c 0,17,18
 1453 664.625 1453 664.625 1453 739 c 0,19,20
 1453 802.357142857 1453 802.357142857 1413 829.5 c 0,21,22
 1399 839 1399 839 1383 839 c 0,23,24
 1358.6 839 1358.6 839 1330 826 c 1,25,26
 1358 839 1358 839 1393 863.5 c 128,-1,27
 1428 888 1428 888 1464 912.5 c 0,28,29
 1552.89795918 973 1552.89795918 973 1585.94897959 973 c 128,-1,30
 1619 973 1619 973 1633.5 964.5 c 128,-1,31
 1648 956 1648 956 1656.5 941.5 c 0,32,33
 1673 913.352941176 1673 913.352941176 1673 868.676470588 c 128,-1,34
 1673 824 1673 824 1650.5 764 c 128,-1,35
 1628 704 1628 704 1591 640 c 128,-1,36
 1554 576 1554 576 1507.5 511 c 128,-1,37
 1461 446 1461 446 1413.5 386 c 128,-1,38
 1366 326 1366 326 1322 274.5 c 128,-1,39
 1278 223 1278 223 1252 192.5 c 128,-1,40
 1226 162 1226 162 1207 138 c 128,-1,41
 1188 114 1188 114 1171.5 97.5 c 128,-1,42
 1155 81 1155 81 1125 62.5 c 128,-1,43
 1095 44 1095 44 1059.5 23.5 c 128,-1,44
 1024 3 1024 3 990.5 -15.5 c 128,-1,45
 957 -34 957 -34 940 -44 c 1,46,47
 937.489959839 292.345381526 937.489959839 292.345381526 917 487 c 1,48,49
 835.54973822 362.22513089 835.54973822 362.22513089 767.77486911 269.612565445 c 128,-1,50
 700 177 700 177 680.5 147.5 c 128,-1,51
 661 118 661 118 647 102.5 c 128,-1,52
 633 87 633 87 617 76.5 c 128,-1,53
 601 66 601 66 579 52.5 c 128,-1,54
 557 39 557 39 531.5 24.5 c 128,-1,55
 506 10 506 10 482.5 -3.5 c 128,-1,56
 459 -17 459 -17 440 -28 c 128,-1,57
 421 -39 421 -39 412 -44 c 1,58,-1
 414 166 l 1,59,-1
 414 227 l 2,60,61
 414 706.468085106 414 706.468085106 307.5 817.5 c 0,62,63
 284 842 284 842 260.5 842 c 0,64,65
 222 842 222 842 187 822 c 1,66,67
 360.727272727 969 360.727272727 969 470 969 c 0,68,69
 523.184466019 969 523.184466019 969 552.5 877.5 c 0,70,71
 597.117346939 738.239795918 597.117346939 738.239795918 616 455 c 0,72,73
 626.035714286 304.464285714 626.035714286 304.464285714 619 213 c 1,74,75
 648 258 648 258 692 319.5 c 128,-1,76
 736 381 736 381 777 451 c 128,-1,0
 818 521 818 521 847.5 595 c 128,-1,1
EndSplineSet
EndChar

StartChar: x
Encoding: 120 120 103
Width: 1093
Flags: HW
LayerCount: 2
Fore
SplineSet
1095 857 m 1,0,1
 958.9875 714.0125 958.9875 714.0125 775 539 c 1,2,3
 794 492 794 492 812.5 444 c 128,-1,4
 831 396 831 396 851 348 c 0,5,6
 922.806569343 175.664233577 922.806569343 175.664233577 972.5 130 c 0,7,8
 991 113 991 113 1011 113 c 0,9,10
 1044.33333333 113 1044.33333333 113 1091 143 c 1,11,12
 1014.65492102 31.6634264885 1014.65492102 31.6634264885 874.5 -7 c 0,13,14
 831 -19 831 -19 796.5 -19 c 128,-1,15
 762 -19 762 -19 747.5 -9 c 128,-1,16
 733 1 733 1 703 49.5 c 128,-1,17
 673 98 673 98 639.5 183 c 128,-1,18
 606 268 606 268 572 350 c 1,19,20
 461.562189055 249.60199005 461.562189055 249.60199005 290 136 c 1,21,-1
 460 136 l 1,22,23
 435.727272727 130.220779221 435.727272727 130.220779221 375.863636364 84.6103896104 c 128,-1,24
 316 39 316 39 285.5 19.5 c 128,-1,25
 255 0 255 0 234 0 c 2,26,-1
 2 0 l 1,27,28
 17 9 17 9 32 17.5 c 128,-1,29
 47 26 47 26 63 36.5 c 128,-1,30
 79 47 79 47 99 64 c 128,-1,31
 119 81 119 81 140.5 97 c 0,32,33
 192.90625 136 192.90625 136 228 136 c 0,34,35
 252.340425532 136 252.340425532 136 514 372.5 c 0,36,37
 540 396 540 396 549 404 c 1,38,39
 519 478 519 478 488 551 c 128,-1,40
 457 624 457 624 438 671 c 128,-1,41
 419 718 419 718 408.5 747.5 c 128,-1,42
 398 777 398 777 384 804 c 0,43,44
 349.777777778 870 349.777777778 870 304 870 c 0,45,46
 274.875 870 274.875 870 244 851 c 1,47,48
 401.169312169 959.80952381 401.169312169 959.80952381 503.5 999 c 0,49,50
 527 1008 527 1008 540 1008 c 256,51,52
 567.696428571 1008 567.696428571 1008 587.348214286 972.5 c 128,-1,53
 607 937 607 937 625 898 c 128,-1,54
 643 859 643 859 662 814 c 128,-1,55
 681 769 681 769 698 727 c 128,-1,56
 715 685 715 685 728.5 651 c 128,-1,57
 742 617 742 617 749 600 c 1,58,59
 874 725 874 725 994 857 c 1,60,-1
 849 857 l 1,61,62
 872.555555556 874.666666667 872.555555556 874.666666667 905.777777778 896.333333333 c 128,-1,63
 939 918 939 918 963.5 934 c 128,-1,64
 988 950 988 950 1010.5 963 c 0,65,66
 1062.42307692 993 1062.42307692 993 1075 993 c 2,67,-1
 1343 993 l 1,68,69
 1319.44444444 975.333333333 1319.44444444 975.333333333 1286.22222222 953.666666667 c 128,-1,70
 1253 932 1253 932 1228.5 916 c 128,-1,71
 1204 900 1204 900 1181.5 887 c 0,72,73
 1129.57692308 857 1129.57692308 857 1117 857 c 2,74,-1
 1095 857 l 1,0,1
EndSplineSet
EndChar

StartChar: y
Encoding: 121 121 104
Width: 1152
Flags: HW
LayerCount: 2
Fore
SplineSet
1156 974 m 0,0,1
 1216 974 1216 974 1216 918 c 0,2,3
 1216 905 1216 905 1213 892 c 2,4,-1
 1075 302 l 1,5,6
 993.791072869 -39.7542350094 993.791072869 -39.7542350094 767.5 -304.5 c 0,7,8
 608.108013522 -490.978206403 608.108013522 -490.978206403 404 -568.5 c 0,9,10
 300 -608 300 -608 184 -608 c 0,11,12
 94.4482758621 -608 94.4482758621 -608 44 -569.5 c 0,13,14
 25 -555 25 -555 25 -536 c 128,-1,15
 25 -517 25 -517 40.5 -499 c 128,-1,16
 56 -481 56 -481 80.5 -463.5 c 128,-1,17
 105 -446 105 -446 135 -428.5 c 128,-1,18
 165 -411 165 -411 194 -396 c 0,19,20
 269.4 -357 269.4 -357 285 -345 c 1,21,22
 249 -367.153846154 249 -367.153846154 249 -393.076923077 c 128,-1,23
 249 -419 249 -419 269.5 -433.5 c 128,-1,24
 290 -448 290 -448 317.5 -457 c 0,25,26
 369.444444444 -474 369.444444444 -474 428.722222222 -474 c 128,-1,27
 488 -474 488 -474 543 -442.5 c 128,-1,28
 598 -411 598 -411 641.5 -359 c 128,-1,29
 685 -307 685 -307 717 -241 c 128,-1,30
 749 -175 749 -175 773.5 -105 c 0,31,32
 801.783783784 -24.1891891892 801.783783784 -24.1891891892 845 152 c 1,33,34
 584.333333333 -18 584.333333333 -18 414.166666667 -18 c 128,-1,35
 244 -18 244 -18 244 150 c 0,36,37
 244 194 244 194 255 240 c 2,38,-1
 338 594 l 1,39,40
 361 700.375 361 700.375 361 743 c 0,41,42
 361 844 361 844 280 844 c 0,43,44
 247 844 247 844 205 830 c 1,45,46
 309.757033248 905.294117647 309.757033248 905.294117647 350.878516624 928.647058824 c 0,47,48
 444.826086957 982 444.826086957 982 516 982 c 0,49,50
 599 982 599 982 599 901 c 0,51,52
 599 862.32 599 862.32 556 685.16 c 128,-1,53
 513 508 513 508 497.5 441.5 c 0,54,55
 473 336.387096774 473 336.387096774 473 286.693548387 c 128,-1,56
 473 237 473 237 487 205 c 128,-1,57
 501 173 501 173 527 153.5 c 0,58,59
 574.333333333 118 574.333333333 118 669 118 c 0,60,61
 771.222222222 118 771.222222222 118 860 212 c 1,62,-1
 976 712 l 2,63,64
 986 754.5 986 754.5 986 779 c 0,65,66
 986 840 986 840 934 840 c 0,67,68
 909 840 909 840 885 830 c 1,69,70
 909 847 909 847 943.5 871.5 c 128,-1,71
 978 896 978 896 1015.5 919 c 0,72,73
 1105.17391304 974 1105.17391304 974 1156 974 c 0,0,1
EndSplineSet
EndChar

StartChar: z
Encoding: 122 122 105
Width: 909
Flags: HW
LayerCount: 2
Fore
SplineSet
622 998 m 1,0,-1
 974 988 l 1,1,2
 1033 988 1033 988 1093 992 c 1,3,4
 1040 962 1040 962 989 923 c 128,-1,5
 938 884 938 884 893.5 834.5 c 128,-1,6
 849 785 849 785 788.5 716.5 c 128,-1,7
 728 648 728 648 654.5 557.5 c 128,-1,8
 581 467 581 467 515 389 c 128,-1,9
 449 311 449 311 391.5 248.5 c 128,-1,10
 334 186 334 186 262 136 c 1,11,-1
 593 136 l 1,12,13
 744 131 l 1,14,15
 830.705882353 131 830.705882353 131 932 173 c 1,16,17
 878 137 878 137 831 105.5 c 128,-1,18
 784 74 784 74 735.5 50 c 0,19,20
 630.416666667 -2 630.416666667 -2 508.708333333 -2 c 128,-1,21
 387 -2 387 -2 263 -1 c 128,-1,22
 139 0 139 0 14 0 c 1,23,24
 102.872180451 51.8421052632 102.872180451 51.8421052632 145.936090226 93.4210526316 c 128,-1,25
 189 135 189 135 216.5 167.5 c 128,-1,26
 244 200 244 200 295 260 c 128,-1,27
 346 320 346 320 412 402 c 128,-1,28
 478 484 478 484 546.5 563.5 c 0,29,30
 701.982163016 743.950101603 701.982163016 743.950101603 846 855 c 1,31,32
 798 852 798 852 748 852 c 1,33,-1
 402 862 l 1,34,35
 333 862 333 862 264 856 c 1,36,37
 305.111111111 884.777777778 305.111111111 884.777777778 329.555555556 900.888888889 c 128,-1,38
 354 917 354 917 377.5 932.5 c 128,-1,39
 401 948 401 948 422.5 960.5 c 0,40,41
 469.695121951 987.93902439 469.695121951 987.93902439 495.847560976 992.469512195 c 0,42,43
 527.772543742 998 527.772543742 998 622 998 c 1,0,-1
EndSplineSet
EndChar

StartChar: braceleft
Encoding: 123 123 106
Width: 867
Flags: HW
LayerCount: 2
Fore
SplineSet
333 422 m 0,0,1
 333 549.454545455 333 549.454545455 171 628 c 1,2,3
 219.240963855 645.542168675 219.240963855 645.542168675 270.120481928 682.771084337 c 128,-1,4
 321 720 321 720 335 729 c 128,-1,5
 349 738 349 738 359.5 743.5 c 128,-1,6
 370 749 370 749 383.5 760.5 c 128,-1,7
 397 772 397 772 413 797 c 128,-1,8
 429 822 429 822 441.5 850.5 c 0,9,10
 477.271196633 932.058328322 477.271196633 932.058328322 491.635598316 1024.52916416 c 128,-1,11
 506 1117 506 1117 518 1167 c 0,12,13
 545.887850467 1283.19937695 545.887850467 1283.19937695 604.943925234 1353.59968847 c 128,-1,14
 664 1424 664 1424 739 1487 c 128,-1,15
 814 1550 814 1550 900 1599 c 0,16,17
 1087.79591837 1706 1087.79591837 1706 1263 1706 c 0,18,19
 1275 1706 1275 1706 1287 1706 c 128,-1,20
 1299 1706 1299 1706 1310 1704 c 1,21,22
 1293.38829787 1700.30851064 1293.38829787 1700.30851064 1259.69414894 1675.65425532 c 128,-1,23
 1226 1651 1226 1651 1202.5 1634 c 128,-1,24
 1179 1617 1179 1617 1157 1602 c 0,25,26
 1107.13333333 1568 1107.13333333 1568 1084 1568 c 1,27,-1
 999 1573 l 1,28,29
 937.25 1573 937.25 1573 895 1560 c 1,30,31
 793.857142857 1458.85714286 793.857142857 1458.85714286 758.5 1348.5 c 0,32,33
 742 1297 742 1297 732.5 1238.5 c 128,-1,34
 723 1180 723 1180 706 1108 c 128,-1,35
 689 1036 689 1036 664.5 986 c 128,-1,36
 640 936 640 936 605 895.5 c 0,37,38
 548.809413936 830.479464698 548.809413936 830.479464698 421 752 c 1,39,40
 560 677.535714286 560 677.535714286 560 564 c 0,41,42
 560 516 560 516 541.5 465.5 c 128,-1,43
 523 415 523 415 501 362 c 0,44,45
 442 219.863636364 442 219.863636364 442 142.431818182 c 128,-1,46
 442 65 442 65 465.5 8 c 128,-1,47
 489 -49 489 -49 530.5 -90.5 c 0,48,49
 617 -177 617 -177 756 -177 c 0,50,51
 788.333333333 -177 788.333333333 -177 835 -170 c 1,52,53
 818 -181 818 -181 787 -202.5 c 128,-1,54
 756 -224 756 -224 721.5 -246 c 0,55,56
 635.076458753 -301.110663984 635.076458753 -301.110663984 612.538229376 -305.555331992 c 0,57,58
 574.787460389 -313 574.787460389 -313 520.393730195 -313 c 128,-1,59
 466 -313 466 -313 407.5 -291 c 128,-1,60
 349 -269 349 -269 306 -228.5 c 0,61,62
 213 -140.906976744 213 -140.906976744 213 -7 c 0,63,64
 213 77.4888888889 213 77.4888888889 272.5 215 c 0,65,66
 295 267 295 267 314 318 c 128,-1,67
 333 369 333 369 333 422 c 0,0,1
EndSplineSet
EndChar

StartChar: bar
Encoding: 124 124 107
Width: 535
Flags: HW
LayerCount: 2
Fore
SplineSet
772 1700 m 1,0,-1
 335 -176 l 2,1,2
 330 -196 330 -196 263 -229.5 c 128,-1,3
 196 -263 196 -263 171.5 -275.5 c 0,4,5
 112.988235294 -305.352941176 112.988235294 -305.352941176 109 -312 c 1,6,-1
 546 1564 l 1,7,8
 637.880597015 1628.65671642 637.880597015 1628.65671642 687.940298507 1654.32835821 c 0,9,10
 769.402597403 1696.1038961 769.402597403 1696.1038961 772 1700 c 1,0,-1
EndSplineSet
EndChar

StartChar: braceright
Encoding: 125 125 108
Width: 864
Flags: HW
LayerCount: 2
Fore
SplineSet
880 971 m 0,0,1
 880 842.545454545 880 842.545454545 1042 764 c 1,2,3
 862.71009772 702.175895765 862.71009772 702.175895765 777 543 c 0,4,5
 735.808219178 466.500978474 735.808219178 466.500978474 722.904109589 375.250489237 c 128,-1,6
 710 284 710 284 694.5 223 c 128,-1,7
 679 162 679 162 637.5 92.5 c 128,-1,8
 596 23 596 23 537.5 -38 c 128,-1,9
 479 -99 479 -99 408 -150 c 128,-1,10
 337 -201 337 -201 260.5 -237.5 c 0,11,12
 100.164383562 -314 100.164383562 -314 -50 -314 c 0,13,14
 -73 -314 -73 -314 -97 -311 c 1,15,16
 -81.3538461538 -309.261538462 -81.3538461538 -309.261538462 -23.6769230769 -266.630769231 c 128,-1,17
 34 -224 34 -224 56 -209 c 0,18,19
 105.866666667 -175 105.866666667 -175 129 -175 c 1,20,-1
 214 -180 l 1,21,22
 275.75 -180 275.75 -180 318 -167 c 1,23,24
 421.422535211 -63.5774647887 421.422535211 -63.5774647887 455 44.5 c 0,25,26
 471 96 471 96 480.5 154 c 128,-1,27
 490 212 490 212 507 284 c 128,-1,28
 524 356 524 356 548.5 406.5 c 128,-1,29
 573 457 573 457 608 497.5 c 0,30,31
 664.190586064 562.520535302 664.190586064 562.520535302 792 641 c 1,32,33
 653 715.464285714 653 715.464285714 653 829 c 0,34,35
 653 877 653 877 671.5 927.5 c 128,-1,36
 690 978 690 978 712 1031 c 0,37,38
 771 1173.13636364 771 1173.13636364 771 1250.56818182 c 128,-1,39
 771 1328 771 1328 747.5 1385 c 128,-1,40
 724 1442 724 1442 682.5 1483.5 c 0,41,42
 596 1570 596 1570 457 1570 c 0,43,44
 423.333333333 1570 423.333333333 1570 379 1563 c 1,45,46
 567.086330935 1692.30935252 567.086330935 1692.30935252 605 1699 c 1,47,48
 636.5 1706 636.5 1706 691.75 1706 c 128,-1,49
 747 1706 747 1706 805.5 1684 c 128,-1,50
 864 1662 864 1662 907 1621.5 c 0,51,52
 1000 1533.90697674 1000 1533.90697674 1000 1399 c 0,53,54
 1000 1315.97777778 1000 1315.97777778 939.5 1177.5 c 0,55,56
 917 1126 917 1126 898.5 1075 c 128,-1,57
 880 1024 880 1024 880 971 c 0,0,1
EndSplineSet
EndChar

StartChar: asciitilde
Encoding: 126 126 109
Width: 1088
Flags: HW
LayerCount: 2
Fore
SplineSet
993 744 m 1,0,-1
 1006 745 l 1,1,2
 1043.39393939 782.393939394 1043.39393939 782.393939394 1100.6969697 809.196969697 c 128,-1,3
 1158 836 1158 836 1187 850.5 c 128,-1,4
 1216 865 1216 865 1237 886 c 1,5,6
 1098.25581395 747.255813953 1098.25581395 747.255813953 927.5 659 c 0,7,8
 828.826086957 608 828.826086957 608 777.413043478 608 c 128,-1,9
 726 608 726 608 698.5 629.5 c 128,-1,10
 671 651 671 651 646.5 677.5 c 128,-1,11
 622 704 622 704 594 725.5 c 128,-1,12
 566 747 566 747 541.5 747 c 128,-1,13
 517 747 517 747 512 746 c 1,14,15
 501 733 501 733 490 720 c 128,-1,16
 479 707 479 707 463.5 688.5 c 128,-1,17
 448 670 448 670 415 651.5 c 128,-1,18
 382 633 382 633 348 617 c 0,19,20
 256.80794702 574.086092715 256.80794702 574.086092715 242 557 c 1,21,22
 315.142857143 654.523809524 315.142857143 654.523809524 471.5 763.5 c 0,23,24
 645.826086957 885 645.826086957 885 746 885 c 0,25,26
 787.967741935 885 787.967741935 885 816.483870968 859 c 128,-1,27
 845 833 845 833 861 814.5 c 128,-1,28
 877 796 877 796 896 780.5 c 0,29,30
 940.741935484 744 940.741935484 744 993 744 c 1,0,-1
EndSplineSet
EndChar

StartChar: dagger
Encoding: 8224 8224 110
Width: 964
Flags: HW
LayerCount: 2
Fore
SplineSet
310 1011 m 1,0,1
 514 1147 514 1147 536 1147 c 2,2,-1
 677 1147 l 1,3,-1
 774 1564 l 1,4,5
 802 1583 802 1583 829 1601.5 c 128,-1,6
 856 1620 856 1620 875 1631.5 c 128,-1,7
 894 1643 894 1643 911 1651.5 c 2,8,-1
 946 1669 l 2,9,10
 988 1690 988 1690 1000 1700 c 1,11,-1
 871 1147 l 1,12,-1
 1179 1147 l 1,13,14
 1163.46835443 1145.2742616 1163.46835443 1145.2742616 1128.73417722 1119.6371308 c 128,-1,15
 1094 1094 1094 1094 1070.5 1077 c 128,-1,16
 1047 1060 1047 1060 1025 1045 c 0,17,18
 975.133333333 1011 975.133333333 1011 953 1011 c 2,19,-1
 840 1011 l 1,20,-1
 564 -176 l 2,21,22
 559.400921659 -196.695852535 559.400921659 -196.695852535 494.700460829 -227.847926267 c 128,-1,23
 430 -259 430 -259 405.5 -271.5 c 0,24,25
 347.233160622 -301.227979275 347.233160622 -301.227979275 338 -312 c 1,26,-1
 645 1011 l 1,27,-1
 310 1011 l 1,0,1
EndSplineSet
EndChar

StartChar: degree
Encoding: 176 176 111
Width: 679
Flags: HW
LayerCount: 2
Fore
SplineSet
489 933 m 0,0,1
 458 933 458 933 432.5 940.5 c 128,-1,2
 407 948 407 948 387.5 963 c 0,3,4
 345 995.692307692 345 995.692307692 345 1039.84615385 c 128,-1,5
 345 1084 345 1084 355 1111.5 c 128,-1,6
 365 1139 365 1139 382 1163 c 0,7,8
 413.986062718 1208.15679443 413.986062718 1208.15679443 453.993031359 1236.07839721 c 128,-1,9
 494 1264 494 1264 534 1290.5 c 128,-1,10
 574 1317 574 1317 618 1341 c 0,11,12
 724.333333333 1399 724.333333333 1399 767.166666667 1399 c 128,-1,13
 810 1399 810 1399 835 1389.5 c 128,-1,14
 860 1380 860 1380 878.5 1363 c 0,15,16
 918 1326.7027027 918 1326.7027027 918 1269 c 256,17,18
 918 1168.7826087 918 1168.7826087 799 1086 c 1,19,20
 584.8 933 584.8 933 489 933 c 0,0,1
678 1068 m 1,21,22
 692 1102 692 1102 692 1142.5 c 128,-1,23
 692 1183 692 1183 663.5 1219 c 128,-1,24
 635 1255 635 1255 586 1263 c 1,25,26
 574 1233 574 1233 574 1191 c 128,-1,27
 574 1149 574 1149 600.5 1112.5 c 128,-1,28
 627 1076 627 1076 678 1068 c 1,21,22
EndSplineSet
EndChar

StartChar: cent
Encoding: 162 162 112
Width: 938
Flags: HW
LayerCount: 2
Fore
SplineSet
848 824 m 1,0,1
 867 833.5 867 833.5 867 842.75 c 128,-1,2
 867 852 867 852 852.5 860 c 128,-1,3
 838 868 838 868 815.5 874 c 128,-1,4
 793 880 793 880 765.5 885.5 c 128,-1,5
 738 891 738 891 712.5 894 c 0,6,7
 653 901 653 901 638 901 c 0,8,9
 549.242424242 901 549.242424242 901 487 782.5 c 0,10,11
 433 679.692307692 433 679.692307692 433 602.346153846 c 128,-1,12
 433 525 433 525 454 478 c 128,-1,13
 475 431 475 431 512 398.5 c 0,14,15
 587.707692308 332 587.707692308 332 706 332 c 0,16,17
 805.705882353 332 805.705882353 332 903.5 379.5 c 0,18,19
 921 388 921 388 936 390 c 1,20,-1
 935 388 l 1,21,22
 893 346 893 346 709 254 c 0,23,24
 687 243 687 243 674 238 c 1,25,-1
 638 84 l 1,26,27
 542.272727273 16.6363636364 542.272727273 16.6363636364 513.636363636 2.31818181818 c 2,28,-1
 467 -21 l 2,29,30
 419 -45 419 -45 412 -52 c 1,31,32
 422 -13 422 -13 430.5 26.5 c 128,-1,33
 439 66 439 66 446.5 96 c 128,-1,34
 454 126 454 126 458 149.5 c 128,-1,35
 462 173 462 173 470 192 c 1,36,-1
 444 191 l 1,37,38
 336.607818411 189.04741488 336.607818411 189.04741488 272 265.5 c 0,39,40
 210 338.866666667 210 338.866666667 210 440.933333333 c 128,-1,41
 210 543 210 543 251 620 c 128,-1,42
 292 697 292 697 356 759.5 c 0,43,44
 453.423288356 854.639930035 453.423288356 854.639930035 649 963 c 1,45,-1
 689 1136 l 2,46,47
 693.513513514 1154.05405405 693.513513514 1154.05405405 757.256756757 1186.52702703 c 128,-1,48
 821 1219 821 1219 845.5 1231 c 0,49,50
 904.34375 1259.82142857 904.34375 1259.82142857 915 1272 c 1,51,-1
 860 1036 l 1,52,53
 885 1039 885 1039 904.5 1039 c 128,-1,54
 924 1039 924 1039 954 1035 c 128,-1,55
 984 1031 984 1031 1016 1023.5 c 0,56,57
 1097 1004.515625 1097 1004.515625 1097 980 c 0,58,59
 1097 962.631578947 1097 962.631578947 1029.5 918.815789474 c 128,-1,60
 962 875 962 875 934 859.5 c 0,61,62
 869.870967742 824 869.870967742 824 848 824 c 1,0,1
EndSplineSet
EndChar

StartChar: sterling
Encoding: 163 163 113
Width: 1263
Flags: HW
LayerCount: 2
Fore
SplineSet
214 581 m 1,0,1
 418 717 418 717 440 717 c 2,2,-1
 490 717 l 1,3,4
 507 790 507 790 524.5 871 c 128,-1,5
 542 952 542 952 569 1029.5 c 0,6,7
 630.614502358 1206.35644195 630.614502358 1206.35644195 747 1288 c 1,8,9
 892.095057034 1387.14828897 892.095057034 1387.14828897 967.547528517 1419.57414449 c 0,10,11
 1112.80769231 1482 1112.80769231 1482 1248 1482 c 0,12,13
 1340.46666667 1482 1340.46666667 1482 1394.73333333 1463.5 c 128,-1,14
 1449 1445 1449 1445 1463.5 1435.5 c 128,-1,15
 1478 1426 1478 1426 1478 1413.5 c 128,-1,16
 1478 1401 1478 1401 1462.5 1385.5 c 128,-1,17
 1447 1370 1447 1370 1423 1354 c 128,-1,18
 1399 1338 1399 1338 1369.5 1322 c 128,-1,19
 1340 1306 1340 1306 1312 1293 c 0,20,21
 1255.52542373 1266.77966102 1255.52542373 1266.77966102 1227 1259 c 1,22,-1
 1227 1261 l 1,23,-1
 1261 1285 l 1,24,25
 1247.288 1326.136 1247.288 1326.136 1044.5 1345 c 0,26,27
 1023 1347 1023 1347 1000.5 1347 c 0,28,29
 942 1347 942 1347 874 1331 c 1,30,31
 803.010706638 1237.82655246 803.010706638 1237.82655246 748.5 989.5 c 0,32,33
 735 928 735 928 723 877 c 2,34,-1
 686 717 l 1,35,-1
 908 717 l 2,36,37
 971.555555556 717 971.555555556 717 1083 776 c 1,38,39
 884.911431743 605.306659267 884.911431743 605.306659267 656 585 c 1,40,41
 640 518 640 518 625.5 451 c 128,-1,42
 611 384 611 384 600 342 c 128,-1,43
 589 300 589 300 575 273.5 c 128,-1,44
 561 247 561 247 543 220 c 0,45,46
 501.347826087 157.52173913 501.347826087 157.52173913 472 136 c 1,47,-1
 1038 136 l 2,48,49
 1134.95652174 136 1134.95652174 136 1233 191 c 1,50,51
 946.5 0 946.5 0 873 0 c 2,52,-1
 226 0 l 1,53,54
 298.007290401 57.1822600243 298.007290401 57.1822600243 321.5036452 92.0911300122 c 0,55,56
 361.12745098 150.960784314 361.12745098 150.960784314 380 234 c 2,57,-1
 461 581 l 1,58,-1
 214 581 l 1,0,1
EndSplineSet
EndChar

StartChar: section
Encoding: 167 167 114
Width: 1209
Flags: HW
LayerCount: 2
Fore
SplineSet
488 983 m 1,0,1
 425 1040.09375 425 1040.09375 425 1121.046875 c 128,-1,2
 425 1202 425 1202 466 1267 c 128,-1,3
 507 1332 507 1332 574 1391 c 128,-1,4
 641 1450 641 1450 725 1500 c 128,-1,5
 809 1550 809 1550 895 1587 c 0,6,7
 1076.2972973 1665 1076.2972973 1665 1198 1665 c 0,8,9
 1312.28 1665 1312.28 1665 1390 1631.5 c 0,10,11
 1419 1619 1419 1619 1419 1599 c 0,12,13
 1419 1576.90566038 1419 1576.90566038 1376 1544.45283019 c 128,-1,14
 1333 1512 1333 1512 1301.5 1491 c 128,-1,15
 1270 1470 1270 1470 1239.5 1452.5 c 0,16,17
 1172.95454545 1414.31818182 1172.95454545 1414.31818182 1148 1406 c 1,18,19
 1161 1413 1161 1413 1177 1429 c 128,-1,20
 1193 1445 1193 1445 1193 1460 c 256,21,22
 1193 1516.36170213 1193 1516.36170213 966.5 1526 c 0,23,24
 943 1527 943 1527 905 1527 c 128,-1,25
 867 1527 867 1527 815 1509.5 c 128,-1,26
 763 1492 763 1492 726.5 1457.5 c 0,27,28
 650 1385.19178082 650 1385.19178082 650 1257 c 0,29,30
 650 1171 650 1171 718 1120 c 1,31,-1
 718 1121 l 1,32,-1
 719 1121 l 1,33,-1
 719 1122 l 1,34,-1
 719 1121 l 1,35,-1
 718 1121 l 1,36,-1
 718 1120 l 1,37,38
 769.246376812 1081.56521739 769.246376812 1081.56521739 891 1058 c 0,39,40
 1170.91107762 1003.8236624 1170.91107762 1003.8236624 1257 872 c 0,41,42
 1289 823 1289 823 1289 754 c 0,43,44
 1289 597.310344828 1289 597.310344828 1153 466 c 1,45,46
 1198 415.130434783 1198 415.130434783 1198 342.065217391 c 128,-1,47
 1198 269 1198 269 1158.5 199.5 c 128,-1,48
 1119 130 1119 130 1054.5 68 c 128,-1,49
 990 6 990 6 907 -46 c 128,-1,50
 824 -98 824 -98 738 -135.5 c 0,51,52
 555.68 -215 555.68 -215 424 -215 c 0,53,54
 174.567567568 -215 174.567567568 -215 90 -140.5 c 0,55,56
 69 -122 69 -122 69 -98 c 128,-1,57
 69 -74 69 -74 84.5 -51.5 c 128,-1,58
 100 -29 100 -29 124.5 -7.5 c 128,-1,59
 149 14 149 14 180 33.5 c 128,-1,60
 211 53 211 53 241.5 70 c 128,-1,61
 272 87 272 87 299 100 c 128,-1,62
 326 113 326 113 344 122 c 1,63,64
 294 77.8823529412 294 77.8823529412 294 46.9411764706 c 128,-1,65
 294 16 294 16 313.5 -2.5 c 128,-1,66
 333 -21 333 -21 363.5 -34.5 c 128,-1,67
 394 -48 394 -48 432 -57 c 128,-1,68
 470 -66 470 -66 506.5 -71.5 c 0,69,70
 569.545454545 -81 569.545454545 -81 630.772727273 -81 c 128,-1,71
 692 -81 692 -81 755 -63 c 128,-1,72
 818 -45 818 -45 867 -8.5 c 0,73,74
 974 71.2040816327 974 71.2040816327 974 213 c 0,75,76
 974 357.572649573 974 357.572649573 764.5 409.5 c 0,77,78
 706 424 706 424 647.5 436 c 0,79,80
 489.16 468.48 489.16 468.48 440.08 496.24 c 128,-1,81
 391 524 391 524 360 576 c 128,-1,82
 329 628 329 628 329 682 c 128,-1,83
 329 736 329 736 342 776.5 c 128,-1,84
 355 817 355 817 376.5 854.5 c 0,85,86
 417.185647426 925.463338534 417.185647426 925.463338534 488 983 c 1,0,1
1051 527 m 1,87,88
 1066 574.142857143 1066 574.142857143 1066 624.071428571 c 128,-1,89
 1066 674 1066 674 1042.5 717.5 c 128,-1,90
 1019 761 1019 761 981.5 794 c 0,91,92
 877.224907063 885.762081784 877.224907063 885.762081784 687 912 c 0,93,94
 629 920 629 920 572 938 c 1,95,96
 549 885.727272727 549 885.727272727 549 827.363636364 c 128,-1,97
 549 769 549 769 574.5 725.5 c 128,-1,98
 600 682 600 682 642 652.5 c 128,-1,99
 684 623 684 623 737 605.5 c 128,-1,100
 790 588 790 588 846 575.5 c 128,-1,101
 902 563 902 563 955.5 552.5 c 128,-1,102
 1009 542 1009 542 1051 527 c 1,87,88
EndSplineSet
EndChar

StartChar: bullet
Encoding: 8226 8226 115
Width: 802
Flags: HW
LayerCount: 2
Fore
SplineSet
823 701 m 1,0,-1
 448 476 l 1,1,-1
 339 751 l 1,2,-1
 714 977 l 1,3,-1
 823 701 l 1,0,-1
EndSplineSet
EndChar

StartChar: paragraph
Encoding: 182 182 116
Width: 1398
Flags: HW
LayerCount: 2
Fore
SplineSet
749 529 m 1,0,1
 719 527 719 527 667.5 527 c 128,-1,2
 616 527 616 527 545 546.5 c 128,-1,3
 474 566 474 566 418.5 605 c 0,4,5
 294 692.486486486 294 692.486486486 294 845 c 0,6,7
 294 1040.07692308 294 1040.07692308 493.5 1214 c 0,8,9
 668.515862069 1366.57793103 668.515862069 1366.57793103 876 1421 c 0,10,11
 948.833333333 1440 948.833333333 1440 1062 1440 c 2,12,-1
 1682 1440 l 1,13,14
 1478 1304 1478 1304 1456 1304 c 2,15,-1
 1420 1304 l 1,16,-1
 1125 37 l 2,17,18
 1121.48739496 21.1932773109 1121.48739496 21.1932773109 1084.74369748 1.59663865546 c 128,-1,19
 1048 -18 1048 -18 1022 -31 c 128,-1,20
 996 -44 996 -44 971.5 -56 c 0,21,22
 913.68 -84.32 913.68 -84.32 899 -99 c 1,23,-1
 1071 640 l 1,24,25
 996.986666667 589.776666667 996.986666667 589.776666667 954 575 c 1,26,-1
 828 37 l 2,27,28
 823.581176471 17.1152941176 823.581176471 17.1152941176 761.290588235 -13.4423529412 c 128,-1,29
 699 -44 699 -44 674.5 -56 c 0,30,31
 616.68 -84.32 616.68 -84.32 602 -99 c 1,32,-1
 749 529 l 1,0,1
1226 1304 m 1,33,-1
 1123 1304 l 1,34,-1
 975 665 l 1,35,36
 1022.61818182 668.527272727 1022.61818182 668.527272727 1081 682 c 1,37,-1
 1226 1304 l 1,33,-1
929 1305 m 1,38,39
 912 1306 912 1306 894.5 1306 c 2,40,-1
 860 1306 l 2,41,42
 682 1306 682 1306 600 1225.5 c 128,-1,43
 518 1145 518 1145 518 972 c 0,44,45
 518 845.268656716 518 845.268656716 586.5 764.5 c 0,46,47
 659.012658228 679 659.012658228 679 784 679 c 1,48,-1
 929 1305 l 1,38,39
EndSplineSet
EndChar

StartChar: germandbls
Encoding: 223 223 117
Width: 1279
Flags: HW
LayerCount: 2
Fore
SplineSet
-24 -375 m 1,0,1
 -59 -399.230769231 -59 -399.230769231 -59 -425.115384615 c 0,2,3
 -59 -469.941176471 -59 -469.941176471 -9 -467 c 1,4,-1
 -7 -467 l 1,5,6
 71.2105263158 -372.030075188 71.2105263158 -372.030075188 110.105263158 -272.015037594 c 0,7,8
 167.95505618 -123.258426966 167.95505618 -123.258426966 202 22 c 2,9,-1
 402 857 l 1,10,-1
 276 857 l 1,11,12
 370.24 919 370.24 919 425 956 c 1,13,14
 470.664643399 1158.22913505 470.664643399 1158.22913505 501.3323217 1232.61456753 c 128,-1,15
 532 1307 532 1307 562.5 1353 c 128,-1,16
 593 1399 593 1399 637.5 1441.5 c 0,17,18
 715.06424581 1515.57821229 715.06424581 1515.57821229 836.032122905 1585.28910615 c 128,-1,19
 957 1655 957 1655 1031 1683.5 c 128,-1,20
 1105 1712 1105 1712 1176 1712 c 128,-1,21
 1247 1712 1247 1712 1296.5 1691.5 c 128,-1,22
 1346 1671 1346 1671 1380 1633.5 c 0,23,24
 1448 1558.5 1448 1558.5 1448 1430 c 0,25,26
 1448 1222.13333333 1448 1222.13333333 1289 1075.5 c 0,27,28
 1220.19047619 1012.04232804 1220.19047619 1012.04232804 1139.5952381 956.521164021 c 128,-1,29
 1059 901 1059 901 1023.5 870 c 0,30,31
 945 801.450704225 945 801.450704225 945 733 c 0,32,33
 945 647.164383562 945 647.164383562 1072.5 603.5 c 0,34,35
 1109 591 1109 591 1146.5 579 c 128,-1,36
 1184 567 1184 567 1220.5 553.5 c 128,-1,37
 1257 540 1257 540 1285 520 c 0,38,39
 1348 475 1348 475 1348 410 c 128,-1,40
 1348 345 1348 345 1317 290.5 c 128,-1,41
 1286 236 1286 236 1235 188.5 c 128,-1,42
 1184 141 1184 141 1118.5 102 c 128,-1,43
 1053 63 1053 63 985.5 35 c 0,44,45
 843.267857143 -24 843.267857143 -24 739 -24 c 0,46,47
 636.193548387 -24 636.193548387 -24 574.5 18.5 c 0,48,49
 552 34 552 34 552 61 c 128,-1,50
 552 88 552 88 583.5 114.5 c 128,-1,51
 615 141 615 141 657 164.5 c 128,-1,52
 699 188 699 188 741 208 c 128,-1,53
 783 228 783 228 804 245 c 1,54,55
 775 218.636363636 775 218.636363636 775 192.818181818 c 128,-1,56
 775 167 775 167 801 151.5 c 128,-1,57
 827 136 827 136 862 128 c 0,58,59
 923.25 114 923.25 114 987.625 114 c 128,-1,60
 1052 114 1052 114 1086.5 152.5 c 128,-1,61
 1121 191 1121 191 1121 249 c 128,-1,62
 1121 307 1121 307 1091.5 338 c 128,-1,63
 1062 369 1062 369 1017.5 390.5 c 128,-1,64
 973 412 973 412 921.5 429 c 128,-1,65
 870 446 870 446 825.5 467 c 0,66,67
 722 515.842696629 722 515.842696629 722 595 c 0,68,69
 722 686.698924731 722 686.698924731 884.5 816 c 0,70,71
 1087.38336714 977.434077079 1087.38336714 977.434077079 1156 1077.5 c 0,72,73
 1236 1194.16666667 1236 1194.16666667 1236 1323 c 0,74,75
 1236 1429.6835443 1236 1429.6835443 1148.5 1505 c 0,76,77
 1064.85294118 1577 1064.85294118 1577 956 1577 c 0,78,79
 890.875 1577 890.875 1577 847 1564 c 1,80,81
 745.991020652 1458.06375337 745.991020652 1458.06375337 690.5 1254 c 0,82,83
 675 1197 675 1197 662 1141 c 2,84,-1
 401 40 l 1,85,86
 348.030124908 -175.190117561 348.030124908 -175.190117561 168 -378.5 c 0,87,88
 46.4117905851 -515.810822701 46.4117905851 -515.810822701 -89.5 -573.5 c 0,89,90
 -159 -603 -159 -603 -221 -603 c 128,-1,91
 -283 -603 -283 -603 -283 -567 c 0,92,93
 -283 -514.157894737 -283 -514.157894737 -115.5 -426 c 0,94,95
 -39.12 -385.8 -39.12 -385.8 -24 -375 c 1,0,1
EndSplineSet
EndChar

StartChar: registered
Encoding: 174 174 118
Width: 1635
Flags: HW
LayerCount: 2
Fore
SplineSet
723.5 44 m 0,0,1
 633 44 633 44 542.5 70 c 128,-1,2
 452 96 452 96 384 150 c 0,3,4
 237 266.735294118 237 266.735294118 237 478 c 0,5,6
 237 711.129032258 237 711.129032258 404.5 930.5 c 0,7,8
 560.285360069 1134.52856835 560.285360069 1134.52856835 802.5 1263.5 c 0,9,10
 1045.70731707 1393 1045.70731707 1393 1274 1393 c 0,11,12
 1479.06034483 1393 1479.06034483 1393 1615.5 1274 c 0,13,14
 1760 1147.96992481 1760 1147.96992481 1760 947 c 0,15,16
 1760 706.338461538 1760 706.338461538 1546 466 c 0,17,18
 1345.54281661 240.871163271 1345.54281661 240.871163271 1072.5 122.5 c 0,19,20
 891.426666667 44 891.426666667 44 723.5 44 c 0,0,1
1129 796.5 m 128,-1,22
 1137 814 1137 814 1137 847.5 c 128,-1,23
 1137 881 1137 881 1115 903.5 c 128,-1,24
 1093 926 1093 926 1061.5 937.5 c 0,25,26
 1013.56521739 955 1013.56521739 955 930 955 c 1,27,-1
 882 751 l 1,28,-1
 1024 751 l 2,29,30
 1081 751 1081 751 1101 765 c 128,-1,21
 1121 779 1121 779 1129 796.5 c 128,-1,22
571 329 m 1,31,32
 720.076923077 176 720.076923077 176 963 176 c 0,33,34
 1127.2247191 176 1127.2247191 176 1263.5 271.5 c 0,35,36
 1457.30355641 407.315090712 1457.30355641 407.315090712 1516.5 658.5 c 0,37,38
 1535 737 1535 737 1535 830 c 128,-1,39
 1535 923 1535 923 1494 1004 c 128,-1,40
 1453 1085 1453 1085 1384.5 1140.5 c 0,41,42
 1245.64864865 1253 1245.64864865 1253 1038 1253 c 0,43,44
 771.05027933 1253 771.05027933 1253 610.5 1057.5 c 0,45,46
 461 875.455782313 461 875.455782313 461 605 c 0,47,48
 461 451.653846154 461 451.653846154 562 339 c 1,49,50
 602.329588015 381.850187266 602.329588015 381.850187266 631 508 c 2,51,-1
 735 955 l 1,52,-1
 632 955 l 1,53,54
 836 1091 836 1091 858 1091 c 2,55,-1
 1100 1091 l 2,56,57
 1293.875 1091 1293.875 1091 1344.5 1016 c 0,58,59
 1358 996 1358 996 1358 962 c 128,-1,60
 1358 928 1358 928 1332.5 892.5 c 128,-1,61
 1307 857 1307 857 1270 826.5 c 0,62,63
 1227.04895105 791.094405594 1227.04895105 791.094405594 1121 731 c 1,64,65
 1175.21348315 707.146067416 1175.21348315 707.146067416 1251 581.5 c 0,66,67
 1295.84 507.16 1295.84 507.16 1317.42 485.58 c 128,-1,68
 1339 464 1339 464 1353 464 c 0,69,70
 1378 464 1378 464 1403 479 c 1,71,72
 1341.38440111 377.334261838 1341.38440111 377.334261838 1212 342.5 c 0,73,74
 1173 332 1173 332 1142 332 c 128,-1,75
 1111 332 1111 332 1092 352 c 128,-1,76
 1073 372 1073 372 1055 402.5 c 128,-1,77
 1037 433 1037 433 1018 468.5 c 128,-1,78
 999 504 999 504 975 534.5 c 0,79,80
 919.524590164 605 919.524590164 605 851 605 c 1,81,82
 838.230392157 546.259803922 838.230392157 546.259803922 784 467 c 1,83,84
 820 461 820 461 859 463 c 128,-1,85
 898 465 898 465 935 465 c 1,86,87
 915.821368948 461.404006678 915.821368948 461.404006678 853.910684474 415.202003339 c 0,88,89
 738.4 329 738.4 329 709 329 c 2,90,-1
 571 329 l 1,31,32
EndSplineSet
EndChar

StartChar: copyright
Encoding: 169 169 119
Width: 1634
Flags: HW
LayerCount: 2
Fore
SplineSet
723 44 m 0,0,1
 633 44 633 44 542 70.5 c 128,-1,2
 451 97 451 97 383 150.5 c 0,3,4
 236 266.154411765 236 266.154411765 236 477 c 0,5,6
 236 707.819354839 236 707.819354839 404.5 928.5 c 0,7,8
 560.507149321 1132.81904072 560.507149321 1132.81904072 803 1262.5 c 0,9,10
 1047.02439024 1393 1047.02439024 1393 1273 1393 c 0,11,12
 1476.29565217 1393 1476.29565217 1393 1614.5 1273.5 c 0,13,14
 1759 1148.55639098 1759 1148.55639098 1759 947 c 0,15,16
 1759 706.338461538 1759 706.338461538 1545 466 c 0,17,18
 1344.54281661 240.871163271 1344.54281661 240.871163271 1071.5 122.5 c 0,19,20
 890.426666667 44 890.426666667 44 723 44 c 0,0,1
1515.5 658.5 m 0,21,22
 1534 737 1534 737 1534 829.5 c 128,-1,23
 1534 922 1534 922 1493 1003.5 c 128,-1,24
 1452 1085 1452 1085 1383.5 1140.5 c 0,25,26
 1244.64864865 1253 1244.64864865 1253 1037 1253 c 0,27,28
 772.52 1253 772.52 1253 612.5 1062.5 c 0,29,30
 462 883.333333333 462 883.333333333 462 617 c 0,31,32
 462 409.627737226 462 409.627737226 611.5 288.5 c 0,33,34
 750.351351351 176 750.351351351 176 962 176 c 0,35,36
 1126.2247191 176 1126.2247191 176 1262.5 271.5 c 0,37,38
 1456.30355641 407.315090712 1456.30355641 407.315090712 1515.5 658.5 c 0,21,22
1167 917 m 1,39,40
 1184 934 1184 934 1184 935 c 0,41,42
 1184 968 1184 968 1025 968 c 0,43,44
 910.608108108 968 910.608108108 968 842.5 888 c 0,45,46
 778 812.238095238 778 812.238095238 778 697 c 0,47,48
 778 593.704225352 778 593.704225352 856.5 534 c 0,49,50
 928.814814815 479 928.814814815 479 1034 479 c 0,51,52
 1150.76923077 479 1150.76923077 479 1265 534 c 1,53,54
 1109.77 418.48 1109.77 418.48 1060.385 395.24 c 128,-1,55
 1011 372 1011 372 972 361 c 0,56,57
 894 339 894 339 815 339 c 128,-1,58
 736 339 736 339 693.5 354 c 128,-1,59
 651 369 651 369 620 397.5 c 0,60,61
 554 458.177419355 554 458.177419355 554 544.588709677 c 128,-1,62
 554 631 554 631 588.5 699 c 128,-1,63
 623 767 623 767 679.5 827.5 c 128,-1,64
 736 888 736 888 809 938.5 c 128,-1,65
 882 989 882 989 959.5 1026 c 0,66,67
 1122.87837838 1104 1122.87837838 1104 1251 1104 c 0,68,69
 1400.5 1104 1400.5 1104 1417 1071 c 1,70,71
 1370.05263158 1024.05263158 1370.05263158 1024.05263158 1198.5 932 c 0,72,73
 1178 921 1178 921 1167 917 c 1,39,40
EndSplineSet
EndChar

StartChar: trademark
Encoding: 8482 8482 120
Width: 2489
Flags: HW
LayerCount: 2
Fore
SplineSet
1621 658 m 1,0,1
 1417 522 1417 522 1395 522 c 2,2,-1
 1197 522 l 1,3,4
 1299.4028777 629.057553957 1299.4028777 629.057553957 1363 861 c 0,5,6
 1383.84615385 937.027149321 1383.84615385 937.027149321 1429.42307692 1080.01357466 c 128,-1,7
 1475 1223 1475 1223 1500 1304 c 1,8,-1
 1349 1304 l 1,9,10
 1356 1309 1356 1309 1374 1321 c 128,-1,11
 1392 1333 1392 1333 1415 1348.5 c 128,-1,12
 1438 1364 1438 1364 1464 1380 c 128,-1,13
 1490 1396 1490 1396 1513 1409.5 c 0,14,15
 1564.96296296 1440 1564.96296296 1440 1575 1440 c 2,16,-1
 1726 1440 l 1,17,-1
 1848 1107 l 2,18,19
 1875 1033 1875 1033 1903 960 c 128,-1,20
 1931 887 1931 887 1950 810 c 1,21,22
 2019 893 2019 893 2088 975 c 128,-1,23
 2157 1057 2157 1057 2206 1119.5 c 128,-1,24
 2255 1182 2255 1182 2284 1224 c 128,-1,25
 2313 1266 2313 1266 2337.5 1293 c 128,-1,26
 2362 1320 2362 1320 2391 1339 c 128,-1,27
 2420 1358 2420 1358 2453 1376 c 128,-1,28
 2486 1394 2486 1394 2518.5 1410.5 c 128,-1,29
 2551 1427 2551 1427 2573 1440 c 1,30,31
 2550 1309 2550 1309 2525.5 1179 c 128,-1,32
 2501 1049 2501 1049 2486.5 968 c 128,-1,33
 2472 887 2472 887 2467 857 c 128,-1,34
 2462 827 2462 827 2456.5 803.5 c 128,-1,35
 2451 780 2451 780 2445 761 c 128,-1,36
 2439 742 2439 742 2430.5 723 c 0,37,38
 2409.85714286 676.857142857 2409.85714286 676.857142857 2391 658 c 1,39,-1
 2569 658 l 1,40,41
 2542.5785124 651.107438017 2542.5785124 651.107438017 2482.7892562 605.553719008 c 128,-1,42
 2423 560 2423 560 2393.5 541 c 128,-1,43
 2364 522 2364 522 2343 522 c 2,44,-1
 2165 522 l 1,45,46
 2202.48051948 560.922077922 2202.48051948 560.922077922 2227.24025974 664.461038961 c 128,-1,47
 2252 768 2252 768 2271.5 881.5 c 128,-1,48
 2291 995 2291 995 2312 1109 c 1,49,50
 2154.41758242 922.527472527 2154.41758242 922.527472527 2103.20879121 856.763736264 c 128,-1,51
 2052 791 2052 791 2026.5 755 c 128,-1,52
 2001 719 2001 719 1982.5 698.5 c 128,-1,53
 1964 678 1964 678 1933.5 659 c 128,-1,54
 1903 640 1903 640 1866.5 619 c 128,-1,55
 1830 598 1830 598 1796 579 c 128,-1,56
 1762 560 1762 560 1746 551 c 1,57,58
 1732 685 1732 685 1691.5 813 c 128,-1,59
 1651 941 1651 941 1605 1066 c 1,60,61
 1550.31698774 838.154115587 1550.31698774 838.154115587 1466.5 704.5 c 0,62,63
 1448 675 1448 675 1429 658 c 1,64,-1
 1621 658 l 1,0,1
437 1304 m 1,65,66
 641 1440 641 1440 663 1440 c 2,67,-1
 1340 1440 l 1,68,69
 1314.79352227 1434.27125506 1314.79352227 1434.27125506 1254.89676113 1388.63562753 c 128,-1,70
 1195 1343 1195 1343 1165.5 1323.5 c 128,-1,71
 1136 1304 1136 1304 1114 1304 c 2,72,-1
 945 1304 l 1,73,-1
 839 848 l 2,74,75
 819.589041096 760.650684932 819.589041096 760.650684932 754 693.5 c 0,76,77
 733 672 733 672 709 658 c 1,78,-1
 944 658 l 1,79,80
 922 653 922 653 892.5 631 c 128,-1,81
 863 609 863 609 831.5 585 c 0,82,83
 748.8125 522 748.8125 522 718 522 c 2,84,-1
 501 522 l 1,85,86
 580.171883893 566.188958452 580.171883893 566.188958452 604 668 c 1,87,88
 644 827 644 827 679 985.5 c 128,-1,89
 714 1144 714 1144 751 1304 c 1,90,-1
 437 1304 l 1,65,66
EndSplineSet
EndChar

StartChar: acute
Encoding: 180 180 121
Width: 588
Flags: HW
LayerCount: 2
Fore
SplineSet
588 1703 m 1,0,1
 389.591805766 1493.36115326 389.591805766 1493.36115326 152 1333.5 c 0,2,3
 71 1279 71 1279 0 1247 c 1,4,-1
 3 1259 l 1,5,6
 84 1304 84 1304 153.5 1365.5 c 128,-1,7
 223 1427 223 1427 265.5 1469.5 c 128,-1,8
 308 1512 308 1512 328 1533 c 0,9,10
 369.739130435 1576.82608696 369.739130435 1576.82608696 389.369565217 1589.91304348 c 128,-1,11
 409 1603 409 1603 429.5 1615.5 c 128,-1,12
 450 1628 450 1628 473 1641 c 128,-1,13
 496 1654 496 1654 517.5 1666 c 0,14,15
 547.6 1682.8 547.6 1682.8 588 1703 c 1,0,1
EndSplineSet
EndChar

